<svg width="40" height="41" viewBox="0 0 40 41" fill="none" xmlns="http://www.w3.org/2000/svg">
<g id="surface1 7">
<rect width="39.1083" height="39.998" transform="translate(0.799805 0.923828)" fill="white"/>
<path id="Vector" d="M31.0957 8.04252L31.4015 7.65828L31.0228 7.34563C28.1074 4.93849 24.4048 3.5006 20.3539 3.5006C18.9347 3.5006 17.5588 3.69942 16.256 4.02513L15.5289 4.20692L15.976 4.80847C17.3666 6.67934 19.3643 9.5049 21.7567 13.9302L21.9633 14.3124L22.3706 14.1612C26.8979 12.4801 29.6108 9.90866 31.0957 8.04252ZM13.7954 5.28474L13.5504 4.96196L13.1839 5.13485C8.68773 7.25567 5.28136 11.3065 3.93671 16.2535L3.77063 16.8645L4.40347 16.8844C6.87937 16.9623 12.7976 16.8456 19.3552 15.0888L19.9737 14.9231L19.663 14.3633C17.1196 9.77956 14.9806 6.84602 13.7954 5.28474ZM33.2492 9.54373L32.8615 9.08309L32.4799 9.54882C30.8239 11.57 27.9487 14.1954 23.3963 15.9767L22.89 16.1748L23.1297 16.6628C24.1112 18.6609 25.0634 20.7902 25.931 23.0897L26.0739 23.4685L26.4743 23.4074C29.7675 22.9046 32.8117 22.9045 35.1111 23.0846C35.6702 23.131 36.031 23.1831 36.4509 23.2438C36.5393 23.2565 36.6304 23.2697 36.7265 23.2832L37.2385 23.3555L37.2935 22.8413C37.3609 22.2107 37.3997 21.5775 37.3997 20.9229C37.3997 16.5693 35.8224 12.6008 33.2492 9.54373ZM21.1022 17.171L20.9171 16.7999L20.5181 16.9132C12.8049 19.1045 6.01016 19.0376 3.89411 18.9522L3.41227 18.9327L3.3754 19.4135L3.37282 19.4472C3.33626 19.9237 3.29873 20.4128 3.29873 20.9325C3.29873 26.1662 5.5631 30.8382 9.13404 34.0351L9.50684 34.3689L9.84031 33.9958C10.7354 32.9945 11.936 31.7192 13.3957 30.388L13.3976 30.3862C16.1439 27.8545 19.6773 25.1757 23.5263 24.0069L24.0432 23.85L23.8469 23.3467C22.9853 21.139 22.0577 19.0868 21.1022 17.171ZM30.5918 25.0672L30.5918 25.0672L30.5864 25.0674C29.5752 25.1162 28.4989 25.2137 27.4044 25.3597L26.8096 25.439L26.995 26.0098C27.9187 28.8536 28.6828 31.8662 29.1764 35L29.3007 35.7888L29.9561 35.3325C33.1421 33.1139 35.5522 29.8169 36.6749 25.9465L36.8401 25.3769L36.2508 25.3104C34.7907 25.1455 32.9394 24.9794 30.5918 25.0672ZM24.9357 26.2525L24.7821 25.7991L24.3225 25.9329C20.9412 26.9167 17.4044 29.4678 14.724 31.9281C13.4287 33.1068 12.3826 34.2256 11.5431 35.1421L11.1304 35.5926L11.6537 35.9081C14.1992 37.4424 17.1552 38.3451 20.3445 38.3451C22.7382 38.3451 24.9959 37.8394 27.0578 36.9484L27.4058 36.798L27.3549 36.4223C26.8706 32.8484 26.0164 29.4423 24.9357 26.2525ZM1.2998 20.9229C1.2998 10.1696 9.86705 1.42383 20.3539 1.42383C30.8408 1.42383 39.4081 10.1696 39.4081 20.9229C39.4081 31.6761 30.8408 40.4219 20.3539 40.4219C9.86705 40.4219 1.2998 31.6761 1.2998 20.9229Z" fill="#070707" stroke="#070707"/>
</g>
</svg>
