<svg width="90" height="89" viewBox="0 0 90 89" fill="none" xmlns="http://www.w3.org/2000/svg">
<path d="M4.42969 4.58691H86.0951V84.541H4.42969V4.58691Z" fill="url(#paint0_radial_13228_69)"/>
<path d="M4.42967 4.58679H86.095V84.5409H4.42967V4.58679ZM0.716797 88.2781H89.79V0.849609H0.716797V88.2781ZM60.7832 36.7301C57.8558 36.7301 56.8561 38.2214 56.8561 39.4612C56.8561 40.8087 57.5166 41.743 61.4615 43.7913C67.2807 46.6301 69.1015 49.3611 69.1015 53.3498C69.1015 59.3329 64.5675 62.549 58.4448 62.549C55.2139 62.549 52.4293 61.8842 50.8406 60.9499C50.5728 60.8421 50.5371 60.6445 50.5371 60.357V54.8411C50.5371 54.4638 50.7156 54.356 50.9834 54.5356C53.3218 56.0629 55.9993 56.7456 58.4448 56.7456C61.3723 56.7456 62.604 55.5059 62.604 53.8349C62.604 52.4874 61.7471 51.3015 57.9986 49.3431C52.7327 46.8097 50.5371 44.2404 50.5371 39.9283C50.5371 35.1131 54.2857 31.1064 60.7832 31.1064C63.9784 31.1064 66.2097 31.5915 67.4236 32.1485C67.727 32.3282 67.7984 32.6336 67.7984 32.9031V38.0238C67.7984 38.3292 67.6199 38.5089 67.2451 38.4011C65.6028 37.359 63.193 36.7301 60.7832 36.7301ZM28.8668 41.168C29.7236 41.2399 30.3841 41.2399 31.8657 41.2399C36.2033 41.2399 40.291 39.7127 40.291 33.7655C40.291 29.0222 37.3636 26.6326 32.419 26.6326C30.9374 26.6326 29.5273 26.7044 28.8489 26.7404L28.8668 41.168ZM22.2443 21.3322C22.2443 21.0627 22.762 20.8831 23.0654 20.8831C25.4395 20.7753 28.9739 20.7034 32.6332 20.7034C42.915 20.7034 46.9314 26.381 46.9314 33.6218C46.9314 43.1085 40.0947 47.1871 31.705 47.1871C30.2948 47.1871 29.8129 47.1152 28.8132 47.1152V61.453C28.8132 61.7585 28.7061 61.9022 28.367 61.9022H22.6906C22.3871 61.9022 22.2443 61.7944 22.2443 61.453V21.3322Z" fill="#31C5F0"/>
<defs>
<radialGradient id="paint0_radial_13228_69" cx="0" cy="0" r="1" gradientUnits="userSpaceOnUse" gradientTransform="translate(31.3341 22.5247) scale(62.0565 60.4753)">
<stop stop-color="#34364E" stop-opacity="0.98"/>
<stop offset="1" stop-color="#0C0824"/>
</radialGradient>
</defs>
</svg>
