<svg width="21" height="21" viewBox="0 0 21 21" fill="none" xmlns="http://www.w3.org/2000/svg">
<path id="Star" d="M9.70979 1.50997C10.0096 0.589694 11.3116 0.589695 11.6114 1.50997L13.3625 6.88437C13.4966 7.296 13.8804 7.57458 14.3133 7.57458H19.9741C20.9435 7.57458 21.3458 8.8156 20.5608 9.38437L15.9859 12.699C15.6344 12.9536 15.4874 13.4059 15.6218 13.8186L17.3704 19.1852C17.6704 20.1061 16.6171 20.873 15.8329 20.3048L11.2473 16.9825C10.8973 16.7288 10.4239 16.7288 10.0739 16.9825L5.48833 20.3048C4.70407 20.873 3.65078 20.1061 3.95081 19.1852L5.69938 13.8186C5.83383 13.4059 5.68675 12.9536 5.33529 12.699L0.760421 9.38437C-0.0245858 8.8156 0.377745 7.57458 1.34714 7.57458H7.0079C7.44082 7.57458 7.82458 7.296 7.9587 6.88437L9.70979 1.50997Z" fill="#070707"/>
</svg>
