<svg width="21" height="21" viewBox="0 0 21 21" fill="none" xmlns="http://www.w3.org/2000/svg">
<path id="Star" d="M9.67757 1.50997C9.97741 0.589694 11.2793 0.589695 11.5792 1.50997L13.3303 6.88437C13.4644 7.296 13.8481 7.57458 14.2811 7.57458H19.9418C20.9112 7.57458 21.3136 8.8156 20.5285 9.38437L15.9537 12.699C15.6022 12.9536 15.4551 13.4059 15.5896 13.8186L17.3382 19.1852C17.6382 20.1061 16.5849 20.873 15.8006 20.3048L11.2151 16.9825C10.8651 16.7288 10.3917 16.7288 10.0417 16.9825L5.4561 20.3048C4.67185 20.873 3.61856 20.1061 3.91858 19.1852L5.66715 13.8186C5.80161 13.4059 5.65453 12.9536 5.30307 12.699L0.728194 9.38437C-0.0568124 8.8156 0.345518 7.57458 1.31491 7.57458H6.97567C7.40859 7.57458 7.79236 7.296 7.92647 6.88437L9.67757 1.50997Z" fill="#E5E5E5"/>
</svg>
