<svg width="90" height="89" viewBox="0 0 90 89" fill="none" xmlns="http://www.w3.org/2000/svg">
<g id="Group">
<g id="Group 2">
<path id="Vector" d="M4.49902 4.60254H86.2595V84.7054H4.49902V4.60254Z" fill="url(#paint0_radial_13228_81)"/>
<g id="Group_2">
<path id="Vector_2" d="M4.49902 4.60294H86.2595V84.7058H4.49902V4.60294ZM0.783447 88.4474H89.9929V0.861328H0.783447V88.4474ZM59.2144 32.0894C59.2144 31.7836 59.3216 31.6397 59.661 31.6397H65.5023C65.806 31.6397 65.9489 31.7476 65.9489 32.0894V61.6265C65.9489 61.9323 65.8774 62.0762 65.5023 62.0762H59.7324C59.3573 62.0762 59.2501 61.8963 59.2501 61.5905V32.0894H59.2144V32.0894ZM58.8035 23.5808C58.8035 21.1883 60.4827 19.7673 62.5906 19.7673C64.8592 19.7673 66.3776 21.2963 66.3776 23.5808C66.3776 26.0452 64.7878 27.3944 62.5191 27.3944C60.3755 27.4124 58.8035 26.0632 58.8035 23.5808ZM42.0835 44.3935C41.0474 40.2382 38.5823 31.19 37.6534 26.8008H37.5819C36.7959 31.172 34.831 38.5832 33.2768 44.3935H42.0835ZM31.7585 50.4557L28.8289 61.6805C28.7574 61.9863 28.6502 62.0582 28.2751 62.0582H22.8089C22.4338 62.0582 22.3623 61.9503 22.4338 61.5006L32.991 24.3004C33.1697 23.6348 33.2947 23.0232 33.3662 21.1883C33.3662 20.9185 33.4733 20.8106 33.6698 20.8106H41.4761C41.7441 20.8106 41.8512 20.8825 41.9227 21.1883L53.7482 61.5726C53.8197 61.8784 53.7482 62.0582 53.4445 62.0582H47.2817C46.978 62.0582 46.7994 61.9863 46.7279 61.7165L43.6733 50.4557H31.7585Z" fill="#FF7F18"/>
</g>
</g>
</g>
<defs>
<radialGradient id="paint0_radial_13228_81" cx="0" cy="0" r="1" gradientUnits="userSpaceOnUse" gradientTransform="translate(31.4536 22.5774) scale(62.1406 60.585)">
<stop stop-color="#423325" stop-opacity="0.98"/>
<stop offset="1" stop-color="#1C0A00"/>
</radialGradient>
</defs>
</svg>
