<svg width="41" height="41" viewBox="0 0 41 41" fill="none" xmlns="http://www.w3.org/2000/svg">
<g clip-path="url(#clip0_13228_34)">
<path d="M35.0352 0.923828H6.67544C3.43558 0.923828 0.799805 3.55231 0.799805 6.7832V35.0645C0.799805 38.2953 3.43558 40.9238 6.67544 40.9238H35.0352C38.2751 40.9238 40.9108 38.2953 40.9108 35.0645V6.7832C40.9108 3.55231 38.2751 0.923828 35.0352 0.923828ZM38.5606 35.0645C38.5606 37.0029 36.9791 38.5801 35.0352 38.5801H6.67544C4.73159 38.5801 3.15006 37.0029 3.15006 35.0645V6.7832C3.15006 4.84473 4.73159 3.26758 6.67544 3.26758H35.0352C36.9791 3.26758 38.5606 4.84473 38.5606 6.7832V35.0645Z" fill="#070707" stroke="#070707" stroke-width="0.5"/>
<path d="M19.6802 17.4082C19.6802 14.8234 17.5717 12.7207 14.9797 12.7207H7.92896V29.127H14.9797C17.5717 29.127 19.6802 27.0243 19.6802 24.4395C19.6802 23.0405 19.0618 21.7835 18.0837 20.9238C19.0618 20.0641 19.6802 18.8071 19.6802 17.4082ZM17.33 24.4395C17.33 25.7319 16.2757 26.7832 14.9797 26.7832H10.2792V22.0957H14.9797C16.2757 22.0957 17.33 23.147 17.33 24.4395ZM10.2792 19.752V15.0645H14.9797C16.2757 15.0645 17.33 16.1158 17.33 17.4082C17.33 18.7006 16.2757 19.752 14.9797 19.752H10.2792Z" fill="#070707" stroke="#070707" stroke-width="0.5"/>
<path d="M27.9062 17.4082C24.6663 17.4082 22.0305 20.0367 22.0305 23.2676C22.0305 26.4985 24.6663 29.127 27.9062 29.127C29.9972 29.127 31.9472 28.0048 32.995 26.1982L30.9606 25.0245C30.3314 26.1094 29.1609 26.7832 27.9062 26.7832C26.3739 26.7832 25.0672 25.8036 24.5821 24.4395H33.7818V23.2676C33.7818 20.0367 31.146 17.4082 27.9062 17.4082ZM24.5821 22.0957C25.0672 20.7316 26.3739 19.752 27.9062 19.752C29.4384 19.752 30.7451 20.7316 31.2302 22.0957H24.5821Z" fill="#070707" stroke="#070707" stroke-width="0.5"/>
<path d="M23.2056 12.7207H32.6066V15.0645H23.2056V12.7207Z" fill="#070707" stroke="#070707" stroke-width="0.5"/>
</g>
<defs>
<clipPath id="clip0_13228_34">
<rect width="40.111" height="40" fill="white" transform="translate(0.799805 0.923828)"/>
</clipPath>
</defs>
</svg>
