<svg width="60" height="89" viewBox="0 0 60 89" fill="none" xmlns="http://www.w3.org/2000/svg">
<rect width="60" height="89" fill="#E5E5E5"/>
<g id="Frame">
<rect width="1445" height="4569.92" transform="translate(-1080 -1498)" fill="white"/>
<g id="Skills">
<g id="Group 7">
<g id="Group 2">
<g id="Frame_2" clip-path="url(#clip0_0_1)">
<g id="Group">
<path id="path0 fill 1" d="M15.5469 88.8613C23.5854 88.8613 30.1055 82.2955 30.1055 74.2006V59.54H15.5469C7.5084 59.54 0.988281 66.1058 0.988281 74.2006C0.988281 82.2955 7.5084 88.8613 15.5469 88.8613Z" fill="#0ACF83"/>
<path id="path1 fill 3" d="M0.988281 44.8608C0.988281 36.766 7.5084 30.2002 15.5469 30.2002H30.1055V59.5394H15.5469C7.5084 59.5214 0.988281 52.9556 0.988281 44.8608Z" fill="#A259FF"/>
<path id="path1 fill 2" d="M0.988281 15.5219C0.988281 7.42712 7.5084 0.861328 15.5469 0.861328H30.1055V30.2005H15.5469C7.5084 30.2005 0.988281 23.6168 0.988281 15.5219Z" fill="#F24E1E"/>
<path id="path2 fill 1" d="M30.1235 0.861328H44.6821C52.7206 0.861328 59.2408 7.42712 59.2408 15.5219C59.2408 23.6168 52.7206 30.1825 44.6821 30.1825H30.1235V0.861328Z" fill="#FF7262"/>
<path id="path3 fill 1" d="M59.2405 44.8608C59.2405 52.9556 52.7204 59.5214 44.6819 59.5214C36.6434 59.5214 30.1233 52.9556 30.1233 44.8608C30.1233 36.766 36.6434 30.2002 44.6819 30.2002C52.7204 30.2002 59.2405 36.766 59.2405 44.8608Z" fill="#1ABCFE"/>
</g>
</g>
</g>
</g>
</g>
</g>
<g id="Frame_3" opacity="0.3">
<rect width="1445" height="4569.92" transform="translate(-1080 -1498)" fill="white"/>
<g id="Skills_2">
<g id="Group 7_2">
<g id="Group 2_2">
<g id="Frame_4" clip-path="url(#clip1_0_1)">
<g id="Group_2">
<path id="path0 fill 1_2" d="M15.5469 88.8613C23.5854 88.8613 30.1055 82.2955 30.1055 74.2006V59.54H15.5469C7.5084 59.54 0.988281 66.1058 0.988281 74.2006C0.988281 82.2955 7.5084 88.8613 15.5469 88.8613Z" fill="#0ACF83"/>
<path id="path1 fill 3_2" d="M0.988281 44.8608C0.988281 36.766 7.5084 30.2002 15.5469 30.2002H30.1055V59.5394H15.5469C7.5084 59.5214 0.988281 52.9556 0.988281 44.8608Z" fill="#A259FF"/>
<path id="path1 fill 2_2" d="M0.988281 15.5219C0.988281 7.42712 7.5084 0.861328 15.5469 0.861328H30.1055V30.2005H15.5469C7.5084 30.2005 0.988281 23.6168 0.988281 15.5219Z" fill="#F24E1E"/>
<path id="path2 fill 1_2" d="M30.1235 0.861328H44.6821C52.7206 0.861328 59.2408 7.42712 59.2408 15.5219C59.2408 23.6168 52.7206 30.1825 44.6821 30.1825H30.1235V0.861328V0.861328Z" fill="#FF7262"/>
<path id="path3 fill 1_2" d="M59.2405 44.8608C59.2405 52.9556 52.7204 59.5214 44.6819 59.5214C36.6434 59.5214 30.1233 52.9556 30.1233 44.8608C30.1233 36.766 36.6434 30.2002 44.6819 30.2002C52.7204 30.2002 59.2405 36.766 59.2405 44.8608Z" fill="#1ABCFE"/>
</g>
</g>
</g>
</g>
</g>
</g>
<defs>
<clipPath id="clip0_0_1">
<rect width="58.2523" height="87.9996" fill="white" transform="translate(0.988281 0.861328)"/>
</clipPath>
<clipPath id="clip1_0_1">
<rect width="58.2523" height="87.9996" fill="white" transform="translate(0.988281 0.861328)"/>
</clipPath>
</defs>
</svg>
