<svg width="91" height="89" viewBox="0 0 91 89" fill="none" xmlns="http://www.w3.org/2000/svg">
<g id="Group">
<path id="Vector" d="M4.56616 4.60254H86.3267V84.7054H4.56616V4.60254Z" fill="url(#paint0_radial_13228_94)"/>
<g id="Group_2">
<path id="Vector_2" d="M4.56616 4.60294H86.3267V84.7058H4.56616V4.60294ZM0.850586 88.4474H90.0601V0.861328H0.850586V88.4474ZM63.9618 43.0804C65.8553 43.0804 66.5341 43.0804 66.7127 43.0084C66.7127 42.7386 66.7842 42.5587 66.7842 42.3788C66.7842 40.3641 65.8196 36.6225 61.9611 36.6225C58.3884 36.6225 56.87 39.7705 56.4949 43.0984H63.9618V43.0804ZM56.4235 48.2071C56.4949 53.2619 58.8707 56.6617 64.5334 56.6617C66.7306 56.6617 68.6241 56.3559 70.5891 55.5104C70.857 55.4025 71.0357 55.4385 71.0357 55.7802V60.4573C71.0357 60.835 70.9285 61.0149 70.6605 61.2128C68.6956 62.1842 66.2304 62.6339 63.1937 62.6339C53.3867 62.6339 49.7068 55.3305 49.7068 47.2177C49.7068 38.3854 54.2441 31.154 62.229 31.154C70.339 31.154 73.1614 38.0076 73.1614 43.584C73.1614 45.3829 73.0542 46.84 72.8577 47.5595C72.7863 47.8653 72.6791 47.9732 72.3754 48.0452C71.6252 48.1531 69.4458 48.315 66.1768 48.315H56.4413V48.2071H56.4235ZM36.488 44.3935C35.4519 40.2382 32.9153 31.19 31.9864 26.8008H31.9149C31.129 31.172 29.0925 38.5832 27.5742 44.3935H36.488ZM26.0558 50.4557L23.1262 61.6445C23.0547 61.9503 22.9475 62.0582 22.5724 62.0582H17.0884C16.7132 62.0582 16.6418 61.9503 16.7132 61.5006L27.2705 24.3363C27.4491 23.6708 27.5741 23.1311 27.6456 21.2603C27.6456 20.9905 27.7528 20.8825 27.9493 20.8825H35.7556C36.0235 20.8825 36.1307 20.9545 36.2021 21.2603L48.0098 61.5726C48.0813 61.8784 48.0098 62.0582 47.7061 62.0582H41.579C41.2753 62.0582 41.0967 61.9503 41.0252 61.6805L37.9706 50.4557H26.0558Z" fill="#D8A1FF"/>
</g>
</g>
<defs>
<radialGradient id="paint0_radial_13228_94" cx="0" cy="0" r="1" gradientUnits="userSpaceOnUse" gradientTransform="translate(31.5186 22.5615) scale(62.1407 60.585)">
<stop stop-color="#442F55" stop-opacity="0.98"/>
<stop offset="1" stop-color="#12002C"/>
</radialGradient>
</defs>
</svg>
