<svg width="40" height="41" viewBox="0 0 40 41" fill="none" xmlns="http://www.w3.org/2000/svg">
<g id="surface1 6">
<path id="Vector" d="M12.1562 1.43344H12.6562V1.42383H28.561C34.5256 1.42383 39.4081 6.40852 39.4081 12.5359V29.3098C39.4081 35.4375 34.5253 40.4219 28.5704 40.4219H12.1562C6.19034 40.4219 1.2998 35.4454 1.2998 29.3291V12.5455C1.2998 6.41867 6.19114 1.43344 12.1562 1.43344ZM3.30813 12.5541V12.5551V29.3387C3.30813 34.3248 7.23569 38.3555 12.1562 38.3555H28.5704C33.4736 38.3555 37.3997 34.3233 37.3997 29.3195V12.5455C37.3997 7.54123 33.4733 3.50948 28.561 3.50948H12.1562C7.24348 3.50948 3.31806 7.54155 3.30813 12.5541ZM31.3925 8.62353C31.3925 8.0336 31.8465 7.58551 32.3966 7.58551C32.9468 7.58551 33.4008 8.0336 33.4008 8.62353C33.4008 9.21346 32.9468 9.66154 32.3966 9.66154C31.8465 9.66154 31.3925 9.21346 31.3925 8.62353ZM10.3342 20.9277C10.3342 15.2719 14.8589 10.6615 20.3633 10.6615C25.8678 10.6615 30.3925 15.2719 30.3925 20.9277C30.3925 26.5834 25.8678 31.1938 20.3633 31.1938C14.8589 31.1938 10.3342 26.5834 10.3342 20.9277ZM28.3842 20.9277C28.3842 16.3941 24.824 12.7376 20.3633 12.7376C15.9027 12.7376 12.3425 16.3941 12.3425 20.9277C12.3425 25.4612 15.9027 29.1177 20.3633 29.1177C24.824 29.1177 28.3842 25.4612 28.3842 20.9277Z" fill="#070707" stroke="#070707"/>
</g>
</svg>
