<?xml version="1.0" encoding="utf-8"?>
<!-- Generator: Adobe Illustrator 27.5.0, SVG Export Plug-In . SVG Version: 6.00 Build 0)  -->
<svg version="1.1" id="Layer_1" xmlns="http://www.w3.org/2000/svg" xmlns:xlink="http://www.w3.org/1999/xlink" x="0px" y="0px"
	 viewBox="0 0 4000 4000" style="enable-background:new 0 0 4000 4000;" xml:space="preserve">
<g>
	<g>
		<rect x="0.5" y="0.5" style="fill:#FFFFFF;" width="3999" height="3999"/>
		<path d="M3999,1v3998H1V1H3999 M4000,0H0v4000h4000V0L4000,0z"/>
	</g>
</g>
<g>
	<path style="fill:#231916;" d="M1514.849,1891.184c84.682,56.222,150.029,45.096,184.178,31.433
		c-31.232-16.482-60.227-29.024-89.912-34.983C1580.129,1881.816,1549.766,1882.182,1514.849,1891.184 M1714.178,1695.439
		c-8.094-81.386-24.153-181.024-54.72-292.525c-99.552,104.883-18.457,203.532,49.625,286.326L1714.178,1695.439z
		 M1295.325,2012.843l-0.011,0.013l-0.004-0.001L1295.325,2012.843z M1583.249,1962.375c-23.752-6.452-49.31-17.075-76.249-33.462
		l0.002,0.01c0,0-106.681,10.279-158.765,92.536c3.72-21.705,17.489-50.099,36.162-76.151l60.226-59.066l-28.043-45.306
		c7.381-4.512,14.78-8.847,22.18-12.987l52.969,32.252l0.002,0.002c46.471-14.294,86.314-15.605,124.584-7.924
		c35.362,7.099,68.572,21.749,104.174,40.811c1.339-26.916,2.309-72.607-1.21-133.049c-11.44-15.655-24.446-31.473-37.945-47.89
		c-82.556-100.395-181.918-221.23-24.38-356.414l21.242-18.228l7.815,26.815c42.406,145.511,60.52,273.208,67.605,369.776
		l3.392,64.543c1.746,55.942-0.256,95.388-1.604,113.878h0.001l-0.529,27.51c0,0-122.25,100.539-265.133,58.057
		C1489.747,1998.087,1557.022,1979.943,1583.249,1962.375z"/>
	<path style="fill:#231916;" d="M1620.753,1631.384l-64.772-69.636c-3.001,46.604,5.446,130.596,183.419,209.622l-7.292,63.381
		c-272.416-120.964-207.46-295.466-207.28-295.972l12.716-32.628l105.784,97.12L1620.753,1631.384z"/>
	<path style="fill-rule:evenodd;clip-rule:evenodd;fill:#0067AF;" d="M1609.115,1887.634c-28.986-5.818-59.349-5.452-94.266,3.55
		c84.682,56.222,150.029,45.096,184.178,31.433c-11.257-5.941-22.222-11.369-33.036-16.162c-5.589-2.141-10.98-4.386-16.184-6.721
		C1636.199,1894.486,1622.73,1890.367,1609.115,1887.634"/>
	<path style="fill-rule:evenodd;clip-rule:evenodd;fill:#6E248C;" d="M1602.523,1811.573
		c28.077,25.582,69.126,51.861,118.417,71.341c0.54-14.053,0.906-31.809,0.725-52.902c-23.532-10.913-44.419-22.23-62.947-33.788
		l-95.49-37.89C1567.692,1773.576,1581.458,1792.378,1602.523,1811.573"/>
	<path style="fill-rule:evenodd;clip-rule:evenodd;fill:#0067AF;" d="M1572.756,1847.646c-7.184-7.133-13.583-14.411-19.279-21.701
		c-18.771-24.015-29.951-48.18-36.595-67.852c-50.981-25.308-92.8-51.015-127.01-76.538l-77.994-28.237
		c1.081,38.226,34.336,110.66,204.088,186.246c7.538,3.357,15.345,6.72,23.43,10.085
		C1550.833,1848.166,1561.921,1847.524,1572.756,1847.646"/>
	<path style="fill-rule:evenodd;clip-rule:evenodd;fill:#6E248C;" d="M1300.804,1418.374
		c-13.268,48.043-24.51,148.031,204.886,271.904l-0.002-0.044l59.557,24.91c-34.742-44.426-45.364-87.038-47.058-119.243
		c-17.532-13.249-33.855-26.486-49.045-39.681L1300.804,1418.374z"/>
	<path style="fill-rule:evenodd;clip-rule:evenodd;fill:#D93C78;" d="M1555.981,1561.748
		c-2.877,44.648,4.758,123.613,161.904,199.653l1.427-0.84c-0.01-0.174-0.02-0.347-0.03-0.521
		c-11.44-15.655-24.446-31.473-37.945-47.89c-22.3-27.119-45.826-55.731-65.185-85.712L1555.981,1561.748z"/>
	<path style="fill-rule:evenodd;clip-rule:evenodd;fill:#F8B22F;" d="M1616.061,1478.333
		c-17.408,76.597,41.529,148.288,93.021,210.907l5.095,6.199c-8.094-81.386-24.153-181.024-54.72-292.525
		C1635.199,1428.47,1621.668,1453.657,1616.061,1478.333"/>
	<path style="fill-rule:evenodd;clip-rule:evenodd;fill:#D93C78;" d="M1535.688,1510.913
		c-77.573-94.062-123.203-187.597-147.252-276.197l-52.257-61.97c-16.474,71.795-37.802,170.903,189.48,363.9L1535.688,1510.913z"/>
	<path style="fill-rule:evenodd;clip-rule:evenodd;fill:#F8B22F;" d="M1490.95,765.368
		c-56.117,100.536-172.986,365.697,95.412,679.73c11.494-26.626,31.377-53.928,62.09-81.851L1490.95,765.368z"/>
	<path style="fill:#231916;" d="M1658.718,1796.223l-95.49-37.89c10.679,36.458,74.547,93.268,164.288,127.121l0.18,19.869
		l-60.131,1.73c-153.1-57.752-160.28-192.333-160.305-192.719l-1.572-24.099l122.212,51.116L1658.718,1796.223z"/>
	<path style="fill:#231916;" d="M1391.296,1682.071l-79.419-28.754c1.166,41.247,39.793,122.325,246.952,204.214l-43.473,30.177
		c-305.848-120.9-255.717-281.177-255.583-281.641l5.758-19.898l140.614,63.089L1391.296,1682.071z"/>
	<path style="fill:#231916;" d="M1469.141,1556.22l-168.337-137.846c-14.077,50.976-25.873,160.43,249.634,294.846l-26.718,48.236
		c-379.494-185.148-263.484-393.151-263.162-393.752l9.968-18.667l128.217,97.784L1469.141,1556.22z"/>
	<path style="fill:#231916;" d="M1430.585,1284.702l-94.406-111.956c-17.174,74.846-39.622,179.371,219.802,389.002l-18.937,48.064
		c-369.548-266.278-239.597-533.322-239.264-534.119l11.703-28.162l110.436,138.12L1430.585,1284.702z"/>
	<path style="fill:#231916;" d="M1651.219,1373.749L1490.95,765.368c-58.086,104.065-181.264,384.51,125.111,712.965l-30.839,88.082
		c-424.699-441.403-101.582-890.328-100.743-891.514l22.771-32.16l178.951,722.256L1651.219,1373.749z"/>
	<path style="fill-rule:evenodd;clip-rule:evenodd;fill:#D75C2A;" d="M1648.452,1363.247
		c-195.037-12.546-199.096-507.525-199.096-507.525c-47.466,130.676-71.636,345.261,137.006,589.377
		C1597.856,1418.472,1617.738,1391.17,1648.452,1363.247"/>
	<path style="fill-rule:evenodd;clip-rule:evenodd;fill:#B91C58;" d="M1535.688,1510.913
		c-77.573-94.062-123.203-187.597-147.252-276.197c0,0,46.32,181.364,78.516,230.104c0,0-54.979-38.978-60.61-45.877
		c28.938,34.916,67.722,73.891,119.318,117.704L1535.688,1510.913z"/>
	<path style="fill-rule:evenodd;clip-rule:evenodd;fill:#4E046D;" d="M1518.186,1595.901
		c-17.532-13.249-33.855-26.486-49.045-39.681l-97.537-79.869l118.582,118.883c0,0-7.126,35.143,14.901,70.732l-116.776-52.337
		c29.501,24.247,67.824,49.89,117.378,76.649l-0.002-0.044l59.557,24.91C1530.502,1670.718,1519.88,1628.106,1518.186,1595.901"/>
	<path style="fill-rule:evenodd;clip-rule:evenodd;fill:#003780;" d="M1516.882,1758.092c-50.981-25.308-92.8-51.015-127.01-76.538
		l-28.198-10.207c0,0,110.381,120.695,177.722,178.302c11.438-1.483,22.525-2.125,33.36-2.003
		c-7.184-7.133-13.583-14.411-19.279-21.701C1534.706,1801.93,1523.526,1777.765,1516.882,1758.092"/>
	<path style="fill-rule:evenodd;clip-rule:evenodd;fill:#D75C2A;" d="M1707.162,1635.829
		c-66.937-46.012-81.084-185.919-81.084-185.919c-4.594,9.544-7.881,19.02-10.017,28.422
		c-17.408,76.597,41.529,148.288,93.021,210.907l5.095,6.199C1712.295,1676.527,1709.985,1656.631,1707.162,1635.829"/>
	<path style="fill-rule:evenodd;clip-rule:evenodd;fill:#B91C58;" d="M1718.103,1761.271
		c-14.713-9.847-149.751-102.654-162.122-199.523c-2.877,44.648,4.758,123.613,161.904,199.653L1718.103,1761.271z"/>
	<path style="fill-rule:evenodd;clip-rule:evenodd;fill:#4E046D;" d="M1721.642,1853.696
		c-33.164-15.241-64.997-33.436-91.314-49.827c-39.881-24.838-67.1-45.535-67.1-45.535c4.464,15.243,18.23,34.047,39.295,53.24
		c28.077,25.582,69.125,51.861,118.417,71.341C1721.263,1874.483,1721.524,1864.717,1721.642,1853.696"/>
	<path style="fill-rule:evenodd;clip-rule:evenodd;fill:#003780;" d="M1665.991,1906.455c-5.589-2.141-10.98-4.385-16.184-6.721
		c0,0-61.866,28.055-134.958-8.551c84.682,56.222,150.029,45.096,184.178,31.433
		C1687.771,1916.676,1676.806,1911.248,1665.991,1906.455"/>
	<path style="fill-rule:evenodd;clip-rule:evenodd;fill:#0067AF;" d="M1713.246,2638.715
		c-15.257-56.221-70.242-153.119-255.705-212.278c-0.168,0.375-0.336,0.749-0.505,1.124
		c93.945,56.223,156.416,119.269,197.926,179.201L1713.246,2638.715z"/>
	<path style="fill-rule:evenodd;clip-rule:evenodd;fill:#6E248C;" d="M1691.451,2793.824
		c-12.993-73.635-64.741-198.609-239.617-309.239c74.399,79.014,130.329,159.401,172.303,236.843L1691.451,2793.824z"/>
	<path style="fill-rule:evenodd;clip-rule:evenodd;fill:#D93C78;" d="M1707.298,3182.864
		c-0.562-112.71-41.695-369.127-276.203-629.419c116.182,230.348,169.818,400.515,192.795,520.826L1707.298,3182.864z"/>
	<path style="fill-rule:evenodd;clip-rule:evenodd;fill:#F8B22F;" d="M1599.102,3243.787
		c5.638-93.698-7.358-278.841-251.542-676.854C1369.414,2643.196,1467.419,2973.704,1599.102,3243.787"/>
	<path style="fill-rule:evenodd;clip-rule:evenodd;fill:#1296DF;" d="M1397.822,2009.777
		c-70.481,118.659-112.12,245.785-46.057,457.508c31.283-26.187,54.353-96.063,71.004-180.51l6.658-33.771l26.309,22.094
		c140.948,118.895,395.522-338.877,433.105-383.344c19.083-22.577,41.496-44.67,65.899-63.67
		c-59.204,7.048-131.472,38.385-131.472,38.385c129.138-136.311,284.115-88.254,284.114-88.253
		c14.49,3.076,29.031,8.289,43.857,15.251c62.701,24.25,122.572,47.405,184.646,71.412l-214.25-127.264l-2.425-5.375
		c-0.391-0.864-132.564-305.112-466.919-18.04l-1.066,0.916l-1.636,0.991c-0.2,0.12-10.297,6.102-26.884,17.769l-13.153-21.109
		l-52.052,90.178c0,0-105.542,102.981-115.72,121.582c-3.111,5.688-12.425,18.23-24.212,33.264l11.931,0.377l0.881-0.198
		c-55.811,85.129-0.934-2.259,7.328,17.804l44.843,41.204c0,0-98.738,69.217-104.117,178.625
		C1362.292,2150.76,1368.805,2061.09,1397.822,2009.777"/>
	<path style="fill:#231916;" d="M1342.975,2550.717c0.327,1.182,106.48,386.144,256.127,693.07
		c5.709-94.862-7.683-283.457-260.754-691.792l62.22-57.698c316.386,599.689,227.272,819.826,227.027,820.477l-15.99,42.303
		l-20.95-40.078c-166.057-317.674-286.413-754.216-286.765-755.479L1342.975,2550.717z"/>
	<path style="fill:#231916;" d="M1621.648,3071.354l85.65,111.51c-0.599-120.332-47.444-404.463-326.476-682.232l42.948-44.898
		c372.887,371.198,321.735,784.76,321.599,785.96l-5.663,49.982l-150.312-195.696L1621.648,3071.354z"/>
	<path style="fill:#231916;" d="M1622.338,2719.495l69.112,74.329c-13.831-78.383-71.574-214.937-275-330.44l24.133-45.414
		c313.717,178.129,295.934,432.667,295.893,433.404l-2.666,47.605l-141.184-151.84L1622.338,2719.495z"/>
	<path style="fill:#231916;" d="M1650.831,2604.497l62.415,34.219c-15.396-56.734-71.246-154.886-260.805-213.884l14.331-84.278
		c296.788,143.731,293.022,335.174,293.021,335.727l-0.089,34.208l-128.413-70.402L1650.831,2604.497z"/>
	<path style="fill:#231916;" d="M1469.309,1975.677c114.076,8.088,171.88-39.041,197.737-71.35
		c-39.716,1.182-75.056,4.981-107.421,15.607C1528.022,1930.312,1498.501,1947.505,1469.309,1975.677 M1555.909,1673.524
		c-53.05-75.187-124.019-163.828-215.77-256.036c-39.302,157.879,94.787,209.489,207.346,252.793L1555.909,1673.524z
		 M1429.502,1958.165c37.568-39.761,75.848-63.137,117.571-76.837c38.556-12.659,79.191-16.731,124.614-17.81
		c-13.613-27.094-38-72.362-74.958-129.581c-19.879-8.984-41.384-17.258-63.701-25.844
		c-136.488-52.509-300.764-115.71-221.495-335.403l10.689-29.624l22.518,21.918c122.199,118.94,210.738,233.908,271.219,324.517
		c5.351-3.526,9.16-5.9,11.118-7.097c347.708-297.603,505.093-15.814,526.556,27.669l320.579,226.421l-334.751-116.191
		c-31.133-14.619-65.742-10.918-99.485,3.328c-44.563,18.818-87.463,55.661-120.154,94.338
		c-98.934,117.051-242.911,547.522-448.398,470.978c-35.256,119.141-136.635,183.969-136.949,184.171l-21.676,14.107l-8.511-24.434
		c-89.408-256.633-33.454-460.234,55.472-606.83l69.739,2.204H1429.502z M1575.746,2007.448c-26.831,6.853-57.741,10.625-93.2,9.52
		l0.006,0.006c0,0-98.738,69.217-104.117,178.625c-16.142-44.839-9.629-134.509,19.387-185.823
		c-70.481,118.659-112.12,245.785-46.057,457.508c31.283-26.187,54.353-96.063,71.004-180.51l6.658-33.771l26.309,22.094
		c140.948,118.895,395.522-338.877,433.105-383.344c19.083-22.577,41.496-44.67,65.899-63.67
		c-59.204,7.048-131.472,38.385-131.472,38.385c129.138-136.311,284.115-88.254,284.115-88.254l0,0.002
		c14.49,3.076,29.031,8.289,43.857,15.251l184.646,71.412l-214.25-127.264l-2.425-5.375c-0.391-0.864-132.564-305.112-466.919-18.04
		l-1.066,0.916l-1.636,0.991c-0.127,0.077-4.272,2.531-11.546,7.315c42.976,67.685,68.209,117.842,78.599,139.761h0.001
		l14.736,27.224c0,0-63.933,166.211-227.368,203.849C1504.011,2094.255,1559.811,2039.188,1575.746,2007.448z"/>
	<path style="fill:#231916;" d="M1428.932,1662.619l-102.022-32.257c22.902,47.288,77.745,124.83,295.795,103.513l28.003,66.093
		c-333.762,32.629-366.928-174.223-367.033-174.817l-5.642-38.993l157.412,36.423L1428.932,1662.619z"/>
	<path style="fill-rule:evenodd;clip-rule:evenodd;fill:#0067AF;" d="M1559.626,1919.935c-31.603,10.377-61.124,27.57-90.317,55.742
		c114.076,8.088,171.88-39.041,197.737-71.35c-14.314,0.426-28.061,1.191-41.304,2.494c-6.658,1.004-13.182,1.797-19.571,2.394
		C1589.941,1911.625,1574.47,1915.061,1559.626,1919.935"/>
	<path style="fill-rule:evenodd;clip-rule:evenodd;fill:#6E248C;" d="M1510.998,1849.129c41.673,9.475,96.43,12.442,155.486,4.181
		c-7.264-14.057-16.752-31.642-28.624-52.192c-29.088,2.363-55.812,2.866-80.36,1.825l-114.493,15.853
		C1455.831,1831.243,1479.732,1842.017,1510.998,1849.129"/>
	<path style="fill-rule:evenodd;clip-rule:evenodd;fill:#0067AF;" d="M1501.857,1900.947c-10.987-3-21.286-6.577-30.906-10.555
		c-31.691-13.102-56.035-30.56-73.449-46.136c-63.942,3.493-119.136,1.513-166.78-4.503l-92.011,15.603
		c22.254,36.823,94.973,89.295,303.069,69.167c9.241-0.893,18.748-1.93,28.53-3.118
		C1480.684,1913.612,1491.182,1906.836,1501.857,1900.947"/>
	<path style="fill-rule:evenodd;clip-rule:evenodd;fill:#6E248C;" d="M997.598,1631.493
		c13.65,54.389,58.087,158.509,351.345,152.581l-0.027-0.04l72.116-8.638c-58.644-24.228-92.671-60.054-112.186-90.644
		c-24.51-3.249-47.829-7.157-70.017-11.652L997.598,1631.493z"/>
	<path style="fill-rule:evenodd;clip-rule:evenodd;fill:#D93C78;" d="M1326.91,1630.361
		c21.941,45.305,73.198,118.376,269.204,105.683l0.931-1.614c-0.106-0.164-0.211-0.328-0.317-0.492
		c-19.879-8.984-41.384-17.258-63.701-25.844c-36.869-14.184-75.766-29.149-111.343-47.766L1326.91,1630.361z"/>
	<path style="fill-rule:evenodd;clip-rule:evenodd;fill:#F8B22F;" d="M1339.475,1515.386
		c25.43,84.639,122.879,122.143,208.011,154.895l8.424,3.243c-53.05-75.187-124.019-163.828-215.77-256.036
		C1330.563,1455.959,1331.282,1488.119,1339.475,1515.386"/>
	<path style="fill-rule:evenodd;clip-rule:evenodd;fill:#D93C78;" d="M1278.856,1591.847
		c-128.099-49.071-224.633-115.34-297.304-188.742l-85.52-31.693c23.681,79.421,57.756,188.271,387.275,251.188L1278.856,1591.847z"
		/>
	<path style="fill-rule:evenodd;clip-rule:evenodd;fill:#F8B22F;" d="M821.667,886.779
		c0.808,129.539,33.423,453.928,470.304,612.537c-3.512-32.44,0.816-70.191,15.4-114.559L821.667,886.779z"/>
	<path style="fill:#231916;" d="M1557.5,1802.943l-114.493,15.853c30.672,29.77,124.698,49.973,231.321,33.353l11.194,19.351
		l-57.908,35.036c-181.904,28.353-263.556-99.418-263.795-99.782l-14.902-22.72l147.987-17.724L1557.5,1802.943z"/>
	<path style="fill:#231916;" d="M1232.403,1839.47l-93.692,15.887c24.012,39.734,106.785,97.689,354.994,62.991l-25.826,53.648
		c-366.457,51.228-406.25-133.476-406.375-134.005l-5.396-22.672l172.64-16.204L1232.403,1839.47z"/>
	<path style="fill:#231916;" d="M1238.829,1673.1l-241.232-41.607c14.484,57.71,63.627,171.403,407.873,150.231l0.59,62.036
		c-474.18,29.166-475.941-238.79-475.96-239.557l-0.593-23.802l179.742,24.634L1238.829,1673.1z"/>
	<path style="fill:#231916;" d="M1050.533,1428.668l-154.5-57.255c24.687,82.795,60.669,197.57,430.878,258.949l8.112,57.553
		c-509.426-55.771-530.278-389.26-530.395-390.223l-4.158-34.06l184.7,73.982L1050.533,1428.668z"/>
	<path style="fill:#231916;" d="M1315.903,1393.505L821.667,886.779c0.837,134.085,35.751,476.936,517.808,628.607l18.65,103.329
		c-660.524-196.636-593.12-815.287-592.956-816.913l4.459-44.11l575.668,607.849L1315.903,1393.505z"/>
	<path style="fill-rule:evenodd;clip-rule:evenodd;fill:#0067AF;" d="M1668.318,2154.373
		c50.084-62.573,178.27-252.212,220.522-262.619c19.083-22.577,41.496-44.67,65.899-63.67
		c-59.204,7.048-131.472,38.385-131.472,38.385c129.138-136.311,284.115-88.254,284.114-88.253
		c14.49,3.076,29.031,8.289,43.857,15.251l184.646,71.412l-70.6-41.937l-63.736-37.859
		c-94.979-46.996-280.186-102.609-445.173,59.833l-76.613-52.066c18.401,32.521,30.467,56.803,36.88,70.331l14.736,27.224
		c0,0-63.933,166.211-227.368,203.849c0,0,55.8-55.066,71.734-86.806c-26.831,6.853-57.741,10.625-93.194,9.527
		c0,0-98.738,69.217-104.117,178.625c-16.142-44.839-9.629-134.509,19.387-185.823c-70.481,118.659-112.12,245.785-46.057,457.508
		c0,0,68.362-92.586,49.482-256.479c0,0,132.727,96.852,292.354-111.203C1693.6,2099.604,1685.173,2130.722,1668.318,2154.373"/>
	<path style="fill-rule:evenodd;clip-rule:evenodd;fill:#47EADF;" d="M1834.987,1675.948c26.909,14.92,80.423,31.225,171.583,8.436
		c0,0,83.034-7.996,113.858,50.557l-1.219-2.702c-0.391-0.864-132.564-305.112-466.919-18.04l-1.066,0.916l-1.636,0.991
		c-0.127,0.077-4.264,2.527-11.546,7.315C1695.435,1690.865,1775.017,1642.691,1834.987,1675.948"/>
	<path style="fill-rule:evenodd;clip-rule:evenodd;fill:#D75C2A;" d="M1307.371,1384.757
		c-197.893,95.863-476.325-386.462-476.325-386.462c25.99,154.248,121.311,377.725,460.925,501.021
		C1288.459,1466.877,1292.787,1429.125,1307.371,1384.757"/>
	<path style="fill-rule:evenodd;clip-rule:evenodd;fill:#B91C58;" d="M1278.856,1591.847
		c-128.099-49.071-224.633-115.34-297.304-188.742c0,0,145.91,151.866,204.453,181.731c0,0-75.434-7.675-84.774-11.306
		c47.69,18.136,107.269,34.786,182.076,49.069L1278.856,1591.847z"/>
	<path style="fill-rule:evenodd;clip-rule:evenodd;fill:#4E046D;" d="M1308.846,1684.752c-24.51-3.249-47.829-7.157-70.017-11.652
		l-139.773-24.107l182.01,50.632c0,0,12.509,38.356,53.807,60.982l-143.341,13.513c42.325,7.38,94.063,11.234,157.411,9.954
		l-0.027-0.04l72.116-8.638C1362.389,1751.168,1328.361,1715.342,1308.846,1684.752"/>
	<path style="fill-rule:evenodd;clip-rule:evenodd;fill:#003780;" d="M1397.502,1844.257c-63.942,3.493-119.136,1.513-166.78-4.503
		l-33.264,5.642c0,0,174.984,56.954,272.852,76.01c10.374-7.795,20.872-14.571,31.548-20.459c-10.987-3-21.286-6.577-30.906-10.555
		C1439.26,1877.291,1414.916,1859.832,1397.502,1844.257"/>
	<path style="fill-rule:evenodd;clip-rule:evenodd;fill:#D75C2A;" d="M1515.989,1619.057
		c-91.043-7.93-182.468-137.05-182.468-137.05c0.795,11.889,2.83,22.99,5.953,33.379c25.43,84.639,122.879,122.143,208.011,154.895
		l8.424,3.243C1543.583,1656.054,1530.288,1637.856,1515.989,1619.057"/>
	<path style="fill-rule:evenodd;clip-rule:evenodd;fill:#B91C58;" d="M1596.257,1735.796
		c-19.864-1.483-203.524-17.462-269.347-105.435c21.941,45.305,73.198,118.376,269.204,105.683L1596.257,1735.796z"/>
	<path style="fill-rule:evenodd;clip-rule:evenodd;fill:#4E046D;" d="M1650.97,1824.316c-40.919,3.467-82.171,3.306-117.024,1.852
		c-52.815-2.203-90.939-7.373-90.939-7.373c12.824,12.448,36.725,23.224,67.991,30.333c41.673,9.475,96.428,12.442,155.486,4.181
		C1662.124,1844.876,1656.965,1835.171,1650.97,1824.316"/>
	<path style="fill-rule:evenodd;clip-rule:evenodd;fill:#003780;" d="M1625.742,1906.822c-6.658,1.004-13.18,1.797-19.571,2.394
		c0,0-45.01,61.771-136.863,66.461c114.076,8.088,171.88-39.041,197.737-71.35
		C1652.732,1904.754,1638.986,1905.519,1625.742,1906.822"/>
	<path style="fill-rule:evenodd;clip-rule:evenodd;fill:#003780;" d="M1536.275,2482.017
		c51.736,40.902,90.162,83.559,118.686,124.744l58.285,31.954c-3.038-11.198-7.653-24.01-14.561-37.814
		C1635.359,2548.799,1536.275,2482.017,1536.275,2482.017"/>
	<path style="fill-rule:evenodd;clip-rule:evenodd;fill:#4E046D;" d="M1579.398,2587.448
		c-32.751-34.385-74.487-69.284-127.565-102.862c72.828,77.345,127.958,156.006,169.623,231.931
		C1617.078,2701.771,1597.152,2635.366,1579.398,2587.448"/>
	<path style="fill-rule:evenodd;clip-rule:evenodd;fill:#B91C58;" d="M1622.505,3067.153
		c13.412-73.461-32.934-244.516-63.147-344.063c-34.49-55.37-76.701-112.413-128.263-169.644
		C1545.004,2779.286,1598.791,2947.277,1622.505,3067.153"/>
	<path style="fill-rule:evenodd;clip-rule:evenodd;fill:#D75C2A;" d="M1564.547,3011.554
		c-33.759-106.944-97.862-250.451-216.987-444.62c10.148,35.412,36.716,125.644,75.449,239.19
		C1493.151,2900.155,1564.547,3011.554,1564.547,3011.554"/>
	<path style="fill:#231916;" d="M3250,2381.79v-261.551h-48.877v261.551H3250z M3073.518,2166.132
		c30.969,0,44.773,20.956,44.773,41.975c0,21.019-13.431,41.974-44.773,41.974h-74.995v-83.949H3073.518z M3180.602,2378.432
		l-79.1-89.174c49.624-10.073,66.041-46.266,66.041-82.271c0-45.333-32.461-86.375-94.024-86.748c-41.415,0.373-82.831,0-124.246,0
		v261.551h49.251v-87.308h47.385l76.115,87.308h58.579V2378.432z M2816.445,2120.239c-41.416,0-82.832,0-123.873,0v261.551
		c41.415,0,82.457,0,123.873,0c54.101,0,97.754-18.656,97.754-76.861c0-16.417-11.194-48.878-41.788-58.206
		c24.252-10.82,33.952-30.283,33.952-50.555C2906.364,2143.373,2867.935,2120.239,2816.445,2120.239z M2741.076,2165.012h75.369
		c31.342,0,41.042,20.273,41.042,32.274c0,15.049-10.074,28.17-41.042,28.17h-75.369V2165.012z M2741.076,2268.737h75.369
		c20.148,0,48.877,12.313,48.877,35.819c0,24.626-28.729,31.341-48.877,31.341h-75.369V2268.737z M2647.799,2381.79v-261.551
		h-48.877v261.551H2647.799z M2380.278,2120.239v261.551h183.571v-45.52h-134.321v-216.031H2380.278z M2210.139,2160.163
		c61.563,0,86.188,49.25,85.443,93.277c-0.746,42.908-23.879,89.173-85.443,89.173s-84.697-45.893-85.815-88.801
		C2123.204,2209.785,2148.576,2160.163,2210.139,2160.163z M2210.139,2115.388c-90.293,0-134.32,69.027-134.32,137.679
		c0,68.653,42.535,134.693,134.32,134.693s133.201-67.533,133.947-135.067C2344.833,2184.415,2300.059,2115.388,2210.139,2115.388z
		 M2026.196,2315.003c-17.163,17.163-42.907,26.491-65.668,26.491c-64.547,0-89.546-45.146-89.919-88.427
		c-0.373-43.654,26.864-90.666,89.919-90.666c22.761,0,45.893,7.835,63.056,24.625l32.834-31.714
		c-26.863-26.49-60.444-39.923-95.89-39.923c-94.396,0-138.796,69.399-138.423,137.679c0.372,67.906,41.415,134.693,138.423,134.693
		c37.685,0,72.383-12.312,99.248-38.804L2026.196,2315.003z"/>
	<path style="fill:#231916;" d="M3071.504,2482.002h13.535c14.287,0,20.302,10.26,20.585,20.537
		c0.282,10.747-5.64,21.666-20.585,21.666h-13.535V2482.002z M3085.04,2470.253c-8.083,0-17.765,0-25.848,0v65.89
		c8.083,0,17.765,0,25.848,0c23.029,0,33.179-16.825,32.897-33.509C3117.656,2486.326,3107.598,2470.253,3085.04,2470.253z
		 M2974.365,2481.814c7.801,0,11.278,5.279,11.278,10.575c0,5.294-3.384,10.573-11.278,10.573h-18.893v-21.148H2974.365z
		 M3001.341,2535.296l-19.927-22.464c12.501-2.538,16.637-11.656,16.637-20.726c0-11.421-8.177-21.76-23.685-21.854
		c-10.435,0.093-20.867,0-31.301,0v65.89h12.408v-21.995h11.936l19.175,21.995h14.757V2535.296z M2877.692,2536.143v-65.89h-12.313
		v65.89H2877.692z M2778.296,2470.253c-10.434,0-20.867,0-31.205,0v65.89c10.432,0,20.771,0,31.205,0
		c13.629,0,24.626-4.699,24.626-19.364c0-4.135-2.82-12.313-10.527-14.663c6.109-2.725,8.554-7.629,8.554-12.736
		C2800.949,2476.08,2791.267,2470.253,2778.296,2470.253z M2759.309,2481.532h18.987c7.895,0,10.339,5.107,10.339,8.131
		c0,3.792-2.538,7.097-10.339,7.097h-18.987V2481.532z M2759.309,2507.663h18.987c5.075,0,12.313,3.101,12.313,9.023
		c0,6.204-7.239,7.896-12.313,7.896h-18.987V2507.663z M2665.269,2523.923h-36.939v-14.85h35.625v-11.562h-35.625v-15.227h36.939
		v-12.031h-49.252c0,21.964,0,43.99,0,65.89h49.252V2523.923z M2538.52,2536.143h12.407v-65.701h-14.193l-20.584,28.245
		l-20.585-28.245h-14.287v65.701h12.408v-47.764l20.96,28.62h2.443l21.43-28.527V2536.143z M2384.702,2480.31
		c15.508,0,21.712,12.407,21.524,23.498c-0.188,10.81-6.016,22.465-21.524,22.465c-15.509,0-21.336-11.562-21.618-22.372
		C2362.802,2492.812,2369.194,2480.31,2384.702,2480.31z M2384.702,2469.031c-22.746,0-33.837,17.388-33.837,34.684
		c0,17.294,10.715,33.931,33.837,33.931c23.122,0,33.555-17.012,33.743-34.025
		C2418.633,2486.419,2407.354,2469.031,2384.702,2469.031z M2288.501,2481.156c-4.981-10.151-15.602-13.064-25.848-13.064
		c-12.125,0.094-25.472,5.639-25.472,19.174c0,14.758,12.407,18.328,25.847,19.927c8.742,0.94,15.227,3.478,15.227,9.682
		c0,7.143-7.331,9.869-15.132,9.869c-7.99,0-15.604-3.196-18.517-10.433l-10.339,5.357c4.887,12.031,15.227,16.168,28.668,16.168
		c14.662,0,27.633-6.298,27.633-20.96c0-15.697-12.782-19.268-26.505-20.96c-7.897-0.941-14.663-2.538-14.663-8.271
		c0-4.888,4.418-8.742,13.629-8.742c7.143,0,13.347,3.572,15.603,7.332L2288.501,2481.156z M2172.842,2523.923h-36.939v-14.85
		h35.625v-11.562h-35.625v-15.227h36.939v-12.031h-49.252c0,21.964,0,43.99,0,65.89h49.252V2523.923z M2062.542,2470.253h-13.911
		l-15.038,47.529l-16.45-47.529h-8.083l-15.979,47.529l-15.509-47.529h-13.91l24.156,65.89h10.528l7.99-20.523l6.86-20.991
		l6.957,20.804l8.177,20.71h10.527L2062.542,2470.253z M1894.249,2512.174h-24.44l12.22-28.073L1894.249,2512.174z
		 M1904.775,2536.143h13.536l-29.514-65.89h-13.536l-29.514,65.89h13.441l5.64-12.407h34.401L1904.775,2536.143z"/>
	<path style="fill-rule:evenodd;clip-rule:evenodd;fill:#FCE2A6;" d="M831.046,998.296l437.308,354.806l39.017,31.656l-29.02-29.754
		L821.667,886.779C821.847,915.619,823.603,954.118,831.046,998.296"/>
	<path style="fill-rule:evenodd;clip-rule:evenodd;fill:#FF8BC7;" d="M973.282,1400.04l-77.249-28.627
		c18.305,61.391,42.82,140.366,205.199,202.118C1037.444,1536.211,973.282,1400.041,973.282,1400.04"/>
	<path style="fill-rule:evenodd;clip-rule:evenodd;fill:#CD9FE3;" d="M1099.056,1648.991l-101.459-17.499
		c10.703,42.641,40.326,115.847,193.934,142.627c-109.799-39.404-143.095-113.05-143.095-113.05l64.763-8.143L1099.056,1648.991z"/>
	<path style="fill-rule:evenodd;clip-rule:evenodd;fill:#51F4E9;" d="M1184.717,1847.556l-46.006,7.801
		c20.791,34.403,85.631,82.466,263.767,72.221c12.531-0.72,25.624-1.73,39.302-3.053c9.241-0.893,18.748-1.93,28.53-3.118
		c-9.318,0.889-18.532,1.415-27.623,1.617c-11.821,0.265-23.432-0.018-34.789-0.761
		C1280.269,1913.913,1184.717,1847.556,1184.717,1847.556"/>
	<path style="fill-rule:evenodd;clip-rule:evenodd;fill:#FF8BC7;" d="M1383.381,1228.725l-47.204-55.979
		c-12.733,55.496-28.368,127.313,70.164,246.196C1359.33,1358.958,1383.381,1228.725,1383.381,1228.725"/>
	<path style="fill-rule:evenodd;clip-rule:evenodd;fill:#FCE2A6;" d="M1449.356,855.722l178.92,430.935L1490.95,765.369
		C1478.457,787.753,1462.95,818.296,1449.356,855.722"/>
	<path style="fill-rule:evenodd;clip-rule:evenodd;fill:#47EADF;" d="M1536.275,2482.017c0,0,101.369,18.441,162.41,118.884
		c-27.774-55.509-92.619-127.087-241.143-174.464c-0.168,0.375-0.336,0.749-0.505,1.124
		C1486.422,2445.147,1512.726,2463.4,1536.275,2482.017"/>
	<path style="fill-rule:evenodd;clip-rule:evenodd;fill:#FCE2A6;" d="M1595.465,3145.931
		c-43.204-46.942-135.643-235.504-135.643-235.504c39.206,107.335,86.542,225.194,139.28,333.359
		C1600.619,3218.577,1600.787,3186.747,1595.465,3145.931"/>
	<path style="fill-rule:evenodd;clip-rule:evenodd;fill:#FF8BC7;" d="M1624.694,2844.406
		c25.084,89.755,39.779,282.704,39.779,282.702l42.825,55.756C1706.953,3113.551,1691.263,2989.892,1624.694,2844.406"/>
	<path style="fill-rule:evenodd;clip-rule:evenodd;fill:#CD9FE3;" d="M1657.793,2757.626l33.658,36.198
		c-9.049-51.286-36.898-127.474-112.053-206.377C1620.715,2638.55,1657.793,2757.626,1657.793,2757.626"/>
	<path style="fill-rule:evenodd;clip-rule:evenodd;fill:#47EADF;" d="M1795.32,2031.316
		c-210.558,272.404-314.815,242.339-365.894,221.688l26.309,22.094C1551.049,2355.5,1698.326,2172.191,1795.32,2031.316"/>
</g>
</svg>
