<svg width="90" height="88" fill="none" xmlns="http://www.w3.org/2000/svg"><path d="M4.226 3.937h81.665V83.89H4.226V3.937z" fill="url(#a)"/><path d="M4.226 3.936h81.665V83.89H4.226V3.937zM.513 87.628h89.073V.199H.513v87.429zM60.58 36.08c-2.928 0-3.927 1.491-3.927 2.73 0 1.348.66 2.283 4.605 4.33 5.82 2.84 7.64 5.57 7.64 9.56 0 5.982-4.534 9.199-10.657 9.199-3.23 0-6.015-.665-7.604-1.6-.268-.107-.303-.305-.303-.592V54.19c0-.378.178-.485.446-.306 2.338 1.528 5.016 2.21 7.461 2.21 2.928 0 4.16-1.24 4.16-2.91 0-1.348-.858-2.534-4.606-4.492-5.266-2.534-7.462-5.103-7.462-9.415 0-4.815 3.75-8.822 10.247-8.822 3.195 0 5.426.485 6.64 1.042.303.18.375.485.375.755v5.12c0 .306-.179.486-.554.378-1.642-1.042-4.052-1.671-6.461-1.671zm-31.917 4.438c.857.072 1.517.072 2.999.072 4.338 0 8.425-1.528 8.425-7.475 0-4.743-2.927-7.133-7.872-7.133-1.481 0-2.891.072-3.57.108l.018 14.428zm-6.622-19.836c0-.27.517-.45.82-.45 2.375-.107 5.91-.179 9.569-.179 10.281 0 14.298 5.678 14.298 12.918 0 9.487-6.837 13.566-15.227 13.566-1.41 0-1.892-.072-2.891-.072v14.338c0 .305-.107.449-.447.449h-5.676c-.303 0-.446-.108-.446-.45v-40.12z" fill="#31C5F0"/><defs><radialGradient id="a" cx="0" cy="0" r="1" gradientUnits="userSpaceOnUse" gradientTransform="matrix(62.0565 0 0 60.4753 31.13 21.874)"><stop stop-color="#34364E" stop-opacity=".98"/><stop offset="1" stop-color="#0C0824"/></radialGradient></defs></svg>