<svg width="41" height="40" fill="none" xmlns="http://www.w3.org/2000/svg"><g clip-path="url(#a)" fill="#070707" stroke="#070707" stroke-width=".5"><path d="M34.943 0H6.583C3.344 0 .709 2.628.709 5.86v28.28c0 3.231 2.636 5.86 5.876 5.86h28.36c3.24 0 5.875-2.629 5.875-5.86V5.86c0-3.232-2.636-5.86-5.876-5.86zm3.526 34.14a3.525 3.525 0 0 1-3.526 3.516H6.583a3.525 3.525 0 0 1-3.525-3.515V5.859a3.525 3.525 0 0 1 3.526-3.515h28.36a3.525 3.525 0 0 1 3.525 3.515v28.282z"/><path d="M19.588 16.484c0-2.585-2.108-4.687-4.7-4.687h-7.05v16.406h7.05c2.592 0 4.7-2.102 4.7-4.687A4.67 4.67 0 0 0 17.992 20a4.67 4.67 0 0 0 1.596-3.516zm-2.35 7.032a2.35 2.35 0 0 1-2.35 2.343h-4.7v-4.687h4.7a2.35 2.35 0 0 1 2.35 2.344zm-7.05-4.688v-4.687h4.7a2.35 2.35 0 0 1 2.35 2.343 2.35 2.35 0 0 1-2.35 2.344h-4.7zM27.814 16.484c-3.24 0-5.875 2.629-5.875 5.86 0 3.23 2.636 5.86 5.875 5.86a5.9 5.9 0 0 0 5.09-2.93l-2.035-1.173a3.53 3.53 0 0 1-6.378-.585h9.199v-1.172c0-3.231-2.636-5.86-5.876-5.86zm-3.324 4.688a3.53 3.53 0 0 1 6.648 0H24.49zM23.114 11.797h9.4v2.344h-9.4v-2.344z"/></g><defs><clipPath id="a"><path fill="#fff" transform="translate(.708)" d="M0 0h40.111v40H0z"/></clipPath></defs></svg>