<svg width="60" height="89" fill="none" xmlns="http://www.w3.org/2000/svg"><g clip-path="url(#a)"><path d="M15.343 88.21c8.039 0 14.559-6.565 14.559-14.66V58.89H15.343C7.305 58.89.785 65.455.785 73.55c0 8.095 6.52 14.66 14.558 14.66z" fill="#0ACF83"/><path d="M.785 44.21c0-8.094 6.52-14.66 14.558-14.66h14.559v29.339H15.343C7.305 58.871.785 52.305.785 44.21z" fill="#A259FF"/><path d="M.785 14.871c0-8.094 6.52-14.66 14.558-14.66h14.559v29.34H15.343C7.305 29.55.785 22.965.785 14.87z" fill="#F24E1E"/><path d="M29.92.21h14.558c8.039 0 14.56 6.567 14.56 14.661 0 8.095-6.521 14.661-14.56 14.661H29.92V.211z" fill="#FF7262"/><path d="M59.037 44.21c0 8.095-6.52 14.661-14.559 14.661-8.038 0-14.558-6.566-14.558-14.66 0-8.095 6.52-14.661 14.558-14.661 8.039 0 14.559 6.566 14.559 14.66z" fill="#1ABCFE"/></g><defs><clipPath id="a"><path fill="#fff" transform="translate(.785 .21)" d="M0 0h58.252v88H0z"/></clipPath></defs></svg>