<?xml version="1.0" standalone="no"?>
<!DOCTYPE svg PUBLIC "-//W3C//DTD SVG 20010904//EN"
 "http://www.w3.org/TR/2001/REC-SVG-20010904/DTD/svg10.dtd">
<svg version="1.0" xmlns="http://www.w3.org/2000/svg"
 width="65.000000pt" height="65.000000pt" viewBox="0 0 65.000000 65.000000"
 preserveAspectRatio="xMidYMid meet">

<g transform="translate(0.000000,65.000000) scale(0.100000,-0.100000)"
fill="#7E5AFF" stroke="none">
<path d="M235 627 c-94 -32 -169 -97 -206 -182 -28 -64 -30 -160 -5 -235 26
-76 110 -160 186 -186 161 -55 327 14 399 166 36 76 36 191 1 265 -31 64 -92
124 -154 153 -60 29 -165 37 -221 19z m173 -93 c84 -35 141 -120 142 -212 0
-95 -52 -173 -142 -212 -184 -79 -377 114 -298 298 25 58 86 117 135 131 48
14 123 12 163 -5z"/>
<path d="M327 473 c-4 -3 -7 -39 -7 -80 l0 -73 -50 0 c-47 0 -50 -2 -50 -25 0
-24 2 -25 75 -25 l75 0 0 105 c0 95 -2 105 -18 105 -10 0 -22 -3 -25 -7z"/>
</g>
</svg>
