<?xml version="1.0" standalone="no"?>
<!DOCTYPE svg PUBLIC "-//W3C//DTD SVG 20010904//EN"
 "http://www.w3.org/TR/2001/REC-SVG-20010904/DTD/svg10.dtd">
<svg version="1.0" xmlns="http://www.w3.org/2000/svg"
 width="65.000000pt" height="55.000000pt" viewBox="0 0 65.000000 55.000000"
 preserveAspectRatio="xMidYMid meet">

<g transform="translate(0.000000,55.000000) scale(0.100000,-0.100000)"
fill="#7E5AFF" stroke="none">
<path d="M122 528 c-5 -7 -34 -69 -63 -138 l-54 -125 0 -125 0 -125 315 0 315
0 3 123 3 123 -51 117 c-79 180 -48 162 -269 162 -139 0 -191 -3 -199 -12z
m396 -171 c23 -56 42 -105 42 -109 0 -5 -29 -8 -65 -8 l-65 0 -20 -40 -20 -40
-69 0 -68 0 -18 40 -18 40 -69 0 c-37 0 -68 2 -68 6 0 5 79 193 87 207 2 4 73
7 156 7 l152 0 43 -103z"/>
</g>
</svg>
