<?xml version="1.0" standalone="no"?>
<!DOCTYPE svg PUBLIC "-//W3C//DTD SVG 20010904//EN"
 "http://www.w3.org/TR/2001/REC-SVG-20010904/DTD/svg10.dtd">
<svg version="1.0" xmlns="http://www.w3.org/2000/svg"
 width="43.000000pt" height="65.000000pt" viewBox="0 0 43.000000 65.000000"
 preserveAspectRatio="xMidYMid meet">

<g transform="translate(0.000000,65.000000) scale(0.100000,-0.100000)"
fill="#7E5AFF" stroke="none">
<path d="M150 635 c-49 -15 -102 -61 -127 -109 -9 -17 -16 -56 -17 -86 0 -49
9 -75 83 -233 47 -97 91 -182 98 -189 10 -8 23 -8 40 -2 22 7 41 40 111 189
72 153 85 187 84 230 -1 64 -13 95 -58 144 -25 29 -51 45 -87 56 -60 18 -68
18 -127 0z m104 -99 c45 -19 66 -52 66 -104 0 -122 -172 -143 -210 -27 -16 47
11 103 60 127 42 22 42 22 84 4z"/>
</g>
</svg>
