<svg width="15" height="14" fill="none" xmlns="http://www.w3.org/2000/svg"><path d="M4.469 4.469A3.492 3.492 0 0 1 7.03 3.406c1 0 1.844.354 2.532 1.063C10.27 5.156 10.624 6 10.624 7c0 1-.354 1.854-1.063 2.563-.687.687-1.53 1.03-2.53 1.03-1 0-1.855-.343-2.563-1.03C3.78 8.854 3.437 8 3.437 7c0-1 .344-1.844 1.032-2.531zm.906 4.187c.458.459 1.01.688 1.656.688.646 0 1.198-.23 1.657-.688.458-.458.687-1.01.687-1.656 0-.646-.23-1.198-.688-1.656a2.258 2.258 0 0 0-1.656-.688c-.646 0-1.198.23-1.656.688A2.258 2.258 0 0 0 4.687 7c0 .646.23 1.198.688 1.656zm5.969-5.969c.166.146.25.334.25.563 0 .23-.084.427-.25.594a.714.714 0 0 1-.563.25.811.811 0 0 1-.594-.25.811.811 0 0 1-.25-.594c0-.23.084-.417.25-.563a.811.811 0 0 1 .594-.25c.23 0 .417.084.563.25zM14 4.125c.02.563.031 1.52.031 2.875 0 1.354-.01 2.313-.031 2.875-.063 1.27-.448 2.26-1.156 2.969-.688.687-1.667 1.052-2.938 1.094-.562.041-1.52.062-2.875.062-1.354 0-2.312-.02-2.875-.063-1.27-.062-2.25-.437-2.937-1.124-.271-.25-.49-.542-.657-.876a5.132 5.132 0 0 1-.375-.968 5.633 5.633 0 0 1-.093-1.094C.052 9.312.03 8.355.03 7c0-1.354.021-2.323.063-2.906.062-1.25.437-2.219 1.125-2.907C1.906.48 2.885.095 4.156.032 4.72.011 5.677 0 7.031 0s2.313.01 2.875.031c1.271.063 2.25.448 2.938 1.157.708.687 1.094 1.666 1.156 2.937zm-1.5 7a3.4 3.4 0 0 0 .156-.625c.042-.27.073-.583.094-.938.02-.374.031-.677.031-.906V5.344c0-.23-.01-.521-.031-.875a8.824 8.824 0 0 0-.094-.938 3.382 3.382 0 0 0-.156-.656 2.255 2.255 0 0 0-1.344-1.344 3.385 3.385 0 0 0-.656-.156 8.841 8.841 0 0 0-.938-.094c-.354-.02-.645-.031-.874-.031H5.374c-.23 0-.531.01-.906.031-.354.021-.667.052-.938.094-.25.042-.458.094-.625.156a2.255 2.255 0 0 0-1.344 1.344 3.387 3.387 0 0 0-.156.656c-.041.25-.073.563-.093.938-.021.354-.032.646-.032.875v3.75c.021.312.042.583.063.812a8.282 8.282 0 0 0 .218 1.219c.271.646.72 1.094 1.344 1.344.167.062.375.114.625.156.271.042.584.073.938.094.375.02.666.031.875.031h3.343c.23 0 .521-.01.876-.031a8.85 8.85 0 0 0 .937-.094c.27-.042.49-.094.656-.156.646-.271 1.094-.719 1.344-1.344z" fill="#fff"/></svg>