<?xml version="1.0" standalone="no"?>
<!DOCTYPE svg PUBLIC "-//W3C//DTD SVG 20010904//EN"
 "http://www.w3.org/TR/2001/REC-SVG-20010904/DTD/svg10.dtd">
<svg version="1.0" xmlns="http://www.w3.org/2000/svg"
 width="59.000000pt" height="60.000000pt" viewBox="0 0 59.000000 60.000000"
 preserveAspectRatio="xMidYMid meet">

<g transform="translate(0.000000,60.000000) scale(0.100000,-0.100000)"
fill="#7E5AFF" stroke="none">
<path d="M51 562 c-16 -16 -35 -47 -42 -70 -11 -36 -9 -49 11 -109 30 -93 68
-149 154 -231 78 -74 154 -116 241 -135 49 -10 57 -9 102 14 38 20 51 33 61
63 6 21 10 41 7 46 -3 5 -35 25 -72 45 l-66 36 -41 -40 c-41 -40 -42 -40 -71
-25 -80 41 -177 143 -192 202 -5 20 1 31 33 57 l39 33 -37 69 c-32 59 -41 68
-68 71 -23 3 -37 -4 -59 -26z"/>
</g>
</svg>
