<svg width="40" height="40" fill="none" xmlns="http://www.w3.org/2000/svg"><path d="M26.344 16.75c.02.083.031.219.031.406a9.325 9.325 0 0 1-.625 3.313 10.489 10.489 0 0 1-1.781 3c-.75.896-1.73 1.625-2.938 2.187-1.208.563-2.541.844-4 .844-1.833 0-3.51-.49-5.031-1.469.23.021.49.032.781.032 1.521 0 2.886-.47 4.094-1.407-.73 0-1.375-.208-1.938-.625a3.388 3.388 0 0 1-1.124-1.625c.208.021.406.032.593.032.292 0 .584-.032.875-.094a3.19 3.19 0 0 1-1.344-.625A3.478 3.478 0 0 1 13 19.594a3.24 3.24 0 0 1-.344-1.469v-.063c.459.271.948.417 1.469.438-.98-.667-1.469-1.583-1.469-2.75 0-.583.156-1.135.469-1.656a9.097 9.097 0 0 0 6.75 3.437c-.042-.25-.063-.5-.063-.75 0-.896.313-1.666.938-2.312.646-.646 1.417-.969 2.313-.969.958 0 1.76.344 2.406 1.031a6.674 6.674 0 0 0 2.093-.781c-.25.77-.729 1.375-1.437 1.813A7.045 7.045 0 0 0 28 15.03a7.213 7.213 0 0 1-1.656 1.719z" fill="#fff"/><circle opacity=".4" cx="20" cy="20" r="19.5" stroke="#fff"/></svg>