<svg width="90" height="89" viewBox="0 0 90 89" fill="none" xmlns="http://www.w3.org/2000/svg">
<g id="Group">
<path id="Vector" d="M3.98071 4.45215H85.7412V84.555H3.98071V4.45215Z" fill="url(#paint0_radial_167_586)"/>
<g id="Group_2">
<path id="Vector_2" d="M3.98071 4.45255H85.7412V84.5554H3.98071V4.45255ZM0.265137 88.297H89.4747V0.710938H0.265137V88.297ZM63.3763 42.93C65.2698 42.93 65.9487 42.93 66.1273 42.858C66.1273 42.5882 66.1987 42.4083 66.1987 42.2284C66.1987 40.2137 65.2341 36.4721 61.3756 36.4721C57.803 36.4721 56.2846 39.6201 55.9095 42.948H63.3763V42.93ZM55.838 48.0567C55.9095 53.1115 58.2853 56.5113 63.948 56.5113C66.1451 56.5113 68.0387 56.2055 70.0036 55.36C70.2716 55.2521 70.4502 55.2881 70.4502 55.6299V60.3069C70.4502 60.6846 70.343 60.8645 70.0751 61.0624C68.1101 62.0338 65.645 62.4835 62.6082 62.4835C52.8012 62.4835 49.1214 55.1801 49.1214 47.0673C49.1214 38.235 53.6587 31.0036 61.6436 31.0036C69.7535 31.0036 72.5759 37.8572 72.5759 43.4336C72.5759 45.2325 72.4688 46.6896 72.2723 47.4091C72.2008 47.7149 72.0936 47.8228 71.79 47.8948C71.0397 48.0027 68.8604 48.1646 65.5914 48.1646H55.8559V48.0567H55.838ZM35.9025 44.2431C34.8664 40.0878 32.3298 31.0396 31.4009 26.6504H31.3295C30.5435 31.0216 28.5071 38.4328 26.9887 44.2431H35.9025ZM25.4703 50.3053L22.5407 61.4941C22.4693 61.7999 22.3621 61.9079 21.987 61.9079H16.5029C16.1278 61.9079 16.0563 61.7999 16.1278 61.3502L26.685 24.1859C26.8637 23.5204 26.9887 22.9807 27.0602 21.1099C27.0602 20.8401 27.1673 20.7322 27.3638 20.7322H35.1701C35.4381 20.7322 35.5452 20.8041 35.6167 21.1099L47.4244 61.4222C47.4958 61.728 47.4244 61.9079 47.1207 61.9079H40.9936C40.6899 61.9079 40.5112 61.7999 40.4398 61.5301L37.3852 50.3053H25.4703Z" fill="#D8A1FF"/>
</g>
</g>
<defs>
<radialGradient id="paint0_radial_167_586" cx="0" cy="0" r="1" gradientUnits="userSpaceOnUse" gradientTransform="translate(30.9332 22.4111) scale(62.1407 60.585)">
<stop stop-color="#442F55" stop-opacity="0.98"/>
<stop offset="1" stop-color="#12002C"/>
</radialGradient>
</defs>
</svg>
