<svg width="90" height="89" viewBox="0 0 90 89" fill="none" xmlns="http://www.w3.org/2000/svg">
<g id="Group">
<g id="Group 2">
<path id="Vector" d="M4.16309 4.45215H85.9235V84.555H4.16309V4.45215Z" fill="url(#paint0_radial_167_573)"/>
<g id="Group_2">
<path id="Vector_2" d="M4.16333 4.45255H85.9238V84.5554H4.16333V4.45255ZM0.447754 88.297H89.6572V0.710938H0.447754V88.297ZM58.8787 31.939C58.8787 31.6332 58.9859 31.4893 59.3253 31.4893H65.1666C65.4703 31.4893 65.6132 31.5972 65.6132 31.939V61.4761C65.6132 61.7819 65.5417 61.9258 65.1666 61.9258H59.3967C59.0216 61.9258 58.9144 61.746 58.9144 61.4401V31.939H58.8787V31.939ZM58.4678 23.4304C58.4678 21.038 60.147 19.6169 62.2549 19.6169C64.5235 19.6169 66.0419 21.1459 66.0419 23.4304C66.0419 25.8949 64.4521 27.244 62.1834 27.244C60.0398 27.262 58.4678 25.9128 58.4678 23.4304ZM41.7478 44.2431C40.7117 40.0878 38.2466 31.0396 37.3177 26.6504H37.2462C36.4602 31.0216 34.4953 38.4328 32.9412 44.2431H41.7478ZM31.4228 50.3053L28.4932 61.5301C28.4217 61.8359 28.3145 61.9079 27.9394 61.9079H22.4732C22.0981 61.9079 22.0267 61.7999 22.0981 61.3502L32.6553 24.15C32.834 23.4844 32.959 22.8728 33.0305 21.038C33.0305 20.7681 33.1376 20.6602 33.3341 20.6602H41.1404C41.4084 20.6602 41.5156 20.7321 41.587 21.038L53.4125 61.4222C53.484 61.728 53.4125 61.9079 53.1088 61.9079H46.946C46.6423 61.9079 46.4637 61.8359 46.3922 61.5661L43.3376 50.3053H31.4228Z" fill="#FF7F18"/>
</g>
</g>
</g>
<defs>
<radialGradient id="paint0_radial_167_573" cx="0" cy="0" r="1" gradientUnits="userSpaceOnUse" gradientTransform="translate(31.1177 22.427) scale(62.1406 60.585)">
<stop stop-color="#423325" stop-opacity="0.98"/>
<stop offset="1" stop-color="#1C0A00"/>
</radialGradient>
</defs>
</svg>
