<svg width="41" height="41" viewBox="0 0 41 41" fill="none" xmlns="http://www.w3.org/2000/svg">
<g id="behance" clip-path="url(#clip0_167_538)">
<path id="Vector" d="M35.0352 0.773438H6.67544C3.43558 0.773438 0.799805 3.40192 0.799805 6.63281V34.9141C0.799805 38.145 3.43558 40.7734 6.67544 40.7734H35.0352C38.2751 40.7734 40.9108 38.145 40.9108 34.9141V6.63281C40.9108 3.40192 38.2751 0.773438 35.0352 0.773438ZM38.5606 34.9141C38.5606 36.8525 36.9791 38.4297 35.0352 38.4297H6.67544C4.73159 38.4297 3.15006 36.8525 3.15006 34.9141V6.63281C3.15006 4.69434 4.73159 3.11719 6.67544 3.11719H35.0352C36.9791 3.11719 38.5606 4.69434 38.5606 6.63281V34.9141Z" fill="#070707" stroke="#070707" stroke-width="0.5"/>
<path id="Vector_2" d="M19.6802 17.2578C19.6802 14.673 17.5717 12.5703 14.9797 12.5703H7.92896V28.9766H14.9797C17.5717 28.9766 19.6802 26.8739 19.6802 24.2891C19.6802 22.8901 19.0618 21.6331 18.0837 20.7734C19.0618 19.9138 19.6802 18.6567 19.6802 17.2578ZM17.33 24.2891C17.33 25.5815 16.2757 26.6328 14.9797 26.6328H10.2792V21.9453H14.9797C16.2757 21.9453 17.33 22.9966 17.33 24.2891ZM10.2792 19.6016V14.9141H14.9797C16.2757 14.9141 17.33 15.9654 17.33 17.2578C17.33 18.5502 16.2757 19.6016 14.9797 19.6016H10.2792Z" fill="#070707" stroke="#070707" stroke-width="0.5"/>
<path id="Vector_3" d="M27.9062 17.2578C24.6663 17.2578 22.0305 19.8863 22.0305 23.1172C22.0305 26.3481 24.6663 28.9766 27.9062 28.9766C29.9972 28.9766 31.9472 27.8544 32.995 26.0478L30.9606 24.8741C30.3314 25.959 29.1609 26.6328 27.9062 26.6328C26.3739 26.6328 25.0672 25.6532 24.5821 24.2891H33.7818V23.1172C33.7818 19.8863 31.146 17.2578 27.9062 17.2578ZM24.5821 21.9453C25.0672 20.5812 26.3739 19.6016 27.9062 19.6016C29.4384 19.6016 30.7451 20.5812 31.2302 21.9453H24.5821Z" fill="#070707" stroke="#070707" stroke-width="0.5"/>
<path id="Vector_4" d="M23.2056 12.5703H32.6066V14.9141H23.2056V12.5703Z" fill="#070707" stroke="#070707" stroke-width="0.5"/>
</g>
<defs>
<clipPath id="clip0_167_538">
<rect width="40.111" height="40" fill="white" transform="translate(0.799805 0.773438)"/>
</clipPath>
</defs>
</svg>
