<svg width="22" height="21" viewBox="0 0 22 21" fill="none" xmlns="http://www.w3.org/2000/svg">
<path id="Star" d="M9.87703 1.35958C10.1769 0.439303 11.4788 0.439304 11.7786 1.35958L13.5297 6.73398C13.6639 7.14561 14.0476 7.42418 14.4805 7.42418H20.1413C21.1107 7.42418 21.513 8.66521 20.728 9.23398L16.1531 12.5486C15.8017 12.8033 15.6546 13.2555 15.7891 13.6682L17.5376 19.0349C17.8376 19.9557 16.7844 20.7227 16.0001 20.1544L11.4146 16.8321C11.0645 16.5784 10.5912 16.5784 10.2411 16.8321L5.65557 20.1544C4.87131 20.7227 3.81802 19.9557 4.11804 19.0348L5.86662 13.6682C6.00107 13.2555 5.85399 12.8033 5.50253 12.5486L0.927657 9.23398C0.142651 8.66521 0.544981 7.42418 1.51438 7.42418H7.17513C7.60806 7.42418 7.99182 7.1456 8.12594 6.73398L9.87703 1.35958Z" fill="#070707"/>
</svg>
