<svg width="59" height="89" viewBox="0 0 59 89" fill="none" xmlns="http://www.w3.org/2000/svg">
<g id="Frame" clip-path="url(#clip0_167_598)">
<g id="Group">
<path id="path0 fill 1" d="M14.7119 88.7109C22.7504 88.7109 29.2705 82.1451 29.2705 74.0503V59.3896H14.7119C6.67344 59.3896 0.15332 65.9554 0.15332 74.0503C0.15332 82.1451 6.67344 88.7109 14.7119 88.7109Z" fill="#0ACF83"/>
<path id="path1 fill 3" d="M0.15332 44.7104C0.15332 36.6156 6.67344 30.0498 14.7119 30.0498H29.2705V59.389H14.7119C6.67344 59.371 0.15332 52.8052 0.15332 44.7104Z" fill="#A259FF"/>
<path id="path1 fill 2" d="M0.15332 15.3715C0.15332 7.27673 6.67344 0.710938 14.7119 0.710938H29.2705V30.0501H14.7119C6.67344 30.0501 0.15332 23.4664 0.15332 15.3715Z" fill="#F24E1E"/>
<path id="path2 fill 1" d="M29.2886 0.710938H43.8472C51.8857 0.710938 58.4058 7.27673 58.4058 15.3715C58.4058 23.4664 51.8857 30.0322 43.8472 30.0322H29.2886V0.710938V0.710938Z" fill="#FF7262"/>
<path id="path3 fill 1" d="M58.4056 44.7104C58.4056 52.8052 51.8854 59.371 43.8469 59.371C35.8084 59.371 29.2883 52.8052 29.2883 44.7104C29.2883 36.6156 35.8084 30.0498 43.8469 30.0498C51.8854 30.0498 58.4056 36.6156 58.4056 44.7104Z" fill="#1ABCFE"/>
</g>
</g>
<defs>
<clipPath id="clip0_167_598">
<rect width="58.2523" height="87.9996" fill="white" transform="translate(0.15332 0.710938)"/>
</clipPath>
</defs>
</svg>
