<svg width="40" height="41" viewBox="0 0 40 41" fill="none" xmlns="http://www.w3.org/2000/svg">
<g id="surface1 7">
<rect width="39.1083" height="39.998" transform="translate(0.799805 0.773438)" fill="white"/>
<path id="Vector" d="M31.0957 7.89213L31.4015 7.50789L31.0228 7.19524C28.1074 4.7881 24.4048 3.35021 20.3539 3.35021C18.9347 3.35021 17.5588 3.54903 16.256 3.87474L15.5289 4.05653L15.976 4.65808C17.3666 6.52895 19.3643 9.35451 21.7567 13.7798L21.9633 14.162L22.3706 14.0108C26.8979 12.3297 29.6108 9.75827 31.0957 7.89213ZM13.7954 5.13435L13.5504 4.81157L13.1839 4.98446C8.68773 7.10528 5.28136 11.1561 3.93671 16.1031L3.77063 16.7141L4.40347 16.734C6.87937 16.8119 12.7976 16.6952 19.3552 14.9384L19.9737 14.7727L19.663 14.2129C17.1196 9.62917 14.9806 6.69563 13.7954 5.13435ZM33.2492 9.39333L32.8615 8.9327L32.4799 9.39843C30.8239 11.4196 27.9487 14.045 23.3963 15.8263L22.89 16.0244L23.1297 16.5124C24.1112 18.5105 25.0634 20.6398 25.931 22.9393L26.0739 23.3182L26.4743 23.257C29.7675 22.7542 32.8117 22.7541 35.1111 22.9342C35.6702 22.9806 36.031 23.0327 36.4509 23.0934C36.5393 23.1061 36.6304 23.1193 36.7265 23.1329L37.2385 23.2051L37.2935 22.6909C37.3609 22.0603 37.3997 21.4271 37.3997 20.7725C37.3997 16.4189 35.8224 12.4504 33.2492 9.39333ZM21.1022 17.0206L20.9171 16.6495L20.5181 16.7628C12.8049 18.9541 6.01016 18.8872 3.89411 18.8018L3.41227 18.7823L3.3754 19.2632L3.37282 19.2968C3.33626 19.7733 3.29873 20.2624 3.29873 20.7821C3.29873 26.0158 5.5631 30.6878 9.13404 33.8848L9.50684 34.2185L9.84031 33.8455C10.7354 32.8441 11.936 31.5688 13.3957 30.2376L13.3976 30.2358C16.1439 27.7041 19.6773 25.0253 23.5263 23.8565L24.0432 23.6996L23.8469 23.1963C22.9853 20.9886 22.0577 18.9364 21.1022 17.0206ZM30.5918 24.9168L30.5918 24.9168L30.5864 24.9171C29.5752 24.9658 28.4989 25.0633 27.4044 25.2093L26.8096 25.2887L26.995 25.8594C27.9187 28.7032 28.6828 31.7158 29.1764 34.8496L29.3007 35.6385L29.9561 35.1821C33.1421 32.9635 35.5522 29.6665 36.6749 25.7961L36.8401 25.2265L36.2508 25.16C34.7907 24.9952 32.9394 24.829 30.5918 24.9168ZM24.9357 26.1021L24.7821 25.6487L24.3225 25.7825C20.9412 26.7663 17.4044 29.3174 14.724 31.7777C13.4287 32.9564 12.3826 34.0752 11.5431 34.9917L11.1304 35.4423L11.6537 35.7577C14.1992 37.292 17.1552 38.1947 20.3445 38.1947C22.7382 38.1947 24.9959 37.689 27.0578 36.798L27.4058 36.6476L27.3549 36.2719C26.8706 32.698 26.0164 29.2919 24.9357 26.1021ZM1.2998 20.7725C1.2998 10.0192 9.86705 1.27344 20.3539 1.27344C30.8408 1.27344 39.4081 10.0192 39.4081 20.7725C39.4081 31.5257 30.8408 40.2715 20.3539 40.2715C9.86705 40.2715 1.2998 31.5257 1.2998 20.7725Z" fill="#070707" stroke="#070707"/>
</g>
</svg>
