<svg width="40" height="41" viewBox="0 0 40 41" fill="none" xmlns="http://www.w3.org/2000/svg">
<g id="surface1 6">
<path id="Vector" d="M12.1562 1.28305H12.6562V1.27344H28.561C34.5256 1.27344 39.4081 6.25813 39.4081 12.3855V29.1595C39.4081 35.2871 34.5253 40.2715 28.5704 40.2715H12.1562C6.19034 40.2715 1.2998 35.295 1.2998 29.1787V12.3951C1.2998 6.26828 6.19114 1.28305 12.1562 1.28305ZM3.30813 12.4037V12.4047V29.1883C3.30813 34.1744 7.23569 38.2051 12.1562 38.2051H28.5704C33.4736 38.2051 37.3997 34.1729 37.3997 29.1691V12.3951C37.3997 7.39084 33.4733 3.35909 28.561 3.35909H12.1562C7.24348 3.35909 3.31806 7.39116 3.30813 12.4037ZM31.3925 8.47314C31.3925 7.88321 31.8465 7.43512 32.3966 7.43512C32.9468 7.43512 33.4008 7.88321 33.4008 8.47314C33.4008 9.06306 32.9468 9.51115 32.3966 9.51115C31.8465 9.51115 31.3925 9.06306 31.3925 8.47314ZM10.3342 20.7773C10.3342 15.1215 14.8589 10.5112 20.3633 10.5112C25.8678 10.5112 30.3925 15.1215 30.3925 20.7773C30.3925 26.433 25.8678 31.0434 20.3633 31.0434C14.8589 31.0434 10.3342 26.433 10.3342 20.7773ZM28.3842 20.7773C28.3842 16.2437 24.824 12.5872 20.3633 12.5872C15.9027 12.5872 12.3425 16.2437 12.3425 20.7773C12.3425 25.3109 15.9027 28.9674 20.3633 28.9674C24.824 28.9674 28.3842 25.3109 28.3842 20.7773Z" fill="#070707" stroke="#070707"/>
</g>
</svg>
