<svg width="22" height="21" viewBox="0 0 22 21" fill="none" xmlns="http://www.w3.org/2000/svg">
<path id="Star" d="M9.9742 1.35958C10.274 0.439303 11.576 0.439304 11.8758 1.35958L13.6269 6.73398C13.761 7.14561 14.1448 7.42418 14.5777 7.42418H20.2385C21.2079 7.42418 21.6102 8.66521 20.8252 9.23398L16.2503 12.5486C15.8988 12.8033 15.7518 13.2555 15.8862 13.6682L17.6348 19.0349C17.9348 19.9557 16.8815 20.7227 16.0973 20.1544L11.5117 16.8321C11.1617 16.5784 10.6883 16.5784 10.3383 16.8321L5.75274 20.1544C4.96848 20.7227 3.91519 19.9557 4.21521 19.0348L5.96378 13.6682C6.09824 13.2555 5.95116 12.8033 5.5997 12.5486L1.02483 9.23398C0.239818 8.66521 0.642149 7.42418 1.61154 7.42418H7.2723C7.70523 7.42418 8.08899 7.1456 8.2231 6.73398L9.9742 1.35958Z" fill="#E5E5E5"/>
</svg>
