<svg width="90" height="89" viewBox="0 0 90 89" fill="none" xmlns="http://www.w3.org/2000/svg">
<g id="Group">
<path id="Vector" d="M4.18701 4.43652H85.8524V84.3906H4.18701V4.43652Z" fill="url(#paint0_radial_2532_8)"/>
<path id="Vector_2" d="M4.18699 4.4364H85.8523V84.3905H4.18699V4.4364ZM0.474121 88.1277H89.5474V0.699219H0.474121V88.1277ZM60.5405 36.5797C57.6131 36.5797 56.6135 38.071 56.6135 39.3108C56.6135 40.6583 57.2739 41.5926 61.2189 43.6409C67.0381 46.4797 68.8588 49.2107 68.8588 53.1994C68.8588 59.1825 64.3248 62.3986 58.2022 62.3986C54.9712 62.3986 52.1866 61.7338 50.5979 60.7996C50.3301 60.6918 50.2944 60.4941 50.2944 60.2066V54.6907C50.2944 54.3134 50.473 54.2056 50.7407 54.3853C53.0791 55.9125 55.7567 56.5952 58.2022 56.5952C61.1296 56.5952 62.3613 55.3555 62.3613 53.6845C62.3613 52.337 61.5045 51.1512 57.7559 49.1927C52.49 46.6594 50.2944 44.09 50.2944 39.7779C50.2944 34.9627 54.043 30.956 60.5405 30.956C63.7358 30.956 65.9671 31.4411 67.1809 31.9981C67.4843 32.1778 67.5557 32.4832 67.5557 32.7527V37.8734C67.5557 38.1788 67.3772 38.3585 67.0024 38.2507C65.3601 37.2086 62.9503 36.5797 60.5405 36.5797ZM28.6241 41.0176C29.4809 41.0895 30.1414 41.0895 31.623 41.0895C35.9606 41.0895 40.0483 39.5623 40.0483 33.6152C40.0483 28.8718 37.1209 26.4822 32.1763 26.4822C30.6948 26.4822 29.2846 26.554 28.6063 26.59L28.6241 41.0176ZM22.0016 21.1818C22.0016 20.9123 22.5193 20.7327 22.8228 20.7327C25.1969 20.6249 28.7312 20.553 32.3905 20.553C42.6723 20.553 46.6887 26.2306 46.6887 33.4714C46.6887 42.9581 39.852 47.0367 31.4623 47.0367C30.0522 47.0367 29.5702 46.9648 28.5706 46.9648V61.3026C28.5706 61.6081 28.4635 61.7518 28.1243 61.7518H22.4479C22.1444 61.7518 22.0016 61.644 22.0016 61.3026V21.1818Z" fill="#31C5F0"/>
</g>
<defs>
<radialGradient id="paint0_radial_2532_8" cx="0" cy="0" r="1" gradientUnits="userSpaceOnUse" gradientTransform="translate(31.0914 22.3743) scale(62.0565 60.4753)">
<stop stop-color="#34364E" stop-opacity="0.98"/>
<stop offset="1" stop-color="#0C0824"/>
</radialGradient>
</defs>
</svg>
