<svg width="22" height="20" viewBox="0 0 22 20" fill="none" xmlns="http://www.w3.org/2000/svg">
<path d="M10.2796 0.85958C10.5795 -0.0606967 11.8814 -0.0606959 12.1812 0.859581L13.9323 6.23398C14.0664 6.64561 14.4502 6.92418 14.8831 6.92418H20.5439C21.5133 6.92418 21.9156 8.16521 21.1306 8.73398L16.5557 12.0486C16.2043 12.3033 16.0572 12.7555 16.1916 13.1682L17.9402 18.5349C18.2402 19.4557 17.1869 20.2227 16.4027 19.6544L11.8171 16.3321C11.4671 16.0784 10.9937 16.0784 10.6437 16.3321L6.05816 19.6544C5.2739 20.2227 4.22061 19.4557 4.52063 18.5348L6.2692 13.1682C6.40366 12.7555 6.25658 12.3033 5.90512 12.0486L1.33025 8.73398C0.545238 8.16521 0.947569 6.92418 1.91696 6.92418H7.57772C8.01065 6.92418 8.39441 6.6456 8.52852 6.23398L10.2796 0.85958Z" fill="#070707"/>
</svg>
