<svg width="90" height="88" fill="none" xmlns="http://www.w3.org/2000/svg"><path d="M4.295 3.952h81.76v80.103H4.296V3.952z" fill="url(#a)"/><path d="M4.295 3.953h81.76v80.102H4.296V3.953zM.58 87.797h89.21V.211H.58v87.586zm58.43-56.358c0-.306.108-.45.447-.45H65.3c.303 0 .446.108.446.45v29.537c0 .306-.071.45-.446.45h-5.77c-.375 0-.483-.18-.483-.486V31.44h-.035zm-.41-8.509c0-2.392 1.68-3.813 3.787-3.813 2.269 0 3.787 1.529 3.787 3.813 0 2.465-1.59 3.814-3.859 3.814-2.143.018-3.715-1.331-3.715-3.814zM41.88 43.743c-1.036-4.155-3.501-13.203-4.43-17.593h-.072c-.786 4.372-2.75 11.783-4.305 17.593h8.807zm-10.325 6.062-2.93 11.225c-.071.306-.178.378-.553.378h-5.467c-.375 0-.446-.108-.375-.558l10.557-37.2c.18-.666.304-1.277.376-3.112 0-.27.107-.378.303-.378h7.806c.269 0 .376.072.447.378l11.826 40.384c.071.306 0 .486-.304.486h-6.163c-.304 0-.482-.072-.554-.342l-3.054-11.26H31.555z" fill="#FF7F18"/><defs><radialGradient id="a" cx="0" cy="0" r="1" gradientUnits="userSpaceOnUse" gradientTransform="matrix(62.1406 0 0 60.585 31.25 21.927)"><stop stop-color="#423325" stop-opacity=".98"/><stop offset="1" stop-color="#1C0A00"/></radialGradient></defs></svg>