<svg width="22" height="20" viewBox="0 0 22 20" fill="none" xmlns="http://www.w3.org/2000/svg">
<path id="Star" d="M9.79793 0.85958C10.0978 -0.0606967 11.3997 -0.0606959 11.6995 0.859581L13.4506 6.23398C13.5847 6.64561 13.9685 6.92418 14.4014 6.92418H20.0622C21.0316 6.92418 21.4339 8.16521 20.6489 8.73398L16.074 12.0486C15.7226 12.3033 15.5755 12.7555 15.71 13.1682L17.4585 18.5349C17.7585 19.4557 16.7053 20.2227 15.921 19.6544L11.3355 16.3321C10.9854 16.0784 10.5121 16.0784 10.162 16.3321L5.57647 19.6544C4.79221 20.2227 3.73892 19.4557 4.03894 18.5348L5.78751 13.1682C5.92197 12.7555 5.77489 12.3033 5.42343 12.0486L0.848556 8.73398C0.0635489 8.16521 0.46588 6.92418 1.43527 6.92418H7.09603C7.52896 6.92418 7.91272 6.6456 8.04683 6.23398L9.79793 0.85958Z" fill="#070707"/>
</svg>
