<svg width="30" height="24" viewBox="0 0 30 24" fill="none" xmlns="http://www.w3.org/2000/svg">
<path id="twitter-icon" d="M26.7375 5.98123C26.7563 6.24372 26.7563 6.50626 26.7563 6.76875C26.7563 14.775 20.6626 24 9.52505 24C6.09378 24 2.9063 23.0062 0.225037 21.2813C0.712555 21.3375 1.18126 21.3563 1.68753 21.3563C4.51874 21.3563 7.12503 20.4 9.20629 18.7688C6.54378 18.7125 4.31252 16.9688 3.54376 14.5687C3.91879 14.625 4.29377 14.6625 4.68755 14.6625C5.23129 14.6625 5.77508 14.5874 6.28129 14.4563C3.5063 13.8937 1.42499 11.4562 1.42499 8.51249V8.43752C2.23121 8.88752 3.16879 9.16877 4.16246 9.20622C2.53121 8.1187 1.4625 6.26247 1.4625 4.16246C1.4625 3.03748 1.76245 2.00623 2.28748 1.10622C5.26874 4.78122 9.75002 7.18118 14.775 7.44372C14.6812 6.99372 14.625 6.52502 14.625 6.05626C14.625 2.71872 17.325 0 20.6812 0C22.425 0 23.9999 0.731248 25.1062 1.9125C26.4749 1.65001 27.7874 1.14374 28.95 0.450003C28.4999 1.85628 27.5437 3.03754 26.2875 3.78748C27.5062 3.6563 28.6875 3.31872 29.775 2.85002C28.9501 4.04997 27.9188 5.11868 26.7375 5.98123Z" fill="white"/>
</svg>
