<svg width="48" height="48" viewBox="0 0 48 48" fill="none" xmlns="http://www.w3.org/2000/svg">
<g filter="url(#filter0_d_7_68)">
<circle opacity="0.5" cx="24" cy="20" r="19.5" stroke="white"/>
<path d="M26.6484 20.5C26.6484 20.4375 26.6172 20.3672 26.5703 20.3203L22.9297 16.6797C22.8828 16.6328 22.8125 16.6016 22.75 16.6016C22.6875 16.6016 22.6172 16.6328 22.5703 16.6797L22.1797 17.0703C22.1328 17.1172 22.1016 17.1875 22.1016 17.25C22.1016 17.3125 22.1328 17.3828 22.1797 17.4297L25.25 20.5L22.1797 23.5703C22.1328 23.6172 22.1016 23.6875 22.1016 23.75C22.1016 23.8203 22.1328 23.8828 22.1797 23.9297L22.5703 24.3203C22.6172 24.3672 22.6875 24.3984 22.75 24.3984C22.8125 24.3984 22.8828 24.3672 22.9297 24.3203L26.5703 20.6797C26.6172 20.6328 26.6484 20.5625 26.6484 20.5Z" fill="white"/>
</g>
<defs>
<filter id="filter0_d_7_68" x="0" y="0" width="48" height="48" filterUnits="userSpaceOnUse" color-interpolation-filters="sRGB">
<feFlood flood-opacity="0" result="BackgroundImageFix"/>
<feColorMatrix in="SourceAlpha" type="matrix" values="0 0 0 0 0 0 0 0 0 0 0 0 0 0 0 0 0 0 127 0" result="hardAlpha"/>
<feOffset dy="4"/>
<feGaussianBlur stdDeviation="2"/>
<feComposite in2="hardAlpha" operator="out"/>
<feColorMatrix type="matrix" values="0 0 0 0 0 0 0 0 0 0 0 0 0 0 0 0 0 0 0.25 0"/>
<feBlend mode="normal" in2="BackgroundImageFix" result="effect1_dropShadow_7_68"/>
<feBlend mode="normal" in="SourceGraphic" in2="effect1_dropShadow_7_68" result="shape"/>
</filter>
</defs>
</svg>
