<svg xmlns:xlink="http://www.w3.org/2000/svg"  width="64" height="64" viewBox="0 0 64 64">
        <symbol viewBox="0 0 64 64" id="search" xmlns="http://www.w3.org/2000/svg">
            <g clip-path="url(#clip0_1_152)">
                <path d="M63.1296 55.3321L50.6662 42.8708C50.1037 42.3084 49.3411 41.9959 48.541 41.9959H46.5034C49.9537 37.5838 52.0038 32.0344 52.0038 25.9975C52.0038 11.6364 40.3655 0 26.0019 0C11.6384 0 0 11.6364 0 25.9975C0 40.3586 11.6384 51.9949 26.0019 51.9949C32.0398 51.9949 37.5903 49.9451 42.0031 46.4955V48.5328C42.0031 49.3327 42.3156 50.0951 42.8781 50.6576L55.3416 63.1188C56.5166 64.2937 58.4168 64.2937 59.5794 63.1188L63.1171 59.5817C64.2922 58.4068 64.2922 56.507 63.1296 55.3321ZM26.0019 41.9959C17.1638 41.9959 10.0007 34.8466 10.0007 25.9975C10.0007 17.1608 17.1513 9.99902 26.0019 9.99902C34.84 9.99902 42.0031 17.1483 42.0031 25.9975C42.0031 34.8341 34.8526 41.9959 26.0019 41.9959Z"/>
              </g>
        </symbol>

         <symbol viewBox="0 0 64 64" id="check" xmlns="http://www.w3.org/2000/svg">
            <g clip-path="url(#clip0_1_152)">
                <path d="M32 1C14.8791 1 1 14.8791 1 32C1 49.1209 14.8791 63 32 63C49.1209 63 63 49.1209 63 32C63 14.8791 49.1209 1 32 1ZM32 7C45.8165 7 57 18.1814 57 32C57 45.8165 45.8186 57 32 57C18.1835 57 7 45.8186 7 32C7 18.1835 18.1814 7 32 7ZM49.5255 23.2834L46.7085 20.4436C46.1251 19.8555 45.1754 19.8516 44.5872 20.4351L26.9182 37.9621L19.4443 30.4275C18.8609 29.8394 17.9111 29.8355 17.323 30.4189L14.4831 33.2359C13.895 33.8192 13.8911 34.769 14.4746 35.3573L25.8223 46.7967C26.4056 47.3849 27.3554 47.3887 27.9435 46.8052L49.5171 25.4048C50.1051 24.8213 50.1089 23.8715 49.5255 23.2834Z"/>
              </g>
        </symbol>

         <symbol viewBox="0 0 64 64" id="thumbs-up" xmlns="http://www.w3.org/2000/svg">
            <g clip-path="url(#clip0_1_152)">
                <path d="M58.2837 35.8363C59.38 33.98 60 32 60 29.6063C60 24.1044 55.3477 18.9088 49.2725 18.9088H44.7125C45.3275 17.3075 45.8187 15.3925 45.8187 13.0913C45.8187 3.992 41.1075 0 33.91 0C26.2091 0 26.6484 11.8666 24.94 13.575C22.0966 16.4184 18.7381 21.8809 16.345 24H4C1.79087 24 0 25.7909 0 28V58C0 60.2091 1.79087 62 4 62H12C13.8616 62 15.426 60.7282 15.8722 59.0062C21.4359 59.1314 25.2547 63.9987 38.0975 63.9987C39 63.9987 40 64 40.875 64C50.5146 64 54.8732 59.0721 54.9925 52.0838C56.6574 49.7806 57.5299 46.6935 57.16 43.71C58.3918 41.4035 58.868 38.6671 58.2837 35.8363ZM50.565 42.565C52.135 45.2062 50.7225 48.7412 48.8225 49.7612C49.785 55.8587 46.6215 57.9987 42.1825 57.9987H37.455C28.5001 57.9987 22.7014 53.2713 16 53.2713V30H17.365C20.91 30 25.8625 21.1387 29.1825 17.8175C32.7275 14.2725 31.5462 8.36375 33.91 6C39.8187 6 39.8187 10.1225 39.8187 13.0913C39.8187 17.9875 36.2738 20.1813 36.2738 24.9088H49.2725C51.9112 24.9088 53.9888 27.2725 54 29.6362C54.0112 31.9987 52.3975 34.3625 51.2163 34.3625C52.9024 36.1819 53.2626 40.017 50.565 42.565ZM11 54C11 55.6569 9.65687 57 8 57C6.34312 57 5 55.6569 5 54C5 52.3431 6.34312 51 8 51C9.65687 51 11 52.3431 11 54Z"/>
              </g>
        </symbol>

         <symbol viewBox="0 0 64 64" id="chevron-down" xmlns="http://www.w3.org/2000/svg">
            <g clip-path="url(#clip0_1_152)">
            <path d="M25.8786 47.6845L1.58575 23.3915C0.414125 22.2199 0.414125 20.3204 1.58575 19.1489L4.41913 16.3155C5.58875 15.1459 7.48438 15.1436 8.65675 16.3105L28 35.5631L47.3431 16.3105C48.5155 15.1436 50.4111 15.1459 51.5807 16.3155L54.4141 19.1489C55.5857 20.3205 55.5857 22.22 54.4141 23.3915L30.1214 47.6845C28.9497 48.856 27.0503 48.856 25.8786 47.6845Z"/>
            </g>
        </symbol>

        <symbol viewBox="0 0 20 20" id="quote-left" xmlns="http://www.w3.org/2000/svg">
            <g clip-path="url(#clip0_1_152)">
            <path d="M18.125 10H15V7.5C15 6.12109 16.1211 5 17.5 5H17.8125C18.332 5 18.75 4.58203 18.75 4.0625V2.1875C18.75 1.66797 18.332 1.25 17.8125 1.25H17.5C14.0469 1.25 11.25 4.04688 11.25 7.5V16.875C11.25 17.9102 12.0898 18.75 13.125 18.75H18.125C19.1602 18.75 20 17.9102 20 16.875V11.875C20 10.8398 19.1602 10 18.125 10ZM6.875 10H3.75V7.5C3.75 6.12109 4.87109 5 6.25 5H6.5625C7.08203 5 7.5 4.58203 7.5 4.0625V2.1875C7.5 1.66797 7.08203 1.25 6.5625 1.25H6.25C2.79688 1.25 0 4.04688 0 7.5V16.875C0 17.9102 0.839844 18.75 1.875 18.75H6.875C7.91016 18.75 8.75 17.9102 8.75 16.875V11.875C8.75 10.8398 7.91016 10 6.875 10Z"/>
            </g>
        </symbol>

        <symbol viewBox="0 0 40 64" id="facebook-f" xmlns="http://www.w3.org/2000/svg">
            <g clip-path="url(#clip0_1_152)">
            <path d="M34.8925 36L36.67 24.4175H25.5562V16.9013C25.5562 13.7325 27.1087 10.6438 32.0862 10.6438H37.1387V0.7825C37.1387 0.7825 32.5537 0 28.17 0C19.0175 0 13.035 5.5475 13.035 15.59V24.4175H2.86124V36H13.035V64H25.5562V36H34.8925Z"/>
            </g>
        </symbol>

        <symbol viewBox="0 0 64 64" id="youtube" xmlns="http://www.w3.org/2000/svg">
            <g clip-path="url(#clip0_1_152)">
                <path d="M68.7068 15.5104C67.9217 12.5541 65.6084 10.2259 62.6713 9.43575C57.3475 8 35.9999 8 35.9999 8C35.9999 8 14.6524 8 9.32853 9.43575C6.39141 10.226 4.07816 12.5541 3.29303 15.5104C1.86653 20.8687 1.86653 32.0485 1.86653 32.0485C1.86653 32.0485 1.86653 43.2282 3.29303 48.5866C4.07816 51.5429 6.39141 53.7741 9.32853 54.5643C14.6524 56 35.9999 56 35.9999 56C35.9999 56 57.3474 56 62.6713 54.5643C65.6084 53.7741 67.9217 51.5429 68.7068 48.5866C70.1333 43.2282 70.1333 32.0485 70.1333 32.0485C70.1333 32.0485 70.1333 20.8687 68.7068 15.5104ZM29.018 42.1989V21.8981L46.8604 32.0488L29.018 42.1989Z"/>
            </g>
        </symbol>

        <symbol viewBox="0 0 64 64" id="twitter" xmlns="http://www.w3.org/2000/svg">
            <g clip-path="url(#clip0_1_152)">
                <path d="M57.4212 18.9645C57.4619 19.533 57.4619 20.1016 57.4619 20.6701C57.4619 38.0101 44.264 57.9899 20.1421 57.9899C12.7106 57.9899 5.80713 55.8375 0 52.1016C1.05587 52.2234 2.071 52.264 3.1675 52.264C9.29938 52.264 14.9441 50.193 19.4517 46.66C13.6852 46.5381 8.85275 42.7615 7.18775 37.5635C8 37.6853 8.81213 37.7665 9.665 37.7665C10.8426 37.7665 12.0204 37.604 13.1167 37.3199C7.10662 36.1015 2.59888 30.8224 2.59888 24.4468V24.2844C4.345 25.259 6.37563 25.8681 8.52775 25.9493C4.99475 23.5939 2.68012 19.5736 2.68012 15.0254C2.68012 12.5889 3.32975 10.3554 4.46688 8.40613C10.9237 16.3655 20.6294 21.5634 31.5125 22.132C31.3095 21.1574 31.1876 20.1423 31.1876 19.127C31.1876 11.8985 37.0354 6.01025 44.3044 6.01025C48.081 6.01025 51.4921 7.594 53.8881 10.1524C56.8525 9.58388 59.6951 8.48738 62.213 6.98488C61.2383 10.0306 59.1672 12.589 56.4465 14.2133C59.0861 13.9291 61.6445 13.198 63.9997 12.1829C62.2132 14.7818 59.9796 17.0964 57.4212 18.9645Z"/>
            </g>
        </symbol>

        <symbol viewBox="0 0 64 64" id="pinterest" xmlns="http://www.w3.org/2000/svg">
            <g clip-path="url(#clip0_1_152)">
               <path d="M62 32C62 49.125 48.125 63 31 63C27.8 63 24.725 62.5125 21.825 61.6125C23.0875 59.55 24.975 56.175 25.675 53.4875C26.05 52.0375 27.6 46.1125 27.6 46.1125C28.6125 48.0375 31.5625 49.675 34.7 49.675C44.05 49.675 50.7875 41.075 50.7875 30.3875C50.7875 20.15 42.425 12.4875 31.675 12.4875C18.3 12.4875 11.1875 21.4625 11.1875 31.25C11.1875 35.8 13.6125 41.4625 17.475 43.2625C18.0625 43.5375 18.375 43.4125 18.5125 42.85C18.6125 42.425 19.1375 40.3125 19.375 39.3375C19.45 39.025 19.4125 38.75 19.1625 38.45C17.9 36.8875 16.875 34.0375 16.875 31.375C16.875 24.5375 22.05 17.925 30.875 17.925C38.4875 17.925 43.825 23.1125 43.825 30.5375C43.825 38.925 39.5875 44.7375 34.075 44.7375C31.0375 44.7375 28.75 42.225 29.4875 39.1375C30.3625 35.45 32.05 31.475 32.05 28.8125C32.05 26.4375 30.775 24.45 28.125 24.45C25.0125 24.45 22.5125 27.6625 22.5125 31.975C22.5125 34.725 23.4375 36.575 23.4375 36.575C23.4375 36.575 20.375 49.55 19.8125 51.975C19.1875 54.65 19.4375 58.425 19.7 60.875C8.175 56.3625 0 45.1375 0 32C0 14.875 13.875 1 31 1C48.125 1 62 14.875 62 32Z" /> 
            </g>
        </symbol>

        <symbol viewBox="0 0 64 64" id="linkedin" xmlns="http://www.w3.org/2000/svg">
            <g clip-path="url(#clip0_1_152)">
                <path d="M52 4H3.9875C1.7875 4 0 5.8125 0 8.0375V55.9625C0 58.1875 1.7875 60 3.9875 60H52C54.2 60 56 58.1875 56 55.9625V8.0375C56 5.8125 54.2 4 52 4ZM16.925 52H8.625V25.275H16.9375V52H16.925ZM12.775 21.625C10.1125 21.625 7.9625 19.4625 7.9625 16.8125C7.9625 14.1625 10.1125 12 12.775 12C15.425 12 17.5875 14.1625 17.5875 16.8125C17.5875 19.475 15.4375 21.625 12.775 21.625ZM48.0375 52H39.7375V39C39.7375 35.9 39.675 31.9125 35.425 31.9125C31.1 31.9125 30.4375 35.2875 30.4375 38.775V52H22.1375V25.275H30.1V28.925H30.2125C31.325 26.825 34.0375 24.6125 38.075 24.6125C46.475 24.6125 48.0375 30.15 48.0375 37.35V52Z"/> 
            </g>
        </symbol> 

        <symbol viewBox="0 0 9 17" id="location" xmlns="http://www.w3.org/2000/svg">
            <g clip-path="url(#clip0_1_152)">
                <path d="M6.42857 4.5C6.42857 5.68025 5.46596 6.64286 4.28571 6.64286C3.10547 6.64286 2.14286 5.68025 2.14286 4.5C2.14286 3.31975 3.10547 2.35714 4.28571 2.35714C5.46596 2.35714 6.42857 3.31975 6.42857 4.5ZM8.57143 4.5C8.57143 2.13114 6.65458 0.214285 4.28571 0.214285C1.91685 0.214285 0 2.13114 0 4.5C0 5.0106 0.0585938 5.53795 0.276228 5.99833L3.33147 12.4771C3.49888 12.8454 3.88393 13.0714 4.28571 13.0714C4.6875 13.0714 5.07254 12.8454 5.24833 12.4771L8.2952 5.99833C8.51284 5.53795 8.57143 5.0106 8.57143 4.5Z"/>
            </g>
        </symbol> 

        <symbol viewBox="0 0 24 24" id="clock" xmlns="http://www.w3.org/2000/svg">
            <g clip-path="url(#clip0_1_152)">
                <path d="M12 21C10.22 21 8.47991 20.4722 6.99987 19.4832C5.51983 18.4943 4.36628 17.0887 3.68509 15.4442C3.0039 13.7996 2.82567 11.99 3.17294 10.2442C3.5202 8.49836 4.37737 6.89472 5.63604 5.63604C6.89472 4.37737 8.49836 3.5202 10.2442 3.17294C11.99 2.82567 13.7996 3.0039 15.4442 3.68509C17.0887 4.36628 18.4943 5.51983 19.4832 6.99987C20.4722 8.47991 21 10.22 21 12C21 14.387 20.0518 16.6761 18.364 18.364C16.6761 20.0518 14.387 21 12 21ZM12 4.5C10.5166 4.5 9.0666 4.93987 7.83323 5.76398C6.59986 6.58809 5.63856 7.75943 5.07091 9.12988C4.50325 10.5003 4.35473 12.0083 4.64411 13.4632C4.9335 14.918 5.64781 16.2544 6.6967 17.3033C7.7456 18.3522 9.08197 19.0665 10.5368 19.3559C11.9917 19.6453 13.4997 19.4968 14.8701 18.9291C16.2406 18.3614 17.4119 17.4001 18.236 16.1668C19.0601 14.9334 19.5 13.4834 19.5 12C19.5 10.0109 18.7098 8.10323 17.3033 6.6967C15.8968 5.29018 13.9891 4.5 12 4.5Z"/>
                <path d="M15 12.75H12C11.8019 12.7474 11.6126 12.6676 11.4725 12.5275C11.3324 12.3874 11.2526 12.1981 11.25 12V7C11.25 6.80109 11.329 6.61032 11.4697 6.46967C11.6103 6.32902 11.8011 6.25 12 6.25C12.1989 6.25 12.3897 6.32902 12.5303 6.46967C12.671 6.61032 12.75 6.80109 12.75 7V11.25H15C15.1989 11.25 15.3897 11.329 15.5303 11.4697C15.671 11.6103 15.75 11.8011 15.75 12C15.75 12.1989 15.671 12.3897 15.5303 12.5303C15.3897 12.671 15.1989 12.75 15 12.75Z"/>
            </g>
        </symbol>

        <symbol viewBox="0 0 32 32" id="phone" xmlns="http://www.w3.org/2000/svg">
            <g clip-path="url(#clip0_1_152)">
                <path d="M0 10.375c0 0.938 0.344 1.969 0.781 3.063s1 2.125 1.438 2.906c1.188 2.063 2.719 4.094 4.469 5.781s3.813 3.094 6.125 3.938c1.344 0.531 2.688 1.125 4.188 1.125 0.75 0 1.813-0.281 2.781-0.688 0.938-0.406 1.781-1.031 2.094-1.781 0.125-0.281 0.281-0.656 0.375-1.094 0.094-0.406 0.156-0.813 0.156-1.094 0-0.156 0-0.313-0.031-0.344-0.094-0.188-0.313-0.344-0.563-0.5-0.563-0.281-0.656-0.375-1.5-0.875-0.875-0.5-1.781-1.063-2.563-1.469-0.375-0.219-0.625-0.313-0.719-0.313-0.5 0-1.125 0.688-1.656 1.438-0.563 0.75-1.188 1.438-1.625 1.438-0.219 0-0.438-0.094-0.688-0.25s-0.5-0.281-0.656-0.375c-2.75-1.563-4.594-3.406-6.156-6.125-0.188-0.313-0.625-0.969-0.625-1.313 0-0.406 0.563-0.875 1.125-1.375 0.531-0.469 1.094-1.031 1.094-1.719 0-0.094-0.063-0.375-0.188-0.781-0.281-0.813-0.656-1.75-0.969-2.656-0.156-0.438-0.281-0.75-0.313-0.906-0.063-0.094-0.094-0.219-0.125-0.375s-0.094-0.281-0.125-0.406c-0.094-0.281-0.25-0.5-0.406-0.625-0.156-0.063-0.531-0.156-0.906-0.188-0.375 0-0.813-0.031-1-0.031-0.094 0-0.219 0-0.344 0.031h-0.406c-1 0.438-1.719 1.313-2.25 2.344-0.5 1.031-0.813 2.188-0.813 3.219z"></path>
            </g>
        </symbol>

        <symbol viewBox="0 0 24 24" id="email" xmlns="http://www.w3.org/2000/svg">
            <g clip-path="url(#clip0_1_152)">
                <path d="M12,2 C17.4292399,2 21.8479317,6.32667079 21.9961582,11.7200952 L22,12 L22,13 C22,15.1729208 20.477434,17 18.5,17 C17.3269391,17 16.3139529,16.3570244 15.6839382,15.3803024 C14.770593,16.3757823 13.4581934,17 12,17 C9.23857625,17 7,14.7614237 7,12 C7,9.23857625 9.23857625,7 12,7 C14.6887547,7 16.8818181,9.12230671 16.9953805,11.7831104 L17,12 L17,13 C17,14.1407877 17.7160103,15 18.5,15 C19.2447902,15 19.928229,14.2245609 19.9947109,13.1689341 L20,13 L20,12 C20,7.581722 16.418278,4 12,4 C7.581722,4 4,7.581722 4,12 C4,16.418278 7.581722,20 12,20 C13.1630948,20 14.2892822,19.7522618 15.3225159,19.2798331 C15.8247876,19.0501777 16.4181317,19.271177 16.647787,19.7734487 C16.8774423,20.2757205 16.656443,20.8690646 16.1541713,21.0987199 C14.861218,21.689901 13.4515463,22 12,22 C6.4771525,22 2,17.5228475 2,12 C2,6.4771525 6.4771525,2 12,2 Z M12,9 C10.3431458,9 9,10.3431458 9,12 C9,13.6568542 10.3431458,15 12,15 C13.6568542,15 15,13.6568542 15,12 C15,10.3431458 13.6568542,9 12,9 Z"/>
            </g>
        </symbol>

        <symbol viewBox="0 0 24 24" id="instagram" xmlns="http://www.w3.org/2000/svg">
                <g clip-path="url(#clip0_1_152)"><path xmlns="http://www.w3.org/2000/svg" fill-rule="evenodd" clip-rule="evenodd" d="M12 18C15.3137 18 18 15.3137 18 12C18 8.68629 15.3137 6 12 6C8.68629 6 6 8.68629 6 12C6 15.3137 8.68629 18 12 18ZM12 16C14.2091 16 16 14.2091 16 12C16 9.79086 14.2091 8 12 8C9.79086 8 8 9.79086 8 12C8 14.2091 9.79086 16 12 16Z"/>
                <path xmlns="http://www.w3.org/2000/svg" d="M18 5C17.4477 5 17 5.44772 17 6C17 6.55228 17.4477 7 18 7C18.5523 7 19 6.55228 19 6C19 5.44772 18.5523 5 18 5Z"/>
                <path xmlns="http://www.w3.org/2000/svg" fill-rule="evenodd" clip-rule="evenodd" d="M1.65396 4.27606C1 5.55953 1 7.23969 1 10.6V13.4C1 16.7603 1 18.4405 1.65396 19.7239C2.2292 20.8529 3.14708 21.7708 4.27606 22.346C5.55953 23 7.23969 23 10.6 23H13.4C16.7603 23 18.4405 23 19.7239 22.346C20.8529 21.7708 21.7708 20.8529 22.346 19.7239C23 18.4405 23 16.7603 23 13.4V10.6C23 7.23969 23 5.55953 22.346 4.27606C21.7708 3.14708 20.8529 2.2292 19.7239 1.65396C18.4405 1 16.7603 1 13.4 1H10.6C7.23969 1 5.55953 1 4.27606 1.65396C3.14708 2.2292 2.2292 3.14708 1.65396 4.27606ZM13.4 3H10.6C8.88684 3 7.72225 3.00156 6.82208 3.0751C5.94524 3.14674 5.49684 3.27659 5.18404 3.43597C4.43139 3.81947 3.81947 4.43139 3.43597 5.18404C3.27659 5.49684 3.14674 5.94524 3.0751 6.82208C3.00156 7.72225 3 8.88684 3 10.6V13.4C3 15.1132 3.00156 16.2777 3.0751 17.1779C3.14674 18.0548 3.27659 18.5032 3.43597 18.816C3.81947 19.5686 4.43139 20.1805 5.18404 20.564C5.49684 20.7234 5.94524 20.8533 6.82208 20.9249C7.72225 20.9984 8.88684 21 10.6 21H13.4C15.1132 21 16.2777 20.9984 17.1779 20.9249C18.0548 20.8533 18.5032 20.7234 18.816 20.564C19.5686 20.1805 20.1805 19.5686 20.564 18.816C20.7234 18.5032 20.8533 18.0548 20.9249 17.1779C20.9984 16.2777 21 15.1132 21 13.4V10.6C21 8.88684 20.9984 7.72225 20.9249 6.82208C20.8533 5.94524 20.7234 5.49684 20.564 5.18404C20.1805 4.43139 19.5686 3.81947 18.816 3.43597C18.5032 3.27659 18.0548 3.14674 17.1779 3.0751C16.2777 3.00156 15.1132 3 13.4 3Z"/>
            </g>
        </symbol>
    </svg>
    
