<svg xmlns="http://www.w3.org/2000/svg">
<symbol id="circle" viewBox="0 0 66.915 66.915">
<path d="M17.284 42.279c.479 0 .959-.171 1.342-.519l15.487-14.037L48.15 43.209a1.994 1.994 0 0 0 2.824.138 1.999 1.999 0 0 0 .139-2.824L35.882 23.721a1.985 1.985 0 0 0-1.541-.647 1.987 1.987 0 0 0-1.596.493L15.94 38.798a1.999 1.999 0 0 0 1.344 3.481z'/%3e%3cpath d='M33.457 66.915c18.449 0 33.458-15.009 33.458-33.458C66.915 15.009 51.906 0 33.457 0 15.009 0 0 15.009 0 33.457c0 18.449 15.009 33.458 33.457 33.458zm0-62.915C49.7 4 62.915 17.215 62.915 33.457c0 16.243-13.215 29.458-29.458 29.458C17.215 62.915 4 49.7 4 33.457 4 17.215 17.215 4 33.457 4z'/%3e%3c/svg%3e"/>
</symbol>
</svg>
