<svg width="90" height="88" fill="none" xmlns="http://www.w3.org/2000/svg"><path d="M4.363 3.952h81.76v80.103H4.363V3.952z" fill="url(#a)"/><path d="M4.363 3.953h81.76v80.102H4.363V3.953zM.647 87.797h89.21V.211H.647v87.586zM63.758 42.43c1.894 0 2.572 0 2.751-.072 0-.27.072-.45.072-.63 0-2.014-.965-5.756-4.824-5.756-3.572 0-5.09 3.148-5.466 6.476h7.467v-.018zm-7.538 5.127c.071 5.054 2.447 8.454 8.11 8.454 2.197 0 4.09-.306 6.055-1.151.268-.108.447-.072.447.27v4.677c0 .378-.107.557-.375.755-1.965.972-4.43 1.422-7.467 1.422-9.807 0-13.487-7.304-13.487-15.417 0-8.832 4.538-16.063 12.522-16.063 8.11 0 10.933 6.853 10.933 12.43 0 1.799-.107 3.256-.304 3.975-.071.306-.178.414-.482.486-.75.108-2.93.27-6.199.27h-9.735v-.108h-.018zm-19.936-3.814c-1.036-4.155-3.572-13.203-4.501-17.593h-.072c-.786 4.372-2.822 11.783-4.34 17.593h8.913zm-10.432 6.062-2.93 11.19c-.07.305-.178.413-.553.413h-5.484c-.375 0-.447-.108-.375-.558l10.557-37.164c.178-.666.303-1.205.375-3.076 0-.27.107-.378.304-.378h7.806c.268 0 .375.072.447.378l11.807 40.312c.072.306 0 .486-.303.486h-6.128c-.303 0-.482-.108-.553-.378l-3.055-11.225H25.852z" fill="#D8A1FF"/><defs><radialGradient id="a" cx="0" cy="0" r="1" gradientUnits="userSpaceOnUse" gradientTransform="matrix(62.1407 0 0 60.585 31.315 21.911)"><stop stop-color="#442F55" stop-opacity=".98"/><stop offset="1" stop-color="#12002C"/></radialGradient></defs></svg>