<svg width="40" height="40" fill="none" xmlns="http://www.w3.org/2000/svg"><path d="M12.064.51h.5V.5H28.47c5.965 0 10.847 4.985 10.847 11.112v16.774c0 6.128-4.883 11.112-10.837 11.112H12.064c-5.965 0-10.856-4.976-10.856-11.093V11.622C1.208 5.495 6.099.51 12.064.51zM3.216 11.63v16.785c0 4.986 3.928 9.017 8.848 9.017H28.48c4.903 0 8.829-4.032 8.829-9.036V11.622c0-5.005-3.926-9.036-8.839-9.036H12.064c-4.912 0-8.838 4.032-8.848 9.044zM31.301 7.7c0-.59.454-1.038 1.004-1.038s1.004.448 1.004 1.038c0 .59-.454 1.038-1.004 1.038S31.3 8.29 31.3 7.7zM10.242 20.004c0-5.656 4.525-10.266 10.03-10.266 5.504 0 10.029 4.61 10.029 10.266S25.776 30.27 20.27 30.27c-5.504 0-10.029-4.61-10.029-10.266zm18.05 0c0-4.534-3.56-8.19-8.02-8.19-4.461 0-8.021 3.656-8.021 8.19 0 4.533 3.56 8.19 8.02 8.19 4.461 0 8.021-3.657 8.021-8.19z" fill="#070707" stroke="#070707"/></svg>