<svg width="21" height="20" viewBox="0 0 21 20" fill="none" xmlns="http://www.w3.org/2000/svg">
<path d="M9.50618 0.85958C9.80603 -0.0606967 11.1079 -0.0606959 11.4078 0.859581L13.1589 6.23398C13.293 6.64561 13.6768 6.92418 14.1097 6.92418H19.7704C20.7398 6.92418 21.1422 8.16521 20.3572 8.73398L15.7823 12.0486C15.4308 12.3033 15.2837 12.7555 15.4182 13.1682L17.1668 18.5349C17.4668 19.4557 16.4135 20.2227 15.6293 19.6544L11.0437 16.3321C10.6937 16.0784 10.2203 16.0784 9.87027 16.3321L5.28472 19.6544C4.50046 20.2227 3.44717 19.4557 3.74719 18.5348L5.49577 13.1682C5.63022 12.7555 5.48314 12.3033 5.13168 12.0486L0.556808 8.73398C-0.228199 8.16521 0.174132 6.92418 1.14353 6.92418H6.80428C7.23721 6.92418 7.62097 6.6456 7.75509 6.23398L9.50618 0.85958Z" fill="#070707"/>
</svg>
