<svg width="30" height="30" fill="none" xmlns="http://www.w3.org/2000/svg"><circle cx="15" cy="15" r="14" fill="#fff" stroke="#CCC" stroke-width="2"/><path d="M16.664 14.14c.058.303.099.606.099 1 0 3.429-2.3 5.86-5.763 5.86-3.315 0-6-2.685-6-6s2.685-6 6-6c1.62 0 2.971.59 4.02 1.572l-1.63 1.563c-.442-.426-1.22-.925-2.39-.925-2.046 0-3.716 1.694-3.716 3.79s1.67 3.79 3.716 3.79c2.374 0 3.266-1.71 3.405-2.587H11V14.14h5.664zm5.794.202V12.6h-1.75v1.742h-1.741v1.75h1.741v1.741h1.75v-1.741H24.2v-1.75h-1.742z" fill="#CCC"/></svg>