<svg width="20" height="20" fill="none" xmlns="http://www.w3.org/2000/svg"><path d="m7.808 13.125-.596-.22a3.92 3.92 0 0 1-1.25-.901c-.544-.582-1.144-1.59-.913-3.09.203-1.318 1.727-2.9 2.709-3.823 1.064-1.001 2.578-2.573 2.506-3.873l-.03-.593h.593C12.833.625 15 2.095 15 4.469c0 1.78-.86 3.032-2.692 4.176a18.62 18.62 0 0 1-.993.568c-1.196.649-2.94 1.946-3.349 3.332l-.158.58zm-.73-8.688c.774-.726 1.473-1.384 1.813-2.101a2.544 2.544 0 0 0-.222-.121c-.464-.222-1.02-.326-1.749-.326H6.26l.021.644c.019.55-.236.88-.56 1.297-.337.438-.72.933-.72 1.678 0 .4.05.733.164 1.03.091-.139.19-.277.297-.416.476-.614 1.057-1.16 1.617-1.685z" fill="#FC0"/><path d="M12.904 9.37c-.364.23-.742.434-1.143.652-1.275.69-2.48 1.345-2.86 2.634l-.024.078c.563.257 1.174.39 1.792.391a4.352 4.352 0 0 0 3.056-1.225A4.194 4.194 0 0 0 15 8.867a3.607 3.607 0 0 0-.218-1.21c-.444.631-1.06 1.194-1.878 1.712zm-2.407 4.693h-.994a.156.156 0 0 0-.153.125l-.99 5a.156.156 0 0 0 .152.187h2.98a.157.157 0 0 0 .15-.118.156.156 0 0 0 .003-.069l-.993-5a.157.157 0 0 0-.155-.126zm2.225-.222-.444.443a.156.156 0 0 0-.02.198l2.324 3.484a.158.158 0 0 0 .114.07.156.156 0 0 0 .126-.046l1.606-1.605a.157.157 0 0 0-.024-.24l-3.485-2.324a.156.156 0 0 0-.197.02zm2.434-.716a.156.156 0 0 0-.156.156v.337a.157.157 0 0 0 .13.154l3.438.572a.155.155 0 0 0 .167-.088.155.155 0 0 0 .015-.065v-.91a.156.156 0 0 0-.156-.156h-3.438zm-7.878.716.444.443a.156.156 0 0 1 .02.198l-2.324 3.484a.157.157 0 0 1-.24.024l-1.606-1.605a.157.157 0 0 1-.023-.191.157.157 0 0 1 .047-.05l3.485-2.323a.156.156 0 0 1 .197.02zm-2.434-.716H1.406a.156.156 0 0 0-.156.156v.91a.157.157 0 0 0 .182.153l3.438-.572a.156.156 0 0 0 .13-.154v-.337a.156.156 0 0 0-.156-.156z" fill="#FC0"/></svg>