<svg width="30" height="30" fill="none" xmlns="http://www.w3.org/2000/svg"><circle cx="15" cy="15" r="14" fill="#fff" stroke="#CCC" stroke-width="2"/><path d="M21.256 11.99c.01.132.01.263.01.394 0 4.003-3.047 8.616-8.616 8.616A8.557 8.557 0 0 1 8 19.64c.244.029.478.038.731.038a6.064 6.064 0 0 0 3.76-1.294 3.033 3.033 0 0 1-2.832-2.1c.188.029.375.047.572.047.272 0 .544-.037.797-.103A3.028 3.028 0 0 1 8.6 13.256v-.037a3.05 3.05 0 0 0 1.369.384 3.026 3.026 0 0 1-1.35-2.522c0-.562.15-1.078.412-1.528a8.608 8.608 0 0 0 6.244 3.169 3.416 3.416 0 0 1-.075-.694A3.027 3.027 0 0 1 18.228 9c.872 0 1.66.366 2.213.956a5.962 5.962 0 0 0 1.922-.731 3.02 3.02 0 0 1-1.332 1.669 6.07 6.07 0 0 0 1.744-.469 6.511 6.511 0 0 1-1.519 1.566z" fill="#CCC"/></svg>