<svg width="25" height="24" viewBox="0 0 25 24" fill="none" xmlns="http://www.w3.org/2000/svg">
<path id="linkedin-icon" d="M5.87202 24H0.896193V7.97643H5.87202V24ZM3.38143 5.79066C1.79032 5.79066 0.499756 4.47278 0.499756 2.88167C0.499756 2.1174 0.80336 1.38444 1.34378 0.844022C1.8842 0.303604 2.61716 0 3.38143 0C4.14569 0 4.87866 0.303604 5.41908 0.844022C5.9595 1.38444 6.2631 2.1174 6.2631 2.88167C6.2631 4.47278 4.972 5.79066 3.38143 5.79066ZM24.4949 24H19.5298V16.1998C19.5298 14.3409 19.4923 11.9569 16.9428 11.9569C14.3558 11.9569 13.9593 13.9766 13.9593 16.0659V24H8.98887V7.97643H13.7611V10.1622H13.8308C14.4951 8.90323 16.1178 7.57463 18.5387 7.57463C23.5746 7.57463 24.5003 10.8908 24.5003 15.198V24H24.4949Z" fill="#565656"/>
</svg>
