<svg width="31" height="24" viewBox="0 0 31 24" fill="none" xmlns="http://www.w3.org/2000/svg">
<path id="twitter-icon" d="M27.2372 5.98123C27.256 6.24372 27.256 6.50626 27.256 6.76875C27.256 14.775 21.1623 24 10.0247 24C6.59347 24 3.40599 23.0062 0.724731 21.2813C1.21225 21.3375 1.68095 21.3563 2.18723 21.3563C5.01843 21.3563 7.62472 20.4 9.70598 18.7688C7.04348 18.7125 4.81222 16.9688 4.04345 14.5687C4.41849 14.625 4.79346 14.6625 5.18725 14.6625C5.73098 14.6625 6.27477 14.5874 6.78099 14.4563C4.006 13.8937 1.92468 11.4562 1.92468 8.51249V8.43752C2.7309 8.88752 3.66848 9.16877 4.66216 9.20622C3.0309 8.1187 1.9622 6.26247 1.9622 4.16246C1.9622 3.03748 2.26214 2.00623 2.78717 1.10622C5.76844 4.78122 10.2497 7.18118 15.2747 7.44372C15.1809 6.99372 15.1247 6.52502 15.1247 6.05626C15.1247 2.71872 17.8247 0 21.1809 0C22.9247 0 24.4996 0.731248 25.6059 1.9125C26.9746 1.65001 28.2871 1.14374 29.4497 0.450003C28.9996 1.85628 28.0434 3.03754 26.7872 3.78748C28.0059 3.6563 29.1872 3.31872 30.2747 2.85002C29.4498 4.04997 28.4185 5.11868 27.2372 5.98123Z" fill="#565656"/>
</svg>
