<svg width="22" height="20" viewBox="0 0 22 20" fill="none" xmlns="http://www.w3.org/2000/svg">
<path id="Star" d="M10.1844 0.85958C10.4842 -0.0606967 11.7862 -0.0606959 12.086 0.859581L13.8371 6.23398C13.9712 6.64561 14.355 6.92418 14.7879 6.92418H20.4487C21.4181 6.92418 21.8204 8.16521 21.0354 8.73398L16.4605 12.0486C16.1091 12.3033 15.962 12.7555 16.0964 13.1682L17.845 18.5349C18.145 19.4557 17.0917 20.2227 16.3075 19.6544L11.7219 16.3321C11.3719 16.0784 10.8985 16.0784 10.5485 16.3321L5.96294 19.6544C5.17868 20.2227 4.12539 19.4557 4.42542 18.5348L6.17399 13.1682C6.30844 12.7555 6.16136 12.3033 5.8099 12.0486L1.23503 8.73398C0.450024 8.16521 0.852354 6.92418 1.82175 6.92418H7.4825C7.91543 6.92418 8.29919 6.6456 8.43331 6.23398L10.1844 0.85958Z" fill="#E5E5E5"/>
</svg>
