<svg width="30" height="30" fill="none" xmlns="http://www.w3.org/2000/svg"><circle cx="15" cy="15" r="14" fill="#fff" stroke="#CCC" stroke-width="2"/><path d="M11.686 21H9.198v-8.012h2.488V21zm-1.245-9.105a1.453 1.453 0 0 1-1.019-2.473 1.44 1.44 0 0 1 2.46 1.019c0 .795-.646 1.454-1.441 1.454zM20.998 21h-2.483v-3.9c0-.93-.019-2.122-1.294-2.122-1.293 0-1.491 1.01-1.491 2.055V21h-2.485v-8.012h2.386v1.093h.034c.333-.63 1.144-1.294 2.355-1.294 2.517 0 2.98 1.658 2.98 3.812V21h-.002z" fill="#CCC"/></svg>