<svg width="570" height="520" fill="none" xmlns="http://www.w3.org/2000/svg"><mask id="a" style="mask-type:luminance" maskUnits="userSpaceOnUse" x="0" y="54" width="570" height="466"><path fill-rule="evenodd" clip-rule="evenodd" d="M0 54.358h570V520H0V54.358z" fill="#fff"/></mask><g mask="url(#a)"><path fill-rule="evenodd" clip-rule="evenodd" d="M534.787 308.365c-1.766 2.647-3.527 5.25-5.405 7.842-16.427 23.033-36.814 45.157-59.39 65.492a209.059 209.059 0 0 1-3.157 2.842 382.043 382.043 0 0 1-9.851 8.442 380.66 380.66 0 0 1-17.604 14.187c-3.157 2.497-6.416 4.95-9.632 7.343-37.344 27.578-77.262 51.705-116.597 69.883-12.195 5.699-24.395 10.789-36.434 15.185-62.826 23.233-121.306 28.678-161.652 5.645-12.847-7.293-23.817-17.484-32.539-30.916a3284.66 3284.66 0 0 0-4.174-6.443c-12.89-20.136-25.202-40.362-36.011-60.697a441.398 441.398 0 0 1-7.326-14.187c-39.222-78.674-54.157-158.298 1.44-236.623 21.617-30.465 57.1-54.193 99.687-70.982 12.152-4.84 24.829-9.04 37.997-12.687 6.475-1.899 12.998-3.547 19.687-5.04a424.945 424.945 0 0 1 25.63-5.25 463.597 463.597 0 0 1 19.959-3.148c2.783-.344 5.565-.694 8.348-1.048 19.745-2.343 39.757-3.647 59.668-3.792 2.617-.055 5.239-.055 7.812-.055 12.04.055 23.967.5 35.739 1.404 3.157.2 6.314.45 9.471.794 60.091 5.45 115.206 21.53 152.663 48.209 8.186 5.844 15.523 12.133 21.885 18.982a72.718 72.718 0 0 1 3.371 3.791c.374.4.701.799 1.07 1.204 7.759 9.086 13.966 18.482 18.627 28.073 23.811 48.403 9.894 101.797-23.282 151.55z" fill="#FDE6D6"/></g><path fill-rule="evenodd" clip-rule="evenodd" d="M413.751 454.587c-14.488 14.214-24.803 34.54-9.22 46.582 17.404 13.445 53.301 10.324 71.859-15.043 11.862-16.204 18.139-41.823 4.999-56.192-11.249-12.304-49.864 7.212-67.638 24.653z" fill="#E8E5EA"/><path fill-rule="evenodd" clip-rule="evenodd" d="M203.582 450.803c-3.487.145-7.027.25-10.462.25-.364 0-.625.295-.625.649 0 .295.261.6.625.6 3.487 0 6.975-.105 10.514-.25.365 0 .625-.305.625-.649-.052-.3-.364-.6-.677-.6zm-21.336-.621c-3.54-.1-7.079-.3-10.41-.5-.469-.05-.677.2-.729.545 0 .355.26.654.625.704 3.383.2 6.922.4 10.462.5.364 0 .677-.25.677-.605a.63.63 0 0 0-.625-.644zm42.673-.699c-3.488.345-6.975.649-10.411.899-.364 0-.624.295-.624.65.052.35.312.599.676.599h.052c3.436-.249 6.923-.554 10.411-.899a.715.715 0 0 0 .624-.704.639.639 0 0 0-.728-.545zm-64.021.152c-3.462-.355-6.976-.85-10.386-1.404a.704.704 0 0 0-.787.504c-.052.345.21.65.577.7 3.41.599 6.925 1.049 10.439 1.449h.105c.315 0 .577-.2.63-.555.052-.345-.21-.649-.578-.694zm85.397-3.424c-3.567.494-7.03.999-10.439 1.448-.367.045-.63.35-.577.695.052.305.367.554.682.554h.052c3.41-.449 6.924-.954 10.491-1.498a.63.63 0 0 0 .525-.705c-.053-.345-.367-.544-.734-.494zm-106.691-.014a207.17 207.17 0 0 1-10.389-2.498c-.375-.1-.75.05-.857.4-.107.344.107.699.482.794 3.266.849 6.587 1.704 9.96 2.453.161.045.322.045.482.1h.161c.107 0 .214-.055.321-.1l.054-.05c.16-.05.214-.2.268-.355.053-.294-.161-.644-.482-.744zm128.018-3.224c-3.439.694-6.985 1.399-10.319 1.998h-.105a.59.59 0 0 0-.53.7c.053.295.371.494.688.494h.106c2.381-.399 4.816-.849 7.25-1.343 1.058-.2 2.116-.4 3.175-.65.37-.05.582-.4.529-.749-.106-.3-.423-.55-.794-.45zm20.256-5.282c-3.374.85-6.855 1.699-10.389 2.499-.375.104-.589.404-.482.754.053.295.321.495.643.495.053 0 .107 0 .16-.045 3.535-.8 7.069-1.649 10.443-2.454.321-.094.535-.444.482-.799-.107-.295-.482-.495-.857-.45zm-168.584 2.191a105.888 105.888 0 0 1-3.627-1.222c-2.288-.782-4.465-1.658-6.641-2.538-.335-.147-.782 0-.949.289-.168.298 0 .689.335.831 2.344.983 4.799 1.858 7.255 2.743 1.004.391 2.065.729 3.125 1.076h.279c.279 0 .558-.152.67-.391.112-.294-.056-.636-.447-.788zm189.942-7.378c-.705.2-1.409.45-2.168.65-2.656.754-5.42 1.554-8.185 2.298-.379.105-.596.4-.487.754.108.3.379.445.65.445h.217c2.71-.744 5.474-1.494 8.076-2.248.813-.25 1.572-.45 2.33-.695a.647.647 0 0 0 .434-.804c-.108-.295-.488-.495-.867-.4zm-209.085-.651-.384-.265a122.594 122.594 0 0 1-8.887-5.405c-.274-.212-.713-.106-.932.212-.22.259-.11.688.164.9 2.853 1.85 5.87 3.71 8.942 5.459l.439.265c.11.048.22.048.329.048.274 0 .494-.101.603-.313.22-.323.055-.747-.274-.901zm229.387-5.528c-3.459 1.154-6.974 2.253-10.379 3.347-.384.105-.549.455-.439.755.11.294.33.444.659.444.055 0 .11 0 .22-.045 3.459-1.049 6.919-2.203 10.379-3.347a.606.606 0 0 0 .439-.799c-.165-.355-.604-.5-.879-.355zm21.167-7.842c-.167-.345-.556-.498-.889-.345-3.388 1.234-6.888 2.513-10.387 3.702a.676.676 0 0 0-.389.84c.111.241.389.395.666.395.056 0 .167-.05.278-.05a706.49 706.49 0 0 0 10.332-3.752c.389-.148.555-.498.389-.79zm-268.604 2.422a95.08 95.08 0 0 1-3.66-2.787c-1.583-1.267-3.058-2.58-4.533-3.847a.732.732 0 0 0-.983 0 .606.606 0 0 0 0 .908c1.748 1.525 3.55 3.045 5.462 4.515.929.755 1.857 1.52 2.84 2.224.11.107.273.157.437.157.219 0 .382-.101.546-.253.219-.253.164-.659-.109-.917zm286.788-10.487c-.154-.315-.565-.411-.873-.27-2.977 1.229-6.005 2.512-9.392 3.837-.308.091-.462.456-.308.73a.653.653 0 0 0 .564.366.397.397 0 0 0 .257-.096c3.387-1.325 6.467-2.553 9.444-3.837.308-.132.462-.452.308-.73zm-302.735-4.367a99.712 99.712 0 0 1-6.21-7.689c-.201-.301-.602-.346-.902-.148a.609.609 0 0 0-.1.838c1.753 2.466 3.706 4.883 5.71 7.196.2.203.35.444.55.642.1.103.3.197.45.197.151 0 .301-.045.452-.143.2-.198.25-.449.15-.696 0-.093-.05-.148-.1-.197zm321.972-4.634c-.158-.306-.579-.408-.895-.255-3.001 1.578-6.212 3.167-9.371 4.699-.316.153-.421.46-.316.71-.053.051 0 .107 0 .158a.716.716 0 0 0 .579.358c.106 0 .211-.056.316-.102.263-.159.579-.256.843-.414 2.948-1.374 5.791-2.855 8.581-4.285.316-.159.421-.567.263-.869zm19.208-10.01c-.161-.292-.591-.383-.913-.244-.59.292-1.127.626-1.718.913a217.147 217.147 0 0 1-7.622 3.923.527.527 0 0 0-.215.813c.107.192.322.283.59.283.108 0 .215 0 .322-.044 3.168-1.626 6.335-3.252 9.341-4.831.054-.048.107-.1.161-.144.215-.191.215-.43.054-.669zM54.465 390.16a83.245 83.245 0 0 1-5.022-8.7c-.163-.295-.6-.443-.927-.295-.328.142-.492.491-.328.836 1.528 2.951 3.22 5.951 5.076 8.803.11.197.328.295.6.295.11 0 .219-.049.328-.098a.603.603 0 0 0 .273-.841zm371.12-8.602c0-.052-.055-.109-.055-.156a.744.744 0 0 0-.943-.208c-.222.104-.388.255-.61.364-1.553.981-3.216 2.025-4.824 2.955-1.275.831-2.606 1.615-3.881 2.394a.587.587 0 0 0-.222.883.615.615 0 0 0 .554.311c.111 0 .277-.052.388-.103a206.767 206.767 0 0 0 5.712-3.485 127.016 127.016 0 0 0 3.659-2.228c.222-.161.333-.468.222-.727zm16.99-12.175a.625.625 0 0 0-.872-.152c-2.719 1.957-5.541 3.908-8.311 5.811-.308.195-.36.537-.154.83.154.146.307.239.513.239.154 0 .256 0 .41-.093 2.771-1.908 5.592-3.854 8.311-5.811.308-.195.36-.585.103-.824zm-400.169-6.781a.693.693 0 0 0-.855-.455c-.321.102-.535.455-.482.753a131.191 131.191 0 0 0 3.209 9.758c.106.303.32.455.641.455.054 0 .107 0 .214-.056.32-.096.535-.454.374-.803-1.176-3.133-2.192-6.372-3.101-9.652zm417.294-5.279a.76.76 0 0 0-.966-.047 448.892 448.892 0 0 1-8.269 6.705c-.268.208-.322.624-.107.883.161.156.322.255.537.255.161 0 .268-.047.429-.156 2.9-2.23 5.692-4.517 8.269-6.7.322-.265.322-.623.107-.94zM38.926 342.678c0-.29-.32-.589-.695-.535-.374.049-.641.339-.588.687a141.65 141.65 0 0 0 1.444 9.813c.053.289.374.485.695.485h.107c.374-.044.588-.338.534-.682-.588-3.194-1.122-6.427-1.497-9.768zm436.753.645a.788.788 0 0 0-1.019 0 344.674 344.674 0 0 1-8.151 6.782c-.283.195-.34.586-.057.83.114.146.34.195.51.195.17 0 .34-.049.509-.151a343.622 343.622 0 0 0 8.208-6.827c.283-.244.283-.634 0-.829zm14.942-15.008c-.271-.255-.705-.204-.976.056-2.224 2.549-4.664 5.15-7.159 7.699-.271.255-.217.663.054.913a.62.62 0 0 0 .434.158c.217 0 .38-.107.488-.204a231.144 231.144 0 0 0 7.267-7.756c.217-.254.163-.662-.108-.866zM37.51 327.116c0-1.41 0-2.869.053-4.332a.633.633 0 0 0-.641-.632c-.375 0-.695.248-.695.584-.054 1.458-.054 2.921-.054 4.38 0 1.847.053 3.646.107 5.444 0 .292.32.584.642.584h.053c.374-.054.642-.292.642-.637a180.926 180.926 0 0 1-.107-5.391zm465.902-14.841c-.316-.192-.684-.144-.894.139a212.468 212.468 0 0 1-6.156 7.774c-.263.293-.157.677.106.869.105.048.263.096.421.096a.666.666 0 0 0 .526-.24c2.104-2.543 4.208-5.183 6.155-7.822.21-.293.158-.677-.158-.816zM38.629 302.187c-.427-.093-.695.152-.748.495a221.616 221.616 0 0 0-1.177 9.841c0 .342.268.636.642.636h.054c.32 0 .641-.245.641-.543.321-3.227.695-6.507 1.177-9.738a.604.604 0 0 0-.589-.691zm475.388-6.977a.782.782 0 0 0-.885.301 137.986 137.986 0 0 1-5.05 8.708c-.208.296-.104.701.208.901.104.045.209.045.313.045.26 0 .468-.095.572-.295a142.287 142.287 0 0 0 5.154-8.809c.156-.305 0-.705-.312-.851zM42.375 283.188c-.374-.044-.695.154-.802.5-.749 3.264-1.497 6.524-2.139 9.744-.053.346.214.643.535.742h.16c.321 0 .589-.198.642-.495.642-3.215 1.337-6.479 2.139-9.744.053-.351-.16-.643-.535-.747zm480.093-5.969c-.374-.104-.749.046-.856.413-1.122 3.154-2.459 6.411-3.903 9.616-.16.356 0 .724.374.879.054 0 .161.051.268.051a.68.68 0 0 0 .588-.413c1.444-3.257 2.78-6.514 3.903-9.719.161-.315-.053-.672-.374-.827zm-474.3-13.996c-.321-.1-.696.101-.803.448a224.886 224.886 0 0 0-2.994 9.718c-.053.347.16.704.481.75.054.05.107.05.214.05.268 0 .535-.196.642-.453.855-3.216 1.871-6.492 2.94-9.707.108-.358-.106-.705-.48-.806zm479.965-5.999c-.374-.099-.695.15-.802.444-.748 3.196-1.657 6.432-2.62 9.728a.654.654 0 0 0 .481.748c.054 0 .107.05.161.05.321 0 .588-.2.641-.499a238.755 238.755 0 0 0 2.674-9.723c.053-.349-.16-.703-.535-.748zM55.006 244.246c-.375-.108-.749.047-.856.361a243.588 243.588 0 0 0-3.636 9.768c-.16.314.053.669.374.829h.214c.321 0 .535-.16.642-.412a525.62 525.62 0 0 1 3.636-9.722c.107-.314-.054-.726-.374-.824zm476.9-7.022c-.321-.049-.695.196-.749.539-.481 3.237-1.069 6.469-1.711 9.706-.053.348.161.637.535.74h.107a.729.729 0 0 0 .695-.495c.642-3.286 1.23-6.572 1.711-9.755 0-.343-.214-.691-.588-.735zM63.745 226.281c-.31-.142-.67 0-.825.328-1.39 2.905-2.782 5.853-4.07 8.801-.103.281.051.666.36.761a.503.503 0 0 0 .258.047.6.6 0 0 0 .567-.38c1.288-2.905 2.68-5.853 4.07-8.749.155-.332 0-.67-.36-.808zm469.735-9.048c-.321.044-.642.238-.695.584-.161 3.26-.375 6.52-.695 9.731-.054.341.213.633.588.676h.053c.321 0 .642-.238.642-.583.374-3.207.588-6.467.748-9.78.054-.288-.267-.584-.641-.628zm-460.096-8.925c-.34-.146-.793-.054-.963.243a354.604 354.604 0 0 0-4.981 8.801c-.17.345 0 .686.34.827a.54.54 0 0 0 .283.053c.283 0 .51-.097.622-.34a448.248 448.248 0 0 1 5.038-8.757c.17-.341 0-.686-.34-.827zm461.325-10.481c0-.336-.321-.579-.695-.579a.63.63 0 0 0-.642.633c.161 3.209.268 6.468.268 9.727 0 .34.321.632.641.632.375 0 .696-.292.696-.632 0-3.259-.107-6.566-.268-9.781zm-451.63-7.505c-.317-.149-.738-.05-.896.248-1.792 2.923-3.479 5.905-5.112 8.783a.562.562 0 0 0 .263.794c.106.049.211.099.316.099.211 0 .475-.099.58-.347 1.634-2.829 3.32-5.806 5.112-8.733.158-.298.053-.645-.263-.844zm448.957-12.547a.591.591 0 0 0-.748-.49c-.375.049-.588.343-.535.681.481 3.237.909 6.518 1.23 9.75.053.343.321.539.695.539h.053c.375 0 .642-.294.589-.636a154.755 154.755 0 0 0-1.284-9.844zm-438.23-4.403c-.248-.203-.645-.101-.844.203-1.739 2.885-3.477 5.78-5.166 8.721-.199.304-.1.659.198.862.1.05.2.101.299.101.248 0 .447-.101.546-.304 1.689-2.941 3.428-5.831 5.166-8.721.2-.309.1-.659-.198-.862zm436.767-5.194h-.053c-.589-3.126-1.391-6.252-2.193-9.433-.053-.342-.427-.54-.802-.441-.321.049-.588.397-.481.744a186.323 186.323 0 0 1 2.139 9.081c.053.198.107.441.16.645.054.297.321.496.642.496h.107c.374-.099.588-.397.535-.745 0-.099-.054-.248-.054-.347zm-425-12.777a.647.647 0 0 0-.902.15l-.266.351c-1.963 2.756-3.98 5.562-5.891 8.364-.212.305-.16.706.16.907.105.05.264.1.37.1.213 0 .425-.1.531-.301 1.964-2.806 3.928-5.617 5.945-8.368l.265-.351a.626.626 0 0 0-.212-.852zm419.434-9.211a250.456 250.456 0 0 0-2.514-7.46c-.107-.355-.534-.507-.855-.406-.374.153-.535.508-.428.812a201.93 201.93 0 0 1 2.888 8.525c.106.406.267.762.374 1.167a.668.668 0 0 0 .641.457h.214a.658.658 0 0 0 .428-.812 37.062 37.062 0 0 0-.748-2.283zm-406.573-6.783c-.318-.191-.742-.143-.954.144-2.014 2.577-4.081 5.155-6.148 7.828-.212.239-.106.621.159.811.159.096.265.096.424.096a.664.664 0 0 0 .53-.244 487.996 487.996 0 0 1 6.148-7.823c.212-.287.106-.621-.159-.812zm11.804-15.983a.75.75 0 0 0-.932.097 523.18 523.18 0 0 0-6.213 7.813c-.207.241-.103.627.156.82a.58.58 0 0 0 .362.144.745.745 0 0 0 .569-.289c2.02-2.604 4.09-5.209 6.161-7.765a.574.574 0 0 0-.103-.82zm388.371 6.064c-.304-.717-.66-1.481-1.015-2.245a22.662 22.662 0 0 0-.558-1.243c-.762-1.767-1.625-3.582-2.488-5.35-.152-.286-.508-.43-.863-.286-.305.143-.457.477-.305.764.61 1.237 1.219 2.484 1.777 3.726.406.812.762 1.624 1.066 2.389.406.812.762 1.576 1.066 2.388l.153.287a.592.592 0 0 0 .558.382c.102 0 .152 0 .254-.048.254-.096.457-.334.406-.621 0-.048 0-.1-.051-.143zm-374.461-22.054a.706.706 0 0 0-.9.103c-2.051 2.451-4.002 5-6.002 7.499-.05.098-.15.147-.2.245-.25.294-.2.686.1.882.1.099.25.148.35.148.15 0 .3-.049.4-.148l.1-.098a536.235 536.235 0 0 1 6.252-7.743c.2-.245.15-.638-.1-.888zm364.833 3.982c-.682-1.197-1.312-2.344-1.994-3.491a109.484 109.484 0 0 0-3.149-5.286c-.157-.299-.577-.399-.892-.249-.315.199-.42.549-.21.848 1.102 1.795 2.152 3.64 3.254 5.535.577 1.047 1.207 2.139 1.784 3.241.158.2.368.3.578.3.105 0 .209 0 .314-.055.315-.145.473-.544.315-.843zM158.059 91.454a.817.817 0 0 0-.996.1c-2.378 2.52-4.812 5.09-7.19 7.71-.221.303-.221.706.11.908a.67.67 0 0 0 .443.151.68.68 0 0 0 .498-.252c2.378-2.62 4.812-5.19 7.19-7.71a.646.646 0 0 0-.055-.907zm340.16 2.876c-1.945-2.94-3.999-5.826-6.106-8.712-.216-.315-.649-.368-.973-.158-.27.21-.378.63-.162.945 2.108 2.834 4.215 5.72 6.161 8.66a.671.671 0 0 0 .54.262c.108 0 .27 0 .378-.105.324-.158.378-.578.162-.892zM171.948 76.49c-.266-.208-.693-.208-.906.052-2.451 2.497-4.848 5.098-7.246 7.699-.266.312-.213.676.053.936a.616.616 0 0 0 .427.156c.16 0 .373-.052.479-.208a527.58 527.58 0 0 1 7.246-7.698c.267-.26.213-.677-.053-.937zm314.5 1.843a203.756 203.756 0 0 0-7.217-7.793c-.222-.251-.666-.251-.944-.05-.333.251-.333.653-.055.905 2.387 2.463 4.83 5.077 7.106 7.692.167.15.333.251.555.251.167 0 .278-.05.444-.15.278-.202.333-.604.111-.855zM186.957 62.532a.615.615 0 0 0-.869 0 327.692 327.692 0 0 0-7.304 6.802c-.255.245-.255.628 0 .82.103.144.256.192.46.192a.644.644 0 0 0 .46-.192c2.4-2.3 4.852-4.602 7.253-6.76a.582.582 0 0 0 0-.862zm284.509-.193c-2.396-2.316-4.844-4.63-7.343-6.8a.673.673 0 0 0-.918 0 .636.636 0 0 0 .051.867c2.499 2.17 4.947 4.486 7.292 6.752a.663.663 0 0 0 .459.193.473.473 0 0 0 .408-.193c.255-.24.255-.627.051-.82zm-268.412-12.76c-.274-.253-.714-.303-.988-.051-1.976 1.566-3.952 3.131-5.873 4.747-.494.354-.933.758-1.372 1.162-.33.252-.714.505-1.043.808a.654.654 0 0 0-.055.909c.165.1.329.202.549.202.165 0 .329-.05.439-.152l1.811-1.515 1.976-1.666c1.482-1.217 2.964-2.374 4.446-3.535.275-.253.33-.657.11-.91zm253.359-.379c-2.715-2.322-5.537-4.539-8.306-6.702-.32-.211-.746-.159-.959.105-.213.317-.159.74.107.945 2.822 2.116 5.591 4.386 8.306 6.655a.61.61 0 0 0 .426.158c.16 0 .373-.105.48-.264a.603.603 0 0 0-.054-.897zM220.171 36.604c-.209-.237-.628-.331-.89-.095-2.773 1.797-5.546 3.783-8.372 5.77-.261.236-.314.567-.104.851.157.142.313.237.523.237.157 0 .261-.048.418-.142a176.368 176.368 0 0 1 8.32-5.77c.262-.194.314-.568.105-.851zm219.06.632a211.454 211.454 0 0 0-9.334-5.776c-.278-.154-.722-.103-.945.207a.58.58 0 0 0 .223.876 339.707 339.707 0 0 1 9.278 5.724c.111.103.278.103.389.103.222 0 .444-.051.556-.257.222-.31.166-.67-.167-.877zM238.39 25.664c-.22-.262-.661-.367-.937-.21-3.141 1.835-6.283 3.723-9.369 5.715-.331.21-.386.63-.166.944.111.157.331.262.552.262a.823.823 0 0 0 .385-.105 186.7 186.7 0 0 1 9.315-5.662c.33-.21.385-.63.22-.944zm182.639.568c-3.119-1.645-6.292-3.291-9.411-4.792-.318-.145-.741 0-.899.304-.159.3 0 .648.317.843 3.12 1.5 6.239 3.047 9.306 4.692.106.1.211.1.317.1.265 0 .476-.1.582-.3a.567.567 0 0 0-.212-.847zm-164.43-10.465c-.158-.36-.526-.464-.894-.31a195.14 195.14 0 0 0-9.404 4.69c-.315.206-.42.567-.262.876.105.258.367.36.578.36.105 0 .21-.051.315-.102 3.099-1.65 6.252-3.195 9.351-4.69.316-.154.473-.515.316-.824zm145.046 1.462c-3.412-1.302-6.88-2.604-10.348-3.81-.335-.096-.783.049-.895.338-.167.333 0 .675.392.82 3.468 1.157 6.936 2.459 10.292 3.76.111.049.167.049.279.049.28 0 .56-.145.671-.338.168-.342 0-.675-.391-.82zm-125.55-8.67a194.954 194.954 0 0 0-10.429 3.497c-.386.15-.552.5-.386.794.11.255.386.405.607.405.11 0 .22 0 .276-.05 3.421-1.249 6.897-2.448 10.374-3.497.331-.1.552-.45.386-.75-.11-.35-.497-.5-.828-.4zm105.221 1.246a203.482 203.482 0 0 0-10.403-2.997c-.379-.1-.758.1-.866.45-.109.3.108.649.487.749 3.414.899 6.935 1.898 10.348 2.997h.217c.271 0 .542-.15.65-.4.109-.354-.054-.699-.433-.799zm-84.824-6.654c-3.519.644-7.038 1.399-10.45 2.298a.573.573 0 0 0-.48.75c.053.25.32.45.64.45h.16c3.412-.85 6.931-1.605 10.396-2.25.32-.05.587-.399.533-.749-.106-.3-.426-.55-.799-.5zM360.929 4.2c-3.478-.7-7.008-1.349-10.432-1.849-.369-.05-.738.2-.79.5-.053.35.21.7.579.75 3.425.5 6.902 1.099 10.379 1.798.053.05.106.05.106.05.316 0 .579-.2.684-.5.053-.35-.158-.65-.526-.749zM318.054.824h-.052c-3.499.2-7.051.5-10.498.9-.365.05-.626.35-.574.7.052.299.313.549.679.549h.052c3.447-.4 6.946-.7 10.445-.9.314 0 .627-.3.575-.654 0-.295-.313-.595-.627-.595zM339.45.55c-3.435-.3-6.974-.5-10.462-.55-.364 0-.677.25-.677.6s.261.649.625.649c3.487.05 6.975.25 10.41.55h.052c.365 0 .625-.25.677-.6 0-.355-.26-.65-.625-.65z" fill="#D8D5DB"/><path fill-rule="evenodd" clip-rule="evenodd" d="m531.401 134.658-6.936 11.316-.907 1.452-10.036 16.273-2.182 3.605-64.346 104.549-10.671 17.324-10.671-17.324-38.149-61.988-5.869-9.514-13.077-21.28-30.621-49.771h196.773l-3.308 5.358zm-197.742-7.356 35.276 57.055 10.05 16.273 5.885 9.484 38.217 61.797 13.744 22.263 13.792-22.263 63.769-103.178 2.245-3.594 17.432-28.153 4.811-7.837.428-.649.748-1.198H333.659z" fill="#fff"/><path fill-rule="evenodd" clip-rule="evenodd" d="M366.765 382.093c.16.55-.107 1.355-.696 2.35-1.338 2.349-4.543 5.699-7.915 8.448-.701.555-1.397 1.1-2.092 1.55-2.034 1.549-4.014 2.754-5.566 3.199-5.458 1.7-29.058-1.2-34.784-4.099-.369-.2-.642-.4-.91-.65-2.349.15-5.833.2-10.06 0a74.697 74.697 0 0 1-6.262-.55c-5.298-.55-11.345-1.699-17.873-3.649a91.84 91.84 0 0 1-10.008-3.449 110.63 110.63 0 0 1-9.846-4.699c-.803-.4-1.392-.9-2.087-1.295.642 4.599 1.284 9.143 1.98 13.642.214 1.25.428 2.5.588 3.699.589 3.55 1.178 7.054 1.82 10.498 2.515 13.547 5.405 26.295 8.883 37.693a68.076 68.076 0 0 0 1.071 3.549c-1.124.15-2.248.305-3.318.45.267 1.149.481 2.354.695 3.549 2.676 13.497 4.71 30.144 6.208 47.24-62.826 23.246-121.317 28.694-161.667 5.649-12.843-7.298-23.814-17.496-32.536-30.944l-4.174-6.448c.267-7.049.588-12.998.856-17.047-1.017-.1-1.552-.1-1.552-.1 0-8.148.374-18.846.963-31.193.053-.5.053-1 .053-1.55.215-3.499.429-7.099.696-10.848.214-4.599.535-9.293.856-14.197.482-7.098 1.017-14.497 1.606-21.995-13.058-3.25-23.975-6.749-30.129-10.248-8.027-4.549-11.077-10.898-10.863-17.147-.107-1.249-.107-2.599.214-3.999 3.05-9.448 13.54-37.592 25.42-65.537l-13.165-4.199s38.476-64.037 61.06-78.134c.107-.05.16-.1.267-.15 7.974-6.898 19.479-11.347 36.711-13.147.107-13.347-1.017-35.893-2.194-53.139-5.619-1.2-9.419-5.549-11.559-9.148-.268-.4-.535-.8-.696-1.15a21.06 21.06 0 0 1-1.552-3.499c-1.177-4.399-.053-8.049 2.248-10.398-.482-3.65-1.178-9.648-1.445-15.947-.535-11.598.16-24.295 5.779-25.445-.053-.15-.16-.25-.214-.35-1.444-4.149 1.178-8.748 1.285-8.898l2.354 1.15c0 .05-2.14 3.85-1.123 6.948 4.495-4.649 19.639-6.148 35.533-5.298.91 0 1.873.1 2.783.15 3.264.25 6.529.55 9.739 1 1.071.1 2.087.25 3.104.45.535.05 1.124.15 1.659.25 3.479.55 6.797 1.249 9.847 2.049 5.244 1.35 9.632 3.05 12.576 4.999.963.6 1.712 1.25 2.354 1.9 2.676 2.899 3.104 4.948 1.927 6.298-.696.75-1.82 1.3-3.318 1.7.642 4.199.91 7.848 1.017 11.198.321.8.642 1.65.963 2.499.268.75.535 1.55.803 2.35.053.05.107.05.16.1.321.25.642.45.963.7 1.178 1 2.248 2.249 3.051 3.898l-2.408 1.05c-.054-.1-.107-.15-.161-.25.642 2.55 1.231 5.2 1.659 7.999a750.608 750.608 0 0 0 2.034 12.347c.214 1.55.428 3.1.642 4.599.481 3.1.91 6.149 1.177 9.048.107.9.214 1.75.214 2.6 1.124 13.197-.214 24.145-8.669 29.644-1.606 1.1-3.532 1.999-5.726 2.599-2.783.85-6.101 1.3-9.954 1.35.107 3.499.321 6.899.642 10.098.161 1.25.321 2.499.535 3.649.161 1.2.375 2.4.643 3.499 14.288 3.2 25.044 8.599 31.841 15.947.321.3.695.6 1.016.95 3.8 3.449 7.492 8.753 10.971 15.097 4.388 7.948 8.509 17.601 12.148 27.244.267.75.535 1.55.856 2.3.267.85.588 1.65.856 2.499 1.498 4.15 2.89 8.299 4.174 12.253.963 2.944 1.82 5.799 2.676 8.493 4.121 13.552 6.529 23.55 6.529 23.55l-6.529 1.445-2.676.6-1.926.455c.642 2.394 1.284 4.744 1.926 7.143.054.25.161.55.214.805.856 3.1 1.659 6.249 2.462 9.293 4.121 15.647 7.599 30.144 9.151 39.742 4.602 3.549 7.973 9.098 12.95 14.252 5.031 5.194 11.827 9.893 23.333 11.743.053 0 .053.05.107.05 4.5-3.3 12.843-7.194 17.927-8.643.696-.155 1.29-.305 1.819-.405.428-.1.808-.15 1.124-.15 2.146-.4 2.462-.25 3.746.5.482.35 1.124.799 2.141 1.349 4.174 2.3 8.562 4.449 12.362 6.549 4.709 2.554 8.401 4.999 9.472 7.598.107.155.16.35.214.5z" fill="#D1CDD3"/><path fill-rule="evenodd" clip-rule="evenodd" d="M382.232 368.303c-3.81-2.139-2.698-2.41-7.005-1.668-4.649.806-14.651 5.304-19.711 9.051-.054-.005-.091-.03-.145-.04-22.911-3.682-26.94-18.874-36.205-26.067-5.135-31.536-31.007-117.358-31.007-117.358l-38.985 13.589c5.68 36.159 28.539 104.931 34.47 120.449a15.265 15.265 0 0 0 3.633 4.583c1.945 3.852 5.44 7.568 11.087 10.629 23.372 12.667 45.493 12.843 53.956 12.337.273.255.583.476.936.661 5.733 2.935 29.254 5.81 34.747 4.122 5.583-1.718 17.018-12.567 16.195-15.572-1.336-4.909-12.418-9.357-21.966-14.716z" fill="#FFAD69"/><path fill-rule="evenodd" clip-rule="evenodd" d="M253.717 208.536c-11.097 23.18-7.019 96.629-7.019 96.629l70.919-15.71s-34.638-142.067-63.9-80.919z" fill="#377ADB"/><path fill-rule="evenodd" clip-rule="evenodd" d="M313.34 484.338c-12.18 5.71-24.37 10.809-36.394 15.212-62.741 23.267-121.148 28.721-161.449 5.654.588-21.666 1.39-44.233 2.031-54.491.107-1.201.214-2.251.267-3.102l21.591-.4h.962l.053-.05 116.824-2.147h.113l7.476-.155 7.482-.15 34.524-.651a96.226 96.226 0 0 1 1.068 4.709c2.245 10.207 4.009 22.462 5.452 35.571z" fill="#232323"/><path fill-rule="evenodd" clip-rule="evenodd" d="M201.808 177.386c-42.081 1.292-56.306 14.514-63.561 37.381-8.241 25.966-22.75 182.794-22.75 235.198 0 0 125.938 8.309 195.704-2.339-21.877-68.783-24.239-192.455-24.679-229.302-.327-27.641-31.371-42.579-84.714-40.938z" fill="#4D8DFF"/><mask id="b" style="mask-type:luminance" maskUnits="userSpaceOnUse" x="0" y="0" width="570" height="520"><path fill-rule="evenodd" clip-rule="evenodd" d="M0 520h570V.4H0V520z" fill="#fff"/></mask><g mask="url(#b)" fill-rule="evenodd" clip-rule="evenodd"><path d="M207.467 313.159h60.957v-68.947h-60.957v68.947zm-2.139 2.998h66.304v-73.943h-66.304v73.943z" fill="#fff"/><path d="M239.139 113.576c4.156-2.902 25.855-.269 19.608-41.157-2.28-14.918-17.414-4.961-28.129-2.97-10.721 1.99-3.904 44.863-3.904 44.863l12.425-.736z" fill="#232323"/><path d="M185.009 103.32c1.805 10.92 5.415 69.996 3.912 83.718-1.503 13.722 69.813 17.638 60.48 2.522-9.326-15.121-2.704-65.242-2.704-65.242l-61.688-20.998z" fill="#FFAD69"/><path d="m189.31 105.319 56.656 19.296s-3.825 29.134-1.517 49.651c-43.201-3.108-54.289-53.86-55.015-63.633-.124-1.841-.183-3.618-.124-5.314z" fill="#D88344"/><path d="M263.961 101.949c5.235 33.675 14.123 67.255-29.612 61.723-43.74-5.526-50.531-57.863-50.407-67.73.681-52.677 69.727-60.211 80.019 6.007z" fill="#FFAD69"/><path d="M259.444 63.88c-10.313-11.07-68.296-15.247-77.894-5.443-1.053-3.08 1.096-6.864 1.118-6.899l-2.365-1.177c-.113.189-2.73 4.753-1.306 8.856.049.129.167.218.215.348-10.609 2.16-3.837 44.755-3.837 44.755l12.42-.735c4.154-2.891 18.573-23.245 21.749-35.527 22.707 3.55 63.008 9.893 49.9-4.177z" fill="#232323"/><path d="M254.358 369.082c-4.428.231-21.61 3.018-27.641 1.712-20.27-4.419-72.506-26.289-100.624-38.513 17.299-35.051 42.764-97.086 42.764-97.086l-40.041-10.968c-18.581 32.129-44.243 99.983-49.411 115.729-.29 1.411-.311 2.737-.22 4.008-.183 6.23 2.873 12.589 10.898 17.153 22.259 12.654 106.227 24.933 129.483 27.329.428.811.997 1.547 1.919 2.032 5.688 2.982 31.57 5.214 36.894 6.094 6.674 1.101 26.933 2.702 26.059.17-1.431-4.148-8.942-28.765-30.08-27.66z" fill="#FFAD69"/><path d="M152.117 191.61c-22.614 14.019-61.216 77.786-61.216 77.786l68.741 21.78s52.129-136.545-7.525-99.566z" fill="#4D8DFF"/><path d="M227.013 100.144c-.139 1.654.807 3.07 2.117 3.171 1.316.096 2.492-1.159 2.637-2.813.144-1.65-.808-3.071-2.123-3.172-1.31-.096-2.492 1.16-2.631 2.814zM254.818 101.143c-.139 1.654.808 3.071 2.118 3.172 1.315.095 2.492-1.16 2.636-2.814.139-1.649-.813-3.07-2.123-3.172-1.31-.095-2.492 1.16-2.631 2.814zM220.372 91.33l-2.211-1.425c4.665-7.067 12.496-5.428 12.833-5.355l-.575 2.547c-.253-.052-6.4-1.294-10.047 4.233zM262.845 94.327c-2.762-5.807-8.965-5.489-9.21-5.464l-.183-2.517c.334-.02 8.239-.49 11.764 6.927l-2.371 1.054zM236.63 131.299c-4.486 0-13.112-1.212-18.469-9.688l2.272-1.304c6.493 10.275 18.14 8.401 18.634 8.315l.483 2.48c-.043.01-1.163.197-2.92.197z" fill="#232323"/><path d="m256.66 120.307-12.833-.167.037-2.534 9.255.121-5.713-18.688 2.531-.715 6.723 21.983z" fill="#D88344"/><path d="M194.609 108.105c3.869 8.42 8.721 16.565-3.438 18.077-12.159 1.516-17.816-11.656-18.505-14.237-3.679-13.77 14.325-20.394 21.943-3.84z" fill="#FFAD69"/><path d="M530.319 407.087H18.293c-4.18 0-7.599-3.148-7.599-6.995s3.42-6.994 7.599-6.994h512.026c4.179 0 7.598 3.147 7.598 6.994s-3.419 6.995-7.598 6.995z" fill="#fff"/><path d="M208.422 407.087H15.086c-4.18 0-7.6-3.148-7.6-6.995s3.42-6.994 7.6-6.994h193.336c4.18 0 7.601 3.147 7.601 6.994s-3.421 6.995-7.601 6.995z" fill="#D8D5DB"/><path d="M504.313 382.106h-158.31c-6.043 0-10.054-4.616-8.955-10.305l17.265-89.306c1.104-5.694 6.896-10.304 12.95-10.304h158.305c6.048 0 10.059 4.61 8.96 10.304l-17.265 89.306c-1.104 5.689-6.896 10.305-12.95 10.305z" fill="#2B2B2B"/><path d="M508.591 382.106h-158.31c-6.043 0-10.054-4.616-8.955-10.305l17.264-89.306c1.099-5.694 6.897-10.304 12.945-10.304H529.84c6.054 0 10.064 4.61 8.966 10.304l-17.27 89.306c-1.099 5.689-6.897 10.305-12.945 10.305z" fill="#232323"/><path d="M456.131 345.134h-37.988l6.917-35.972h37.998l-6.927 35.972zm-33.312-38.97-7.885 40.969h43.394l7.938-40.969h-43.447z" fill="#fff"/><path d="M318.687 384.104c0 4.396 4.055 7.994 9.014 7.994h165.911c4.959 0 9.015-3.598 9.015-7.994h-183.94z" fill="#232323"/><path d="M270.563 384.104c0 4.396 4.057 7.994 9.025 7.994h65.359c4.968 0 9.03-3.598 9.03-7.994h-83.414z" fill="#2B2B2B"/><path d="M452.896 108.317c-5.609 0-10.157 4.476-10.157 9.992h20.319c0-5.516-4.547-9.992-10.162-9.992z" fill="#377ADB"/><path d="M453.433 108.317v92.431c0 5.265-4.581 9.49-10.23 9.49h-74.254v-92.381c0-5.27 4.576-9.54 10.188-9.54h74.296z" fill="#4D8DFF"/><path d="m432.556 201.256-74.301-.011c0 5.519 4.577 9.992 10.221 9.992l74.263-.015c-5.644 0-10.183-4.437-10.183-9.966z" fill="#6EA9FF"/><path d="M379.643 124.054h62.027v-2.498h-62.027v2.498zM379.643 133.048h62.027v-2.499h-62.027v2.499zM379.643 143.04h62.027v-2.498h-62.027v2.498zM379.643 152.033h62.027v-2.498h-62.027v2.498zM379.643 162.025h62.027v-2.498h-62.027v2.498zM379.643 171.018h62.027v-2.498h-62.027v2.498zM379.643 181.011h62.027v-2.498h-62.027v2.498zM379.643 190.004h62.027v-2.498h-62.027v2.498z" fill="#fff"/><path d="M556.144 158.322c-14.197 13.265-37.223 13.265-51.425 0-14.197-13.269-14.197-34.778 0-48.047 14.202-13.27 37.228-13.27 51.425 0 14.197 13.269 14.197 34.778 0 48.047z" fill="#FFC84D"/><path d="m530.451 134.297 28.855 26.901c-15.827 14.759-41.888 14.759-57.715 0-6.779-6.325-10.957-14.676-11.797-23.584l40.657-3.317z" fill="#232323"/><path d="m530.431 134.822-40.363 4.471a36.671 36.671 0 0 1 .724-12.972 37.436 37.436 0 0 1 5.206-12.009l34.433 20.51z" fill="#fff"/><path d="M353.218 85.334h-30.564c-3.944 0-7.176-3.015-7.176-6.705V50.072c0-3.685 3.232-6.706 7.176-6.706h30.564c3.944 0 7.176 3.02 7.176 6.706V78.63c0 3.69-3.232 6.705-7.176 6.705z" fill="#232323"/><path d="M343.593 93.328h-30.564c-3.944 0-7.175-3.015-7.175-6.706V58.066c0-3.686 3.231-6.706 7.175-6.706h30.564c3.944 0 7.176 3.02 7.176 6.706v28.556c0 3.691-3.232 6.706-7.176 6.706z" fill="#FF4E4A"/></g></svg>