<svg width="293" height="39" fill="none" xmlns="http://www.w3.org/2000/svg"><path d="M10.928 1.672c3.68 0 6.608.752 8.784 2.256 2.176 1.472 3.264 3.68 3.264 6.624 0 1.792-.384 3.344-1.152 4.656a8.575 8.575 0 0 1-3.072 3.168c1.824.864 3.264 2 4.32 3.408 1.056 1.376 1.584 2.976 1.584 4.8 0 1.92-.352 3.552-1.056 4.896a8.732 8.732 0 0 1-2.784 3.216c-1.152.8-2.464 1.392-3.936 1.776a19.54 19.54 0 0 1-4.56.528H.56V1.672h10.368zm.816 14.448c1.376 0 2.384-.416 3.024-1.248a4.386 4.386 0 0 0 1.008-2.832c0-1.216-.416-2.128-1.248-2.736-.8-.608-1.888-.912-3.264-.912H7.52v7.728h4.224zm.24 14.4c1.536 0 2.832-.304 3.888-.912 1.056-.64 1.584-1.648 1.584-3.024 0-1.024-.288-1.792-.864-2.304-.576-.544-1.328-.912-2.256-1.104a11.638 11.638 0 0 0-2.832-.336H7.52v7.68h4.464zM61.35 1.672V37h-6.96V22.648H38.598V37h-6.96V1.672h6.96v14.256H54.39V1.672h6.96zm19.805 0c4.448 0 7.856 1.088 10.224 3.264 2.4 2.144 3.6 5.024 3.6 8.64 0 2.016-.432 4-1.296 5.952-.832 1.952-2.256 3.504-4.272 4.656L97.619 37h-8.112l-7.44-11.232H77.41V37h-6.96V1.672h10.704zm1.2 17.376c1.408 0 2.496-.288 3.264-.864.8-.608 1.36-1.312 1.68-2.112.32-.832.48-1.584.48-2.256 0-.384-.064-.864-.192-1.44a5.282 5.282 0 0 0-.672-1.824c-.352-.608-.896-1.12-1.632-1.536-.704-.416-1.664-.624-2.88-.624H77.41v10.656h4.944zm17.623.336c0-2.432.464-4.736 1.392-6.912a18.53 18.53 0 0 1 3.84-5.76 18.404 18.404 0 0 1 5.76-3.984c2.176-.96 4.512-1.44 7.008-1.44 2.464 0 4.784.48 6.96 1.44a18.404 18.404 0 0 1 5.76 3.984 17.75 17.75 0 0 1 3.936 5.76c.96 2.176 1.44 4.48 1.44 6.912 0 2.496-.48 4.832-1.44 7.008a17.75 17.75 0 0 1-3.936 5.76 18.53 18.53 0 0 1-5.76 3.84c-2.176.928-4.496 1.392-6.96 1.392-2.496 0-4.832-.464-7.008-1.392a18.53 18.53 0 0 1-5.76-3.84 18.53 18.53 0 0 1-3.84-5.76c-.928-2.176-1.392-4.512-1.392-7.008zm7.2 0c0 2.08.48 3.984 1.44 5.712a11.585 11.585 0 0 0 3.984 4.08c1.664.992 3.536 1.488 5.616 1.488 2.016 0 3.824-.496 5.424-1.488a10.934 10.934 0 0 0 3.84-4.08c.928-1.728 1.392-3.632 1.392-5.712 0-2.144-.48-4.064-1.44-5.76-.96-1.728-2.256-3.088-3.888-4.08-1.632-1.024-3.472-1.536-5.52-1.536-2.048 0-3.888.512-5.52 1.536-1.632.992-2.928 2.352-3.888 4.08-.96 1.696-1.44 3.616-1.44 5.76zM143.013 37V.232h.048l17.904 25.392L179.301.232h.096V37h-6.96V20.152l-11.52 16.368h-.096l-11.088-15.312V37h-6.72zm41.532 0L200.481.28h.384L216.801 37h-8.064l-2.736-6.912h-11.712L191.409 37h-6.864zm12.192-12.768h6.96l-3.408-8.592-3.552 8.592zm20.663-4.848c0-2.432.464-4.736 1.392-6.912a18.53 18.53 0 0 1 3.84-5.76 18.404 18.404 0 0 1 5.76-3.984c2.176-.96 4.512-1.44 7.008-1.44 2.464 0 4.784.48 6.96 1.44a18.404 18.404 0 0 1 5.76 3.984 17.75 17.75 0 0 1 3.936 5.76c.96 2.176 1.44 4.48 1.44 6.912 0 2.496-.48 4.832-1.44 7.008a17.75 17.75 0 0 1-3.936 5.76 18.53 18.53 0 0 1-5.76 3.84c-2.176.928-4.496 1.392-6.96 1.392-2.496 0-4.832-.464-7.008-1.392a18.53 18.53 0 0 1-5.76-3.84 18.53 18.53 0 0 1-3.84-5.76c-.928-2.176-1.392-4.512-1.392-7.008zm7.2 0c0 2.08.48 3.984 1.44 5.712a11.585 11.585 0 0 0 3.984 4.08c1.664.992 3.536 1.488 5.616 1.488 2.016 0 3.824-.496 5.424-1.488a10.934 10.934 0 0 0 3.84-4.08c.928-1.728 1.392-3.632 1.392-5.712 0-2.144-.48-4.064-1.44-5.76-.96-1.728-2.256-3.088-3.888-4.08-1.632-1.024-3.472-1.536-5.52-1.536-2.048 0-3.888.512-5.52 1.536-1.632.992-2.928 2.352-3.888 4.08-.96 1.696-1.44 3.616-1.44 5.76zm67.467 19.056-24.72-22.32.144 20.88h-7.056V.28h.288l24.672 22.656-.144-21.264h7.008V38.44h-.192z" fill="#fff"/></svg>