<svg width="163" height="19" fill="none" xmlns="http://www.w3.org/2000/svg"><path d="M5.464 1.336c1.84 0 3.304.376 4.392 1.128 1.088.736 1.632 1.84 1.632 3.312 0 .896-.192 1.672-.576 2.328a4.287 4.287 0 0 1-1.536 1.584c.912.432 1.632 1 2.16 1.704.528.688.792 1.488.792 2.4 0 .96-.176 1.776-.528 2.448a4.366 4.366 0 0 1-1.392 1.608 6.13 6.13 0 0 1-1.968.888A9.77 9.77 0 0 1 6.16 19H.28V1.336h5.184zm.408 7.224c.688 0 1.192-.208 1.512-.624.336-.416.504-.888.504-1.416 0-.608-.208-1.064-.624-1.368-.4-.304-.944-.456-1.632-.456H3.76V8.56h2.112zm.12 7.2c.768 0 1.416-.152 1.944-.456.528-.32.792-.824.792-1.512 0-.512-.144-.896-.432-1.152-.288-.272-.664-.456-1.128-.552a5.819 5.819 0 0 0-1.416-.168H3.76v3.84h2.232zM33.075 1.336V19h-3.48v-7.176H21.7V19h-3.48V1.336h3.48v7.128h7.896V1.336h3.48zm12.302 0c2.224 0 3.928.544 5.112 1.632 1.2 1.072 1.8 2.512 1.8 4.32 0 1.008-.216 2-.648 2.976-.416.976-1.128 1.752-2.136 2.328L53.61 19h-4.056l-3.72-5.616h-2.328V19h-3.48V1.336h5.352zm.6 8.688c.704 0 1.248-.144 1.632-.432.4-.304.68-.656.84-1.056.16-.416.24-.792.24-1.128 0-.192-.032-.432-.096-.72a2.641 2.641 0 0 0-.336-.912c-.176-.304-.448-.56-.816-.768-.352-.208-.832-.312-1.44-.312h-2.496v5.328h2.472zm11.212.168c0-1.216.232-2.368.696-3.456a9.265 9.265 0 0 1 4.8-4.872 8.583 8.583 0 0 1 3.504-.72c1.232 0 2.392.24 3.48.72a9.202 9.202 0 0 1 2.88 1.992 8.875 8.875 0 0 1 1.968 2.88c.48 1.088.72 2.24.72 3.456 0 1.248-.24 2.416-.72 3.504a8.875 8.875 0 0 1-1.968 2.88 9.265 9.265 0 0 1-2.88 1.92 8.778 8.778 0 0 1-3.48.696 8.838 8.838 0 0 1-3.504-.696 9.265 9.265 0 0 1-2.88-1.92 9.265 9.265 0 0 1-1.92-2.88 8.838 8.838 0 0 1-.696-3.504zm3.6 0c0 1.04.24 1.992.72 2.856a5.792 5.792 0 0 0 1.992 2.04c.832.496 1.768.744 2.808.744 1.008 0 1.912-.248 2.712-.744a5.467 5.467 0 0 0 1.92-2.04c.464-.864.696-1.816.696-2.856 0-1.072-.24-2.032-.72-2.88a5.417 5.417 0 0 0-1.944-2.04c-.816-.512-1.736-.768-2.76-.768-1.024 0-1.944.256-2.76.768a5.417 5.417 0 0 0-1.944 2.04c-.48.848-.72 1.808-.72 2.88zM81.107 19V.616h.024l8.952 12.696L99.25.616h.048V19h-3.48v-8.424l-5.76 8.184h-.048l-5.544-7.656V19h-3.36zm23.165 0L112.24.64h.192L120.4 19h-4.032L115 15.544h-5.856L107.704 19h-3.432zm6.096-6.384h3.48l-1.704-4.296-1.776 4.296zm12.732-2.424c0-1.216.232-2.368.696-3.456a9.265 9.265 0 0 1 4.8-4.872 8.583 8.583 0 0 1 3.504-.72c1.232 0 2.392.24 3.48.72a9.202 9.202 0 0 1 2.88 1.992 8.875 8.875 0 0 1 1.968 2.88c.48 1.088.72 2.24.72 3.456 0 1.248-.24 2.416-.72 3.504a8.875 8.875 0 0 1-1.968 2.88 9.265 9.265 0 0 1-2.88 1.92 8.778 8.778 0 0 1-3.48.696 8.838 8.838 0 0 1-3.504-.696 9.265 9.265 0 0 1-2.88-1.92 9.265 9.265 0 0 1-1.92-2.88 8.838 8.838 0 0 1-.696-3.504zm3.6 0c0 1.04.24 1.992.72 2.856a5.792 5.792 0 0 0 1.992 2.04c.832.496 1.768.744 2.808.744 1.008 0 1.912-.248 2.712-.744a5.467 5.467 0 0 0 1.92-2.04c.464-.864.696-1.816.696-2.856 0-1.072-.24-2.032-.72-2.88a5.417 5.417 0 0 0-1.944-2.04c-.816-.512-1.736-.768-2.76-.768-1.024 0-1.944.256-2.76.768a5.417 5.417 0 0 0-1.944 2.04c-.48.848-.72 1.808-.72 2.88zm36.134 9.528-12.36-11.16.072 10.44h-3.528V.64h.144l12.336 11.328-.072-10.632h3.504V19.72h-.096z" fill="#fff"/></svg>