<svg width="22" height="20" viewBox="0 0 22 20" fill="none" xmlns="http://www.w3.org/2000/svg">
<path id="Star" d="M9.8929 0.85958C10.1927 -0.0606967 11.4947 -0.0606959 11.7945 0.859581L13.5456 6.23398C13.6797 6.64561 14.0635 6.92418 14.4964 6.92418H20.1572C21.1266 6.92418 21.5289 8.16521 20.7439 8.73398L16.169 12.0486C15.8175 12.3033 15.6705 12.7555 15.8049 13.1682L17.5535 18.5349C17.8535 19.4557 16.8002 20.2227 16.016 19.6544L11.4304 16.3321C11.0804 16.0784 10.607 16.0784 10.257 16.3321L5.67144 19.6544C4.88718 20.2227 3.83389 19.4557 4.13391 18.5348L5.88249 13.1682C6.01694 12.7555 5.86986 12.3033 5.5184 12.0486L0.943526 8.73398C0.15852 8.16521 0.56085 6.92418 1.53025 6.92418H7.191C7.62393 6.92418 8.00769 6.6456 8.1418 6.23398L9.8929 0.85958Z" fill="#070707"/>
</svg>
