<svg width="628" height="760" viewBox="0 0 628 760" fill="none" xmlns="http://www.w3.org/2000/svg">
<path d="M426.469 760H333.531C328.559 759.964 323.747 758.237 319.885 755.104C316.024 751.971 313.343 747.617 312.284 742.759L302.219 692.523C271.175 684.793 241.466 672.453 214.081 655.913L171.478 684.239C167.334 687.007 162.363 688.265 157.401 687.803C152.439 687.34 147.787 685.185 144.226 681.698L78.5189 615.893C74.9759 612.303 72.7881 607.595 72.3288 602.572C71.8694 597.549 73.167 592.522 76 588.349L104.229 546.006C87.6537 518.619 75.3213 488.881 67.6509 457.802L17.3714 447.749C12.4872 446.706 8.10427 444.03 4.94607 440.161C1.78788 436.293 0.043197 431.463 0 426.469V333.531C0.0361408 328.559 1.76269 323.747 4.89593 319.885C8.02917 316.024 12.3827 313.343 17.2411 312.284L67.5749 302.187C75.2469 271.114 87.5754 241.38 104.142 213.994L75.7611 171.543C72.9875 167.397 71.726 162.422 72.1886 157.455C72.6513 152.488 74.81 147.832 78.3017 144.27L144.107 78.4754C147.69 74.9266 152.394 72.7313 157.415 72.264C162.436 71.7967 167.464 73.0864 171.641 75.9131L213.983 104.196C241.387 87.6274 271.123 75.2681 302.198 67.5314L312.251 17.3714C313.294 12.4872 315.97 8.10427 319.839 4.94607C323.707 1.78788 328.537 0.043197 333.531 0H426.469C431.441 0.0361408 436.253 1.76269 440.115 4.89593C443.976 8.02917 446.657 12.3827 447.716 17.2411L457.781 67.4771C488.907 75.1812 518.688 87.5499 546.114 104.163L588.457 75.772C592.603 72.9984 597.578 71.7368 602.545 72.1995C607.512 72.6622 612.168 74.8208 615.73 78.3126L681.535 144.107C685.095 147.684 687.298 152.388 687.766 157.413C688.234 162.438 686.937 167.468 684.098 171.641L655.869 214.081C672.415 241.459 684.756 271.166 692.479 302.209L742.542 312.251C747.442 313.276 751.845 315.945 755.02 319.815C758.195 323.686 759.952 328.525 760 333.531V426.469C759.964 431.441 758.237 436.253 755.104 440.115C751.971 443.976 747.617 446.657 742.759 447.716L692.523 457.791C684.8 488.834 672.459 518.541 655.913 545.919L684.25 588.522C687.016 592.668 688.273 597.638 687.808 602.601C687.344 607.563 685.186 612.214 681.698 615.774L615.893 681.579C612.309 685.126 607.606 687.32 602.585 687.787C597.564 688.254 592.536 686.966 588.359 684.141L546.017 655.837C518.607 672.445 488.845 684.814 457.737 692.523L447.749 742.629C446.706 747.513 444.03 751.896 440.161 755.054C436.293 758.212 431.463 759.957 426.469 760ZM213.886 632.135C215.918 632.13 217.91 632.702 219.629 633.786C248.574 652.171 280.473 665.427 313.923 672.969C315.97 673.432 317.839 674.479 319.303 675.982C320.767 677.485 321.765 679.38 322.175 681.438L333.542 738.286H426.371L437.858 681.438C438.268 679.378 439.267 677.482 440.734 675.979C442.2 674.476 444.071 673.43 446.12 672.969C479.571 665.465 511.465 652.211 540.382 633.797C542.185 632.696 544.261 632.126 546.373 632.151C548.486 632.176 550.548 632.795 552.325 633.938L600.519 666.183L666.183 600.541L634.524 553.041C634.115 552.547 633.752 552.016 633.438 551.456C632.493 549.759 632.021 547.839 632.07 545.897C632.12 543.954 632.69 542.061 633.721 540.414C652.111 511.472 665.367 479.572 672.904 446.12C673.367 444.073 674.414 442.205 675.917 440.74C677.419 439.276 679.315 438.278 681.373 437.869L738.286 426.458V333.531L681.438 322.131C679.38 321.722 677.485 320.724 675.982 319.26C674.479 317.795 673.432 315.927 672.969 313.88C665.432 280.428 652.176 248.528 633.786 219.586C632.747 217.944 632.167 216.053 632.108 214.111C632.049 212.169 632.512 210.246 633.449 208.544C633.827 207.851 634.283 207.202 634.806 206.611L666.162 159.459L600.53 93.7731L552.368 126.062C550.592 127.207 548.53 127.828 546.417 127.853C544.304 127.878 542.227 127.306 540.425 126.203C511.508 107.789 479.614 94.5347 446.163 87.0309C444.115 86.5695 442.244 85.524 440.777 84.0209C439.311 82.5178 438.312 80.6217 437.901 78.5623L426.458 21.7143H333.531L322.142 78.5623C321.732 80.6203 320.735 82.5154 319.27 84.0183C317.806 85.5213 315.938 86.5677 313.891 87.0309C280.44 94.5734 248.541 107.829 219.597 126.214C217.822 127.338 215.759 127.923 213.659 127.898C211.558 127.873 209.51 127.239 207.762 126.073L159.448 93.8274L93.7731 159.459L126.073 207.751C127.239 209.499 127.873 211.547 127.898 213.648C127.923 215.748 127.338 217.811 126.214 219.586C107.83 248.508 94.6047 280.402 87.1286 313.847C86.6482 316.012 85.5168 317.977 83.8864 319.479C82.2561 320.982 80.2049 321.949 78.0086 322.251L21.7143 333.542V426.469L78.3777 437.825C80.4946 438.199 82.4544 439.188 84.0126 440.669C85.5707 442.15 86.6583 444.057 87.1394 446.153C94.616 479.598 107.841 511.492 126.225 540.414C127.348 542.187 127.934 544.247 127.911 546.345C127.888 548.444 127.257 550.49 126.095 552.238L93.9577 600.541L159.481 666.238L206.981 634.557C208.934 632.991 211.361 632.137 213.864 632.135H213.886Z" fill="#EAEAEA"/>
</svg>
