<svg width="562" height="573" fill="none" xmlns="http://www.w3.org/2000/svg"><mask id="a" style="mask-type:luminance" maskUnits="userSpaceOnUse" x="0" y="62" width="562" height="511"><path fill-rule="evenodd" clip-rule="evenodd" d="M0 62h562v511H0V62z" fill="#fff"/></mask><g mask="url(#a)"><path fill-rule="evenodd" clip-rule="evenodd" d="M493.52 549.87c-14.542 8.1-31.463 13.95-50.114 17.75-12.38 2.499-25.571 4.149-39.302 4.849-50.493 2.85-108.554-5.899-164.507-23.399a541.624 541.624 0 0 1-37.194-13.05c-90.984-35.399-170.075-93.198-192.24-160.197-40.491-122.298 46.438-210.246 147.099-290.945 40.816-32.75 94.012-28.05 149.046-.4 12.866 6.45 25.787 14.15 38.707 22.9 48.493 32.949 96.499 80.898 137.044 134.197 79.578 104.649 125.638 244.846 11.461 308.295z" fill="#FDE6D6"/></g><path fill-rule="evenodd" clip-rule="evenodd" d="M450.596 156.249c-9.38-17.556-12.815-39.774 5.994-46.928 21.007-7.986 54.477 4.928 64.219 34.23 6.227 18.724 4.088 44.863-13.117 54.909-14.721 8.603-45.588-20.679-57.096-42.211z" fill="#E8E5EA"/><path fill-rule="evenodd" clip-rule="evenodd" d="M153.332 66.313h-.047a182.14 182.14 0 0 0-10.619-.376c-.373 0-.666-.28-.666-.624.005-.346.298-.626.666-.626h.006c3.507.02 7.11.145 10.708.376.368.025.64.325.619.67-.027.33-.32.58-.667.58zm-32.661 1.336c-.327 0-.616-.225-.664-.535-.053-.34.198-.66.568-.71 3.458-.47 7.066-.82 10.711-1.045.418-.065.691.24.712.585.027.34-.251.64-.621.66-3.613.225-7.184.575-10.61 1.035a.625.625 0 0 1-.096.01zm53.657 1.227a.852.852 0 0 1-.118-.01c-3.534-.59-7.106-1.09-10.618-1.5-.371-.045-.635-.355-.586-.7.048-.34.355-.57.753-.54 3.539.41 7.132.92 10.687 1.51.361.06.608.385.544.725-.059.3-.345.515-.662.515zm-74.64 3.57c-.292 0-.562-.17-.656-.44-.115-.33.088-.68.452-.78 3.484-1 7.072-1.89 10.672-2.655.363-.08.743.13.825.465.088.335-.143.67-.512.75-3.566.76-7.127 1.645-10.572 2.63a.756.756 0 0 1-.21.03zm95.63.882a.736.736 0 0 1-.18-.02 271.179 271.179 0 0 0-10.602-2.4c-.372-.075-.601-.41-.519-.75.082-.335.426-.55.814-.47 3.505.72 7.092 1.53 10.667 2.41.361.095.58.435.476.77-.082.275-.355.46-.656.46zm20.984 6.373a.76.76 0 0 1-.234-.035 325.53 325.53 0 0 0-10.578-3.145c-.368-.105-.574-.455-.457-.78.111-.33.507-.52.87-.41a328.53 328.53 0 0 1 10.628 3.155c.363.115.558.475.429.8-.1.255-.368.415-.658.415zM79.662 79a.677.677 0 0 1-.59-.32c-.165-.281-.037-.628.292-.776a133.93 133.93 0 0 1 9.726-3.858c.33-.13.723.023.861.32.138.296-.026.633-.367.754a131.966 131.966 0 0 0-9.62 3.815.772.772 0 0 1-.302.065zm156.683 8a.686.686 0 0 1-.256-.05 330.06 330.06 0 0 0-9.674-3.751.617.617 0 0 1-.371-.807c.136-.319.512-.468.846-.354a332.603 332.603 0 0 1 9.711 3.766.616.616 0 0 1 .349.817.666.666 0 0 1-.605.379zM61.661 90a.667.667 0 0 1-.524-.241.61.61 0 0 1 .122-.884 115.225 115.225 0 0 1 8.724-5.78.692.692 0 0 1 .915.195c.196.297.1.683-.206.864a115.353 115.353 0 0 0-8.63 5.72.678.678 0 0 1-.401.126zm194.668 5a.65.65 0 0 1-.294-.07 381.443 381.443 0 0 0-9.648-4.639.682.682 0 0 1-.326-.895c.155-.34.55-.49.887-.334a413.028 413.028 0 0 1 9.68 4.654.677.677 0 0 1-.299 1.284zm-210.646 9a.72.72 0 0 1-.454-.152.538.538 0 0 1-.054-.837 110.248 110.248 0 0 1 7.676-6.848.75.75 0 0 1 .962.024.538.538 0 0 1-.033.842 114.36 114.36 0 0 0-7.589 6.771.71.71 0 0 1-.508.2zm229.633 0a.723.723 0 0 1-.333-.08 451.07 451.07 0 0 0-9.616-4.745c-.333-.16-.464-.537-.289-.84.18-.304.596-.424.924-.264a461.243 461.243 0 0 1 9.648 4.765c.328.169.448.547.262.846a.692.692 0 0 1-.596.318zm18.982 10a.815.815 0 0 1-.37-.088 506.342 506.342 0 0 0-9.581-4.829c-.336-.162-.448-.52-.247-.794.191-.284.623-.372.959-.205a495.135 495.135 0 0 1 9.614 4.843c.325.171.426.529.219.803-.129.172-.359.27-.594.27zm-261.657 6a.619.619 0 0 1-.338-.099.668.668 0 0 1-.21-.901c1.802-3 3.741-5.943 5.752-8.738a.64.64 0 0 1 .896-.137.658.658 0 0 1 .133.912 126.032 126.032 0 0 0-5.69 8.649.623.623 0 0 1-.543.314zm278.705 6a.693.693 0 0 1-.371-.112 457.427 457.427 0 0 0-8.679-5.719.629.629 0 0 1-.188-.885.673.673 0 0 1 .904-.183 459.528 459.528 0 0 1 8.7 5.729.628.628 0 0 1 .173.889.676.676 0 0 1-.539.281zm17.98 11a.725.725 0 0 1-.403-.121 542.462 542.462 0 0 0-8.645-5.78c-.302-.199-.367-.578-.151-.845a.716.716 0 0 1 .942-.136 484.534 484.534 0 0 1 8.667 5.794.571.571 0 0 1 .129.85.712.712 0 0 1-.539.238zm-306.64 1a.838.838 0 0 1-.264-.044c-.351-.13-.516-.488-.367-.793a124.754 124.754 0 0 1 4.646-8.829c.17-.3.582-.421.923-.266.34.15.472.517.302.813a125.032 125.032 0 0 0-4.608 8.751c-.11.232-.363.368-.632.368zm323.62 12a.733.733 0 0 1-.443-.148 480.02 480.02 0 0 0-8.602-6.678.639.639 0 0 1-.111-.926.722.722 0 0 1 .968-.111 471.088 471.088 0 0 1 8.63 6.694.642.642 0 0 1 .094.931.706.706 0 0 1-.536.238zm-330.288 7a.634.634 0 0 1-.17-.02.643.643 0 0 1-.435-.788c.91-3.311 1.91-6.595 2.98-9.758.115-.33.475-.519.795-.397.325.117.5.478.39.809a170.276 170.276 0 0 0-2.96 9.691.626.626 0 0 1-.6.463zm346.341 6a.64.64 0 0 1-.432-.166 457 457 0 0 0-7.708-6.731.622.622 0 0 1-.062-.888.65.65 0 0 1 .904-.061 463.876 463.876 0 0 1 7.729 6.746.624.624 0 0 1 .041.893.646.646 0 0 1-.472.207zM10.552 176a.617.617 0 0 1-.615-.725c.555-3.3 1.195-6.591 1.9-9.787a.635.635 0 0 1 .745-.476c.335.074.55.407.475.739-.7 3.177-1.335 6.452-1.89 9.728a.625.625 0 0 1-.615.521zm367.782 1a.677.677 0 0 1-.47-.18 469.933 469.933 0 0 0-7.657-6.775.568.568 0 0 1-.021-.859.714.714 0 0 1 .939-.019 466.439 466.439 0 0 1 7.679 6.794.57.57 0 0 1 0 .859.677.677 0 0 1-.47.18zm14.966 15a.712.712 0 0 1-.512-.215 447.993 447.993 0 0 0-7.599-7.679.633.633 0 0 1 .023-.924.727.727 0 0 1 .985.021 413.524 413.524 0 0 1 7.621 7.701.62.62 0 0 1-.051.923.695.695 0 0 1-.467.173zM8.006 196h-.05a.62.62 0 0 1-.575-.657c.265-3.307.6-6.608.995-9.806.04-.334.32-.56.695-.535a.612.612 0 0 1 .545.682 237.49 237.49 0 0 0-.99 9.752.613.613 0 0 1-.62.564zm399.343 11a.667.667 0 0 1-.504-.232 383.68 383.68 0 0 0-6.689-7.725.615.615 0 0 1 .073-.888.657.657 0 0 1 .914.065 375.735 375.735 0 0 1 6.71 7.751.617.617 0 0 1-.094.888.65.65 0 0 1-.41.141zm-399.96 9a.625.625 0 0 1-.624-.615c.015-3.276.09-6.571.22-9.798a.602.602 0 0 1 .65-.586.617.617 0 0 1 .6.635c-.13 3.212-.205 6.493-.22 9.754 0 .337-.28.61-.625.61zm413.925 6a.708.708 0 0 1-.557-.248 348.465 348.465 0 0 0-6.614-7.77c-.232-.267-.177-.646.126-.855a.744.744 0 0 1 .964.112 338.083 338.083 0 0 1 6.637 7.799c.22.272.154.651-.149.845a.737.737 0 0 1-.407.117zM7.72 236a.623.623 0 0 1-.625-.576c-.2-3.31-.35-6.611-.44-9.794a.617.617 0 0 1 .605-.63h.02c.335 0 .615.264.625.596.09 3.173.24 6.454.44 9.755a.624.624 0 0 1-.59.649H7.72zm424.634 3a.649.649 0 0 1-.549-.301 313.232 313.232 0 0 0-5.695-8.682.657.657 0 0 1 .171-.904.65.65 0 0 1 .902.171 321.12 321.12 0 0 1 5.716 8.718.654.654 0 0 1-.197.899.65.65 0 0 1-.348.099zm11.934 17a.735.735 0 0 1-.625-.33 268.931 268.931 0 0 0-5.569-8.726c-.193-.295-.079-.675.256-.856.33-.18.774-.075.973.226a265.848 265.848 0 0 1 5.591 8.765c.188.3.057.686-.29.846a.778.778 0 0 1-.336.075zm-434.276 0a.618.618 0 0 1-.62-.544c-.395-3.3-.735-6.599-1.025-9.786a.62.62 0 0 1 .565-.667c.405-.034.65.221.68.554.285 3.182.63 6.467 1.02 9.762a.614.614 0 0 1-.55.676c-.026.005-.046.005-.07.005zm443.297 18c-.265 0-.519-.135-.635-.362a212.617 212.617 0 0 0-4.605-8.768c-.166-.299-.022-.662.32-.807.337-.149.751-.024.922.276a221.024 221.024 0 0 1 4.633 8.816c.149.309-.011.661-.359.797a.89.89 0 0 1-.276.048zm-440.043 2a.624.624 0 0 1-.615-.518 355.306 355.306 0 0 1-1.535-9.779.615.615 0 0 1 .53-.695.626.626 0 0 1 .705.522c.455 3.181.97 6.461 1.53 9.75a.615.615 0 0 1-.615.72zm447.884 17a.623.623 0 0 1-.595-.442c-.995-3.196-2.1-6.449-3.29-9.681a.646.646 0 0 1 .365-.827c.32-.144.68.036.805.37 1.2 3.253 2.31 6.531 3.31 9.742a.65.65 0 0 1-.405.812.612.612 0 0 1-.19.026zm-443.651 3a.624.624 0 0 1-.61-.492 406.29 406.29 0 0 1-2-9.764.613.613 0 0 1 .495-.725c.33-.09.665.154.73.491a408.315 408.315 0 0 0 1.995 9.74.615.615 0 0 1-.48.735.545.545 0 0 1-.13.015zm449.105 16a.625.625 0 0 1-.61-.51c-.62-3.182-1.36-6.449-2.205-9.711a.622.622 0 0 1 .45-.759.63.63 0 0 1 .76.449c.85 3.282 1.6 6.574 2.22 9.787a.624.624 0 0 1-.495.729.493.493 0 0 1-.12.015zm-444.888 3a.63.63 0 0 1-.605-.471c-.845-3.24-1.66-6.495-2.435-9.754a.627.627 0 0 1 .46-.758.63.63 0 0 1 .755.462c.78 3.254 1.585 6.499 2.43 9.734a.63.63 0 0 1-.445.767c-.055.01-.11.02-.16.02zm447.229 17a.624.624 0 0 1-.625-.584c-.17-3.203-.465-6.479-.885-9.732a.61.61 0 0 1 .54-.681c.375-.03.655.196.7.529.42 3.282.725 6.588.895 9.821a.619.619 0 0 1-.59.647h-.035zm-440.952 3a.622.622 0 0 1-.595-.427l-.15-.471a428.971 428.971 0 0 1-2.84-9.333.6.6 0 0 1 .43-.747c.345-.088.68.097.77.417.91 3.098 1.864 6.235 2.84 9.313l.14.461a.6.6 0 0 1-.41.758.626.626 0 0 1-.186.029zm440.27 17h-.04a.618.618 0 0 1-.58-.656c.23-3.2.39-6.478.465-9.747.005-.338.25-.582.64-.597.34.005.615.284.61.626a196.917 196.917 0 0 1-.47 9.806.619.619 0 0 1-.625.568zm-433.18 2a.627.627 0 0 1-.59-.43 691.63 691.63 0 0 1-3.175-9.735.643.643 0 0 1 .405-.804.62.62 0 0 1 .785.409 706.175 706.175 0 0 0 3.17 9.715.65.65 0 0 1-.39.814.694.694 0 0 1-.204.031zm430.67 18c-.035 0-.07-.005-.11-.01a.622.622 0 0 1-.505-.715 185.83 185.83 0 0 0 1.49-9.732c.04-.34.37-.582.695-.538a.623.623 0 0 1 .545.691c-.415 3.306-.92 6.598-1.5 9.791a.624.624 0 0 1-.615.513zm-423.521 1c-.25 0-.49-.16-.58-.419a693.638 693.638 0 0 1-3.47-9.713.657.657 0 0 1 .375-.833c.33-.114.68.057.8.393a664.343 664.343 0 0 0 3.46 9.692c.12.337-.04.709-.36.833a.586.586 0 0 1-.225.047zm8.146 19a.619.619 0 0 1-.572-.402 615.696 615.696 0 0 1-3.761-9.706.66.66 0 0 1 .348-.846.615.615 0 0 1 .806.36 661.033 661.033 0 0 0 3.752 9.69.657.657 0 0 1-.334.852.573.573 0 0 1-.239.052zm410.817 0a.599.599 0 0 1-.18-.025.632.632 0 0 1-.415-.787c.95-3.187 1.825-6.455 2.59-9.703a.628.628 0 0 1 .755-.469.637.637 0 0 1 .465.761 175.494 175.494 0 0 1-2.615 9.774.627.627 0 0 1-.6.449zm-401.9 18c-.264 0-.516-.13-.634-.351a531.608 531.608 0 0 1-4.604-8.808c-.152-.303.01-.659.365-.794.353-.125.769.005.926.313a489.175 489.175 0 0 0 4.587 8.789c.163.303.006.659-.342.798a.78.78 0 0 1-.298.053zm394.336 1a.576.576 0 0 1-.255-.057c-.315-.142-.455-.528-.32-.857 1.33-3.155 2.58-6.405 3.73-9.659a.622.622 0 0 1 .805-.387c.32.126.485.502.365.841a176.177 176.177 0 0 1-3.755 9.727.623.623 0 0 1-.57.392zM68.342 428a.672.672 0 0 1-.591-.332 552.154 552.154 0 0 1-4.685-8.793c-.159-.303-.021-.67.311-.816.338-.142.724-.02.882.283a525.096 525.096 0 0 0 4.67 8.774c.163.303.037.669-.29.82a.7.7 0 0 1-.297.064zm375.379 0a.789.789 0 0 1-.368-.085c-.345-.179-.454-.558-.253-.853a158.793 158.793 0 0 0 5.542-8.722c.184-.309.609-.429.965-.269.356.159.493.533.315.837a160.66 160.66 0 0 1-5.587 8.788.746.746 0 0 1-.614.304zm-12.014 17a.817.817 0 0 1-.431-.12c-.305-.196-.368-.575-.135-.839a177.587 177.587 0 0 0 6.564-7.775c.22-.274.657-.35.985-.163.323.187.408.561.187.834a172.944 172.944 0 0 1-6.604 7.828.766.766 0 0 1-.566.235zm-352.432 1a.749.749 0 0 1-.633-.318 456.132 456.132 0 0 1-5.557-8.774c-.186-.303-.058-.681.296-.841.36-.149.794-.044.98.259a479.976 479.976 0 0 0 5.546 8.748c.197.299.07.682-.278.846a.79.79 0 0 1-.354.08zm338.434 14a.743.743 0 0 1-.484-.175.6.6 0 0 1-.034-.907 219.87 219.87 0 0 0 7.551-7.693.778.778 0 0 1 1.003-.077.605.605 0 0 1 .086.912 225.205 225.205 0 0 1-7.597 7.739.762.762 0 0 1-.525.201zm-328.393 3a.7.7 0 0 1-.577-.3 469.567 469.567 0 0 1-5.648-8.739.62.62 0 0 1 .245-.875.712.712 0 0 1 .932.229 423.82 423.82 0 0 0 5.631 8.713.612.612 0 0 1-.223.875.692.692 0 0 1-.36.097zm313.344 11a.672.672 0 0 1-.494-.208.593.593 0 0 1 .053-.871 242.406 242.406 0 0 0 7.666-6.748.69.69 0 0 1 .925.01.59.59 0 0 1-.01.876 246.128 246.128 0 0 1-7.704 6.783.692.692 0 0 1-.436.158zm-301.297 6a.628.628 0 0 1-.525-.283 364.048 364.048 0 0 1-5.73-8.708.658.658 0 0 1 .183-.905.633.633 0 0 1 .883.194 379.388 379.388 0 0 0 5.71 8.671.66.66 0 0 1-.159.911.628.628 0 0 1-.362.12zm284.325 7a.723.723 0 0 1-.545-.229c-.232-.257-.176-.622.126-.818a311.88 311.88 0 0 0 8.609-5.816.762.762 0 0 1 .963.075c.242.252.204.617-.088.823a294.915 294.915 0 0 1-8.647 5.843.75.75 0 0 1-.418.122zm-271.37 9a.72.72 0 0 1-.533-.23 340.891 340.891 0 0 1-6.652-7.797c-.223-.269-.158-.655.141-.856.305-.195.73-.142.958.127a307.36 307.36 0 0 0 6.62 7.763.573.573 0 0 1-.109.861.732.732 0 0 1-.425.132zm253.34 3a.68.68 0 0 1-.548-.282.61.61 0 0 1 .185-.871 363.09 363.09 0 0 0 8.664-5.728.674.674 0 0 1 .917.146.615.615 0 0 1-.148.881 369.336 369.336 0 0 1-8.701 5.748.687.687 0 0 1-.369.106zm-17.953 10a.755.755 0 0 1-.607-.282c-.196-.273-.09-.63.247-.796a457.559 457.559 0 0 0 9.577-4.837c.332-.162.764-.088.972.181.202.273.107.629-.219.8a504.035 504.035 0 0 1-9.611 4.851.818.818 0 0 1-.359.083zm-220.419 3a.748.748 0 0 1-.518-.206 273.452 273.452 0 0 1-7.599-7.735.602.602 0 0 1 .08-.906c.302-.227.752-.201 1.002.072a278.892 278.892 0 0 0 7.559 7.694.6.6 0 0 1-.04.911.754.754 0 0 1-.484.17zm201.401 7a.7.7 0 0 1-.604-.32c-.181-.301-.055-.675.274-.837a558.87 558.87 0 0 0 9.619-4.763c.329-.167.746-.064.938.232.182.295.066.669-.263.842a604.617 604.617 0 0 1-9.64 4.772.762.762 0 0 1-.324.074zm-187.346 6a.673.673 0 0 1-.438-.158 201.18 201.18 0 0 1-7.705-6.789.583.583 0 0 1-.005-.871.69.69 0 0 1 .928-.005 203.762 203.762 0 0 0 7.663 6.75.59.59 0 0 1 .047.871.691.691 0 0 1-.49.202zm168.334 4a.669.669 0 0 1-.604-.359.643.643 0 0 1 .302-.874c3.239-1.55 6.456-3.11 9.646-4.697a.695.695 0 0 1 .907.281.644.644 0 0 1-.292.879 671.265 671.265 0 0 1-9.662 4.702.68.68 0 0 1-.297.068zm-19.011 9a.661.661 0 0 1-.602-.398.68.68 0 0 1 .325-.9c3.235-1.532 6.46-3.08 9.657-4.64a.674.674 0 0 1 .891.322.692.692 0 0 1-.315.91 848.148 848.148 0 0 1-9.679 4.641.616.616 0 0 1-.277.065zm-132.344 0a.75.75 0 0 1-.383-.111 171.403 171.403 0 0 1-8.682-5.818c-.292-.208-.34-.588-.108-.848a.743.743 0 0 1 .951-.092 169.068 169.068 0 0 0 8.611 5.771c.308.192.384.568.168.843a.714.714 0 0 1-.557.255zm112.342 7a.676.676 0 0 1-.609-.354c-.142-.298.011-.647.344-.779 3.238-1.261 6.466-2.531 9.672-3.816.334-.132.725 0 .873.298.149.297 0 .647-.328.779a1154.924 1154.924 0 0 1-9.688 3.82.726.726 0 0 1-.264.052zm-93.345 3a.737.737 0 0 1-.307-.065 137.851 137.851 0 0 1-9.678-4.783c-.324-.174-.428-.556-.236-.849.192-.293.614-.393.943-.214a139.937 139.937 0 0 0 9.579 4.734c.34.154.477.521.313.829a.695.695 0 0 1-.614.348zm73.335 5a.65.65 0 0 1-.612-.412.61.61 0 0 1 .392-.794 97.138 97.138 0 0 0 4.617-1.717c1.679-.674 3.362-1.349 5.041-2.029.329-.129.716.01.857.323a.606.606 0 0 1-.34.813c-1.683.685-3.367 1.365-5.051 2.04a101.21 101.21 0 0 1-4.679 1.736.712.712 0 0 1-.225.04zm-53.351 2.659c-.055 0-.117-.01-.172-.02-3.54-.84-7.13-1.88-10.675-3.09-.363-.12-.547-.485-.407-.805.139-.325.54-.485.897-.36 3.506 1.19 7.052 2.22 10.536 3.045.373.09.596.43.496.76-.084.285-.362.47-.675.47zm32.377 2.308c-.345 0-.637-.24-.675-.56-.037-.345.233-.65.6-.69a91.803 91.803 0 0 0 10.567-1.665c.378-.085.729.135.81.465.091.335-.135.675-.497.75a93.817 93.817 0 0 1-10.735 1.695c-.027.005-.048.005-.07.005zm-11.348-.432h-.011a94.17 94.17 0 0 1-10.749-.825c-.364-.05-.616-.365-.563-.705.048-.345.354-.59.756-.53 3.522.475 7.082.745 10.583.81.364.01.664.295.654.64-.006.34-.306.61-.67.61z" fill="#D8D5DB"/><mask id="b" style="mask-type:luminance" maskUnits="userSpaceOnUse" x="50" y="82" width="393" height="491"><path fill-rule="evenodd" clip-rule="evenodd" d="M50 82h393v491H50V82z" fill="#fff"/></mask><g mask="url(#b)"><path fill-rule="evenodd" clip-rule="evenodd" d="M416 494.974c-3.052.751-6.104 2.204-8.556 4.76-1.417 1.503-3.27 4.31-4.904 7.266-.382-10.122-.763-18.741-1.145-24.053 1.036-.1 1.635-.1 1.635-.1 0-1.203 0-2.405-.055-3.708-.272-24.403-3.16-66.846-6.975-109.139 1.362 2.606 2.67 5.011 3.924 7.166.054.751.054 1.503.218 2.305 2.016 10.122 12.098 66.145 15.041 99.919.545 6.063.817 11.374.817 15.584zm24.149-123.73v-.1c-3.134-9.447-13.67-37.587-25.664-65.526l13.291-4.199s-38.901-64.026-61.648-78.121c-.054-.05-.108-.05-.162-.1-7.996-6.897-19.667-11.396-37.118-13.245-.108-13.345.972-35.837 2.215-53.081 8.969-1.899 13.291-11.645 13.885-13.794 1.243-4.399.108-8.048-2.215-10.397.703-5.448 1.891-16.044 1.567-25.14-.27-8.347-1.729-15.395-5.943-16.244.054-.15.162-.25.216-.35 1.405-4.149-1.243-8.747-1.351-8.947l-2.377 1.2c.648 1.05 1.999 4.348 1.134 6.947-3.998-4.099-16.425-5.748-30.364-5.498-19.505.3-41.873 4.448-47.925 10.946-4.214 4.498-2.971 6.947 1.405 8.047a91.304 91.304 0 0 0-1.026 11.196 85.66 85.66 0 0 0-1.837 4.848c-1.567 1-3.08 2.449-4.215 4.698l2.486 1.05c.054-.1.108-.15.162-.25-.649 2.549-1.243 5.148-1.675 7.997-4.863 30.989-12.805 61.827 20.423 62.177a99.637 99.637 0 0 1-.648 10.097c-.27 2.549-.649 4.948-1.135 7.097-12.643 2.849-22.53 7.347-29.392 13.395-24.422 18.643-55.273 78.521-55.273 78.521l10.374 4.748c-7.672 13.795-15.236 27.89-20.909 39.336-26.259-16.794-72.4-47.932-86.016-61.577 0-.05-.054-.05-.108-.1.54-5.248-.486-13.745-1.999-18.544 0-.099 0-.199-.054-.349-.108-.25-.216-.4-.27-.6-.108-.3-.216-.65-.324-.9-.27-.65-.487-1.099-.703-1.499-3.62-7.398-9.347-10.297-12.75-20.143-1.784-5.248-6.16-3.099-7.835.4l-12.86-26.59L50 220.099l16.533 34.338c-3.89-1.6-7.294-2.549-9.617-1.8-3.188 1-6.7 15.844-5.187 21.142 1.513 5.249 17.02 22.142 22.8 25.041.433.2.919.35 1.351.4 9.347 12.096 71.32 80.171 96.227 91.966 15.453 7.248 27.069 1 30.905-8.297 4.971-7.397 14.102-21.842 24.044-38.535-3.242 46.482-9.456 98.863-21.18 135.6 1.08.15 2.215.3 3.35.449-3.296 15.245-5.727 35.288-7.456 55.63a540.821 540.821 0 0 0 37.172 13.045c55.921 17.494 113.949 26.241 164.413 23.392.81-2.3 1.188-4.699 1.134-7.248-.27-9.996-.594-22.242-.918-34.337 2.701 6.498 6.213 11.846 9.023 13.195 2.971 1.4 17.019-6.548 20.099-11.296 3.025-4.598 5.349-26.69 3.566-32.588-.108-.4-.432-.7-.649-1.049.649-3.299 1.621-10.497 2.702-19.893 3.458-31.688 7.564-88.617 1.837-108.01z" fill="#D1CDD3"/></g><path fill-rule="evenodd" clip-rule="evenodd" d="m303 275.742-35.294-21.312s-35.078 59.734-52.376 94.683c-26.296-16.849-72.531-48.045-86.18-61.753-.038-.035-.076-.055-.114-.09.536-5.27-.493-13.762-1.992-18.577-.033-.125-.038-.225-.087-.36-.076-.226-.179-.406-.26-.622-.108-.28-.205-.636-.314-.876a39.919 39.919 0 0 0-.709-1.523c-3.627-7.37-9.377-10.316-12.766-20.155-2.361-6.869-9.166-1.108-8.495 3.847 0 0 1.012 3.217 2.155 6.313-4.499-1.984-8.386-3.187-11.007-2.37-3.173.987-6.719 15.887-5.197 21.212 1.494 5.241 17.054 22.184 22.879 25.1.423.21.867.326 1.321.391 9.394 12.139 71.493 80.379 96.457 92.163 15.462 7.299 27.075 1.012 30.957-8.287 11.803-17.73 47.519-75.435 61.022-107.784z" fill="#FFAD69"/><path fill-rule="evenodd" clip-rule="evenodd" d="M308.143 239.351C313.506 264.223 291.947 335 291.947 335L226 305.159s67.998-131.42 82.143-65.808z" fill="#EA3939"/><path fill-rule="evenodd" clip-rule="evenodd" d="M443 565.242c0 .798 0 1.595-.108 2.393-12.385 2.493-25.581 4.138-39.318 4.836-50.514 2.842-108.598-5.883-164.574-23.333 1.947-26.623 4.976-54.392 9.627-73.138l154.784 2.842 12.115.249 23.039.399 1.352.05c1.082 11.367 2.38 57.384 3.083 85.702z" fill="#232323"/><path fill-rule="evenodd" clip-rule="evenodd" d="M355.12 209.122c42.362 1.293 56.681 14.525 63.984 37.411C427.394 272.518 442 429.468 442 481.913c0 0-126.77 8.311-197-2.341 22.017-68.831 24.4-192.604 24.843-229.475.329-27.668 31.574-42.617 85.277-40.975z" fill="#FF4E4A"/><path fill-rule="evenodd" clip-rule="evenodd" d="M317.561 145.263c-4.128-2.898-25.648-.269-19.447-41.188 2.256-14.93 17.271-4.965 27.898-2.973 10.627 1.992 3.871 44.898 3.871 44.898l-12.322-.737z" fill="#232323"/><path fill-rule="evenodd" clip-rule="evenodd" d="M371 135c-1.798 10.928-5.395 70.053-3.897 83.78 1.497 13.733-69.557 17.656-60.265 2.524 9.298-15.132 2.701-65.291 2.701-65.291L371 135z" fill="#FFAD69"/><path fill-rule="evenodd" clip-rule="evenodd" d="M366.977 137 310 156.311s3.847 29.161 1.526 49.689c43.445-3.11 54.596-53.901 55.332-63.682.119-1.842.178-3.62.119-5.318z" fill="#D88344"/><path fill-rule="evenodd" clip-rule="evenodd" d="M291.49 133.63c-5.267 33.7-14.209 67.3 29.793 61.769 44.008-5.531 50.845-57.907 50.715-67.786-.685-52.717-70.152-60.252-80.508 6.017z" fill="#FFAD69"/><path fill-rule="evenodd" clip-rule="evenodd" d="M377.015 91.21c.054-.129.173-.218.221-.347 1.428-4.101-1.201-8.67-1.315-8.863l-2.371 1.178c.022.04 2.177 3.822 1.121 6.9-9.624-9.808-67.762-5.627-78.103 5.452-13.137 14.076 27.267 7.729 50.034 4.175 3.19 12.297 17.642 32.662 21.808 35.554l12.453.741s6.795-42.632-3.848-44.79z" fill="#232323"/><path fill-rule="evenodd" clip-rule="evenodd" d="M474.595 499.843c2.798-14.4 12.013-102.854 4.554-128.001-.011-.04-.006-.08-.017-.125-5.207-15.74-31.065-83.591-49.787-115.717L389 266.967s33.766 81.625 50.138 110.494c.049.776.049 1.536.211 2.337 2.409 11.908 15.87 87.463 15.719 115.292-2.982.77-6.018 2.221-8.432 4.773-3.074 3.252-8.432 12.594-8.054 16.736 1.075 11.823 8.167 25.908 13.023 28.234 2.971 1.421 16.972-6.569 20.046-11.277 3.025-4.633 5.358-26.733 3.576-32.627-.119-.405-.411-.731-.632-1.086z" fill="#FFAD69"/><path fill-rule="evenodd" clip-rule="evenodd" d="M404.669 223.357C427.325 237.387 466 301.203 466 301.203L397.13 323s-52.227-136.65 7.539-99.643z" fill="#FF4E4A"/><path fill-rule="evenodd" clip-rule="evenodd" d="M328.723 131.818c.13 1.657-.755 3.076-1.985 3.177-1.23.096-2.33-1.162-2.46-2.818-.135-1.651.755-3.075 1.985-3.171 1.225-.101 2.325 1.156 2.46 2.812zM300.723 132.818c.13 1.657-.755 3.076-1.985 3.177-1.225.096-2.33-1.162-2.46-2.813-.135-1.656.755-3.08 1.985-3.176 1.225-.101 2.33 1.156 2.46 2.812zM335.76 123c-3.715-5.575-10.108-4.248-10.172-4.237l-.588-2.55c.337-.068 8.28-1.714 13 5.361L335.76 123zM293.418 126 291 124.949c3.59-7.433 11.659-6.953 12-6.938l-.186 2.522c-.251-.016-6.584-.334-9.396 5.467zM320.003 163c-1.813 0-2.959-.187-3.003-.197l.497-2.482c.502.086 12.488 1.966 19.166-8.321l2.337 1.304c-5.51 8.483-14.383 9.696-18.997 9.696z" fill="#232323"/><path fill-rule="evenodd" clip-rule="evenodd" d="m299 152 6.811-22 2.564.71-5.788 18.707 9.376-.116.037 2.537-13 .162z" fill="#D88344"/><path fill-rule="evenodd" clip-rule="evenodd" d="M124 284.547 120.491 286 89 220.453 92.503 219 124 284.547z" fill="#232323"/><path fill-rule="evenodd" clip-rule="evenodd" d="M361.347 139.788c-3.912 8.426-8.807 16.578 3.472 18.091 12.28 1.517 17.992-11.665 18.687-14.249 3.711-13.776-14.471-20.411-22.159-3.842z" fill="#FFAD69"/><path fill-rule="evenodd" clip-rule="evenodd" d="M173.992 0H47.013C42.59 0 39 3.32 39 7.422v41.907c0 4.1 3.589 7.427 8.013 7.427h7.733l8.72 10.798c1.938 2.4 6.001 1.685 6.86-1.206l2.827-9.592h100.839c4.425 0 8.008-3.326 8.008-7.427V7.422C182 3.321 178.417 0 173.992 0z" fill="#4D8DFF"/><mask id="c" style="mask-type:luminance" maskUnits="userSpaceOnUse" x="0" y="0" width="562" height="573"><path fill-rule="evenodd" clip-rule="evenodd" d="M0 573h562V0H0v573z" fill="#fff"/></mask><g mask="url(#c)" fill-rule="evenodd" clip-rule="evenodd"><path d="M51 13.75h112v-2.5H51v2.5zM51 25.75h74v-2.5H51v2.5zM51 36.75h93v-2.5H51v2.5z" fill="#fff"/><path d="M144.002 140H46.998c-4.42 0-7.998 3.326-7.998 7.422v41.907c0 4.101 3.579 7.427 7.998 7.427h7.723l8.71 10.798c1.934 2.4 5.998 1.685 6.85-1.206l2.823-9.592h70.898c4.419 0 7.998-3.326 7.998-7.427v-41.907c0-4.096-3.579-7.422-7.998-7.422z" fill="#FF4E4A"/><path d="M51 153.75h52v-2.5H51v2.5zM114 153.75h18v-2.5h-18v2.5zM51 165.75h37v-2.5H51v2.5zM51 177.75h71v-2.5H51v2.5z" fill="#fff"/><path d="M111.992 70h118.021c4.411 0 7.987 3.326 7.987 7.422v41.911c0 4.096-3.576 7.422-7.987 7.422h-7.723l-8.703 10.803c-1.934 2.395-5.994 1.68-6.84-1.211l-2.827-9.592h-91.928c-4.416 0-7.992-3.326-7.992-7.422V77.422c0-4.096 3.576-7.422 7.992-7.422z" fill="#FFC84D"/><path d="M178 83.75h47v-2.5h-47v2.5zM122 95.75h103v-2.5H122v2.5zM175 106.75h51v-2.5h-51v2.5zM143 106.75h23v-2.5h-23v2.5zM317.497 276C296.823 276 280 291.478 280 310.498 280 329.522 296.823 345 317.497 345c20.68 0 37.503-15.478 37.503-34.502 0-19.02-16.823-34.498-37.503-34.498zm-.5 72C294.943 348 277 331.402 277 310.998c0-20.4 17.943-36.998 39.997-36.998 22.06 0 40.003 16.598 40.003 36.998C357 331.402 339.057 348 316.997 348z" fill="#fff"/></g></svg>