<svg width="540" height="610" fill="none" xmlns="http://www.w3.org/2000/svg"><path d="M537.461 396.29c-7.209 40.72-27.941 77.795-58.824 105.192a222.85 222.85 0 0 1-34.455 25.046c-43.193 26.198-96.723 42.077-152.451 55.101l-9.537 2.154a95.61 95.61 0 0 1-25.267 2.304c-88.634-3.707-149.006-135.498-167.781-274.201C72.767 188.41 100.182 48.554 222.921 42.242c46.09-2.304 99.87 20.738 149.805 57.806 3.595 2.655 7.19 5.41 10.736 8.215l2.197 1.753c93.228 74.537 169.379 195.408 151.802 286.274z" fill="#FDE6D6"/><path d="M103.194 511.821c6.92 14.002 9.459 31.742-4.43 37.422-15.531 6.378-40.322-3.887-47.49-27.257-4.63-14.948-3.037-35.777 9.956-43.8 10.603-6.876 33.701 16.494 41.964 33.635z" fill="#F5F9FD"/><path d="M484.298 196.278c-6.247-5.474-11.244-13.61-5.947-19.084 5.297-5.475 19.589-5.927 27.985 4.068 5.347 6.378 9.045 16.824 4.997 23.202-3.598 5.424-19.239-1.506-27.035-8.186z" fill="#FFAD69"/><path fill-rule="evenodd" clip-rule="evenodd" d="M189.11 116.746a153.527 153.527 0 0 0-9.642-.752.615.615 0 0 1-.684-.249.675.675 0 0 1 0-.753.614.614 0 0 1 .684-.25c2.89 0 5.86.331 8.765.654l.877.097a.573.573 0 0 1 .415.229.616.616 0 0 1 .115.473.638.638 0 0 1-.53.551zm-48.759 2.754a.685.685 0 0 1-.586-.451.653.653 0 0 1 .439-.801 118.581 118.581 0 0 1 9.774-2.255.575.575 0 0 1 .461.063.605.605 0 0 1 .272.388.653.653 0 0 1-.489.752 138.053 138.053 0 0 0-9.48 2.254l-.391.05zm78.695 2.511c3.164.852 6.327 1.754 9.491 2.756h.445a.597.597 0 0 0 .593-.601.598.598 0 0 0-.593-.602c-3.213-1.052-6.426-1.953-9.54-2.805a.635.635 0 0 0-.534.055.655.655 0 0 0-.307.446.703.703 0 0 0 .445.751zm-97.691 4.241a.662.662 0 0 1-.523-.347.658.658 0 0 1 .285-.844c2.854-1.339 5.803-2.63 8.847-3.771a.554.554 0 0 1 .453.002.589.589 0 0 1 .309.345.655.655 0 0 1-.333.794 117.648 117.648 0 0 0-8.752 3.772l-.286.049zm116.639 1.315c3.144 1.102 6.338 2.305 9.481 3.507l.456.05a.605.605 0 0 0 .609-.601.605.605 0 0 0-.609-.601c-3.143-1.203-6.337-2.405-9.531-3.507a.712.712 0 0 0-.811.35.65.65 0 0 0 .405.802zm-134.474 9.706a.575.575 0 0 1-.525-.266.642.642 0 0 1 0-.905c2.89-2.075 5.832-4.044 8.88-5.8a.679.679 0 0 1 .821.298.7.7 0 0 1-.138.873c-2.995 1.756-5.99 3.672-8.775 5.694a.64.64 0 0 1-.21.106h-.053zm161.116 2.005H264.973a.578.578 0 0 0 .482-.283.558.558 0 0 0-.289-.755c-2.889-1.37-5.827-2.644-8.812-3.919a.584.584 0 0 0-.771.283.609.609 0 0 0 .289.803 243.46 243.46 0 0 1 8.764 3.871zM88.412 150.246a.654.654 0 0 1-.39-.01.581.581 0 0 1-.185-.423c0-.159.067-.311.186-.423 2.467-2.442 5.248-4.982 7.663-6.925a.708.708 0 0 1 .945 0 .624.624 0 0 1 0 .897c-2.572 2.142-5.25 4.433-7.559 6.825a.714.714 0 0 1-.66.059zm212.489 8.071h-.308a153.906 153.906 0 0 0-8.832-4.894.598.598 0 0 1-.3-.533.605.605 0 0 1 .333-.514.661.661 0 0 1 .634.019c1.556.844 3.112 1.714 4.653 2.576l.002.001.001.001a422.16 422.16 0 0 0 4.177 2.316c.116.11.181.26.181.416a.573.573 0 0 1-.181.416.577.577 0 0 1-.36.196zm-224.87 6.967h.34a.535.535 0 0 0 .585-.098c1.586-2.584 3.285-4.75 4.998-6.934l.695-.887a.588.588 0 0 0 0-.88.584.584 0 0 0-.827 0c-1.995 2.542-3.942 5.181-5.79 7.968a.587.587 0 0 0 0 .831zm241.793 4.013a.431.431 0 0 1-.368 0l-8.72-5.791a.633.633 0 0 1-.21-.879.655.655 0 0 1 .893-.207 298.71 298.71 0 0 1 8.825 5.739.663.663 0 0 1 0 .879.527.527 0 0 1-.42.259zM66.26 182.311a.592.592 0 0 1-.347-.346.555.555 0 0 1 .043-.476c1.418-2.951 2.99-5.853 4.61-8.659a.649.649 0 0 1 .567-.481.665.665 0 0 1 .666.346.608.608 0 0 1-.118.716c-1.621 2.757-3.141 5.659-4.61 8.61a.598.598 0 0 1-.343.307.639.639 0 0 1-.468-.017zm283.11 11.04a.58.58 0 0 0 .402 0 .739.739 0 0 0 .402-.095.56.56 0 0 0 .177-.405.56.56 0 0 0-.177-.405c-1.809-1.315-3.472-2.611-5.11-3.887-.91-.709-1.813-1.413-2.729-2.11a.677.677 0 0 0-.824.156.594.594 0 0 0 .02.796c1.943 1.315 3.694 2.697 5.453 4.085v.001l.001.001h.001c.787.622 1.576 1.245 2.384 1.863zM59.525 202.38a.727.727 0 0 1-.4-.824c1.049-3.349 2.147-6.646 3.344-9.788a.69.69 0 0 1 .799-.361c.155.058.28.178.347.334a.637.637 0 0 1 .002.49c-1.148 3.091-2.245 6.388-3.293 9.685a.646.646 0 0 1-.799.464zm305.912 3.943a.645.645 0 0 1-.204-.033c-2.508-2.312-5.117-4.573-7.727-6.782a.72.72 0 0 1 0-.925.663.663 0 0 1 .921 0l7.727 6.782a.723.723 0 0 1 0 .925.662.662 0 0 1-.717.033zM53.735 220.182a.601.601 0 0 0 .419.257.656.656 0 0 0 .51-.185.63.63 0 0 0 .188-.502c.699-3.187 1.448-6.423 2.296-9.56a.637.637 0 0 0-.45-.736.608.608 0 0 0-.503.038.59.59 0 0 0-.295.403c-.161.685-.323 1.363-.483 2.037-.632 2.654-1.245 5.227-1.763 7.769a.58.58 0 0 0 .08.479zm339.918 14.227a.546.546 0 0 1-.441 0c-2.201-2.345-4.5-4.785-6.75-6.938a.612.612 0 0 1 0-.861.696.696 0 0 1 .88 0c.97.989 1.949 2.015 2.925 3.038l.003.003h.001v.001a245.594 245.594 0 0 0 3.822 3.944c.236.24.236.62 0 .861a.797.797 0 0 1-.44-.048zm-343.555 5.38a.64.64 0 0 0 .549.688.646.646 0 0 0 .699-.491c.399-3.391.848-6.684 1.347-9.83a.533.533 0 0 0-.081-.462.552.552 0 0 0-.418-.226.606.606 0 0 0-.455.101.586.586 0 0 0-.244.391c-.549 3.244-.998 6.536-1.397 9.829zm356.554 9.658a.66.66 0 0 1-.512 0l-6.699-7.875a.628.628 0 0 1 0-.881.613.613 0 0 1 .921 0c1.625 1.838 3.278 3.789 4.938 5.749l.001.002.002.001c.585.691 1.171 1.383 1.758 2.072a.68.68 0 0 1 0 .932.556.556 0 0 1-.409 0zM48.643 260.332a.645.645 0 0 0 1.09-.35c.061-1.323.17-2.655.28-3.981.16-1.963.32-3.915.32-5.814a.69.69 0 0 0-.6-.686.604.604 0 0 0-.455.154.581.581 0 0 0-.193.434c-.054.695-.112 1.392-.17 2.091v.001c-.213 2.552-.429 5.127-.429 7.703a.582.582 0 0 0 .157.448zm371.031 5.144a.536.536 0 0 1-.472 0 361.457 361.457 0 0 0-5.801-7.909.62.62 0 0 1-.166-.425c0-.16.06-.313.166-.426a.554.554 0 0 1 .425-.203c.162 0 .317.074.424.203a216.13 216.13 0 0 0 1.745 2.319l.001.002c1.343 1.768 2.71 3.569 4.055 5.588a.679.679 0 0 1 0 .901l-.377-.05zm-370.89 14.497c0 .325.268.588.599.588h.05a.602.602 0 0 0 .441-.189.582.582 0 0 0 .157-.448v-9.795a.583.583 0 0 0-.192-.434.604.604 0 0 0-.456-.154.593.593 0 0 0-.6.588v9.844zm381.855 1.543a.836.836 0 0 1-.554 0 480.894 480.894 0 0 0-5.693-7.975.565.565 0 0 1 0-.821.676.676 0 0 1 .907 0c2.015 2.658 3.929 5.364 5.743 7.974a.609.609 0 0 1 0 .822.522.522 0 0 1-.403 0zm10.549 16.778a.53.53 0 0 0 .484.303l.338-.303a.62.62 0 0 0 .171-.43.618.618 0 0 0-.171-.43c-1.402-2.882-3.096-5.764-4.837-8.697a.609.609 0 0 0-.822 0 .73.73 0 0 0 0 .91 256.35 256.35 0 0 0 2.889 5.185l.001.003a401.778 401.778 0 0 1 1.947 3.459zm-390.483 2.258a.594.594 0 0 1-.599-.539c0-2-.18-4.001-.356-5.959-.117-1.302-.233-2.585-.293-3.836a.642.642 0 0 1 .6-.637.604.604 0 0 1 .455.154.583.583 0 0 1 .193.434c0 2.283.205 4.617.414 6.983.082.933.164 1.87.235 2.812a.582.582 0 0 1-.157.448.603.603 0 0 1-.442.189l-.05-.049zm400.445 14.734a.804.804 0 0 0 .634.345v-.049c.33-.155.47-.524.317-.838a294.699 294.699 0 0 0-4.862-8.819.713.713 0 0 0-.898-.246.607.607 0 0 0 0 .837c1.691 2.956 3.329 5.913 4.809 8.77zm-399.146 5.355a.645.645 0 0 1-.65-.539c-.398-3.232-.798-6.513-1.147-9.795a.578.578 0 0 1 .12-.462.6.6 0 0 1 .429-.223.646.646 0 0 1 .699.538c.349 3.233.748 6.514 1.148 9.795a.581.581 0 0 1-.12.463.6.6 0 0 1-.43.223h-.05zm405.963 13.609a.641.641 0 0 0 .592.419l.198-.052a.611.611 0 0 0 .343-.341.665.665 0 0 0 .002-.498c-1.135-3.252-2.419-6.503-3.753-9.755a.626.626 0 0 0-.839-.315.616.616 0 0 0-.313.354.663.663 0 0 0 .017.486c1.333 3.251 2.567 6.503 3.753 9.702zm-402.745 6.382a.595.595 0 0 1-.599-.487 305.692 305.692 0 0 1-1.647-9.752.624.624 0 0 1 .117-.479.653.653 0 0 1 .432-.252.645.645 0 0 1 .699.536c.376 2.427.78 4.853 1.193 7.322v.001l.404 2.429a.634.634 0 0 1-.5.731l-.1-.049zm410.301 12.567a.601.601 0 0 0 .599.508l.149-.051a.598.598 0 0 0 .387-.282.615.615 0 0 0 .062-.48 268.754 268.754 0 0 0-2.944-9.759.606.606 0 0 0-.31-.385.589.589 0 0 0-.489-.022.604.604 0 0 0-.378.316.619.619 0 0 0-.021.497 266.242 266.242 0 0 1 2.945 9.658zm-406.11 7.522a.596.596 0 0 1-.598-.489c-.749-3.231-1.447-6.461-2.046-9.789a.578.578 0 0 1 .08-.478.597.597 0 0 1 .419-.256.601.601 0 0 1 .699.489c.268 1.298.546 2.613.828 3.952v.002c.4 1.891.809 3.829 1.218 5.835a.577.577 0 0 1-.063.462.598.598 0 0 1-.387.272h-.15zm409.495 11.535a.647.647 0 0 0 .649.489l.1-.049a.6.6 0 0 0 .397-.239.578.578 0 0 0 .102-.446 125.399 125.399 0 0 0-1.847-9.788.649.649 0 0 0-.748-.49.635.635 0 0 0-.449.735 230.677 230.677 0 0 1 1.796 9.788zM64.62 380.761a.602.602 0 0 1-.598-.462v-.514c-.849-3.338-1.697-6.676-2.496-10.271a.72.72 0 0 1 .5-.77.697.697 0 0 1 .748.462v.002c.799 3.337 1.597 6.675 2.445 9.961v.514a.67.67 0 0 1-.449.821l-.15.257zM471.257 392.2c0 .323.268.585.598.585l.05-.048a.64.64 0 0 0 .599-.634c-.023-1.513-.135-3.047-.247-4.583-.126-1.731-.252-3.464-.252-5.169a.627.627 0 0 0-.225-.435.66.66 0 0 0-.474-.151.606.606 0 0 0-.429.223.571.571 0 0 0-.119.46c.249 3.267.499 6.534.499 9.752zm-401.489 7.599a.648.648 0 0 1-.599-.407 725.987 725.987 0 0 1-2.795-9.824.62.62 0 0 1 .063-.481.6.6 0 0 1 .386-.283.593.593 0 0 1 .458.045.61.61 0 0 1 .291.362 453.135 453.135 0 0 0 2.795 9.774.664.664 0 0 1-.4.814h-.199zm399.938 12.836a.552.552 0 0 0 .428.19l.2-.049a.642.642 0 0 0 .499-.538c.075-.684.157-1.372.239-2.064.301-2.531.609-5.116.609-7.732a.691.691 0 0 0-.599-.637.612.612 0 0 0-.456.154.587.587 0 0 0-.193.434 198.795 198.795 0 0 1-.848 9.796.53.53 0 0 0 .121.446zM75.89 418.837a.7.7 0 0 1-.6-.465v-.002c-1.048-3.257-2.096-6.514-3.094-9.823a.673.673 0 0 1 .442-.697.638.638 0 0 1 .756.284c.998 3.309 2.046 6.567 3.094 9.824a.642.642 0 0 1-.02.507.605.605 0 0 1-.379.321l-.2.051zm390.197 13.798a.667.667 0 0 0 .499.77l.3.463a.704.704 0 0 0 .465-.402.735.735 0 0 0-.016-.625c.699-3.543 1.347-6.931 1.847-10.268a.633.633 0 0 0-.102-.468.6.6 0 0 0-.398-.251.65.65 0 0 0-.748.514c-.499 3.491-1.148 6.879-1.847 10.267zm-384.032 5.241a.65.65 0 0 1-.599-.415 551.553 551.553 0 0 1-3.393-9.735.647.647 0 0 1 .349-.828.609.609 0 0 1 .798.362c.383 1.088.76 2.175 1.137 3.262.754 2.175 1.509 4.35 2.307 6.525a.68.68 0 0 1-.4.829h-.199zm379.52 14.211a.67.67 0 0 0 .399.819h.2a.65.65 0 0 0 .599-.41 221.149 221.149 0 0 0 2.944-9.826.633.633 0 0 0-.449-.767.615.615 0 0 0-.748.46c-.899 3.224-1.847 6.5-2.945 9.724zm-372.376 4.825a.547.547 0 0 1-.549-.366 389.51 389.51 0 0 1-3.739-9.735.656.656 0 0 1-.023-.53.61.61 0 0 1 .372-.36c.33-.105.68.079.798.419a321.43 321.43 0 0 0 3.739 9.683.746.746 0 0 1-.35.889H89.2zm365.015 13.151a.637.637 0 0 0 .28.822c.297.14.647.012.794-.29 1.354-2.852 2.616-5.849 3.83-8.846a.637.637 0 0 0-.327-.774.541.541 0 0 0-.432-.016.566.566 0 0 0-.315.306c-1.215 2.998-2.476 5.946-3.83 8.798zM97.247 474.95a.564.564 0 0 1-.516-.337 499.35 499.35 0 0 1-3.85-8.848.59.59 0 0 1-.017-.445.572.572 0 0 1 .298-.325.552.552 0 0 1 .476-.022.572.572 0 0 1 .322.359 355.13 355.13 0 0 0 2.98 6.884v.001l.002.001v.002l.822 1.864a.633.633 0 0 1-.282.818l-.235.048zm347.094 12.959h.278l.093.05a.622.622 0 0 0 .649-.251 411.818 411.818 0 0 1 2.193-4.085v-.002l.001-.002c.817-1.509 1.642-3.032 2.442-4.555a.696.696 0 0 0 .107-.744.594.594 0 0 0-.609-.36.622.622 0 0 0-.518.5c-1.391 2.915-2.967 5.78-4.636 8.595a.629.629 0 0 0-.164.427c0 .16.059.314.164.427zm-338.192 5.077a.64.64 0 0 1-.58-.341 282.276 282.276 0 0 1-4.697-8.753.54.54 0 0 1-.018-.45.606.606 0 0 1 .335-.328.674.674 0 0 1 .844 0l4.697 8.753c.161.297.045.658-.264.827l-.317.292zm326.224 12.003h.478a.5.5 0 0 0 .287 0c2.055-2.606 4.015-5.312 5.88-7.968a.617.617 0 0 0 .169-.426.617.617 0 0 0-.169-.426.558.558 0 0 0-.813 0c-1.525 2.377-3.113 4.419-4.74 6.509-.362.466-.727.934-1.092 1.409a.674.674 0 0 0 0 .902zm-317.263 6.033a.611.611 0 0 1-.525-.304l-.361-.681a568.352 568.352 0 0 0-4.411-8.227.674.674 0 0 1 .307-.728.595.595 0 0 1 .743.12c1.527 3.037 3.101 6.024 4.772 8.858a.69.69 0 0 1 0 .861l-.525.101zm303.313 7.916a.445.445 0 0 0 .393 0 .597.597 0 0 0 .392.097c2.164-1.988 4.286-4.259 6.29-6.405l.535-.572a.616.616 0 0 0 0-.866.595.595 0 0 0-.835 0 184.637 184.637 0 0 0-3.643 3.714l-.005.006-.001.001h-.001a237.243 237.243 0 0 1-3.125 3.207.524.524 0 0 0 0 .818zm-293.037 9.118a.639.639 0 0 1-.513-.306 645.43 645.43 0 0 1-4.947-8.667.71.71 0 0 1 0-.867.538.538 0 0 1 .397-.18c.148 0 .291.065.396.18 1.336 2.446 2.738 4.893 4.123 7.309l.002.004.48.837.295.517a.71.71 0 0 1 0 .867l-.233.306zm278.048 4.754a.72.72 0 0 0 .513.256l.154-.051a.913.913 0 0 0 .096-.084.653.653 0 0 0 .058-.07l7.796-6.709a.665.665 0 0 0 0-.921.615.615 0 0 0-.872 0c-1.018.876-2.02 1.753-3.018 2.626l-.001.001-.001.001c-1.568 1.371-3.127 2.735-4.725 4.08a.615.615 0 0 0 0 .871zm-266.215 12.28a.594.594 0 0 1-.5-.315 224.276 224.276 0 0 1-5.797-8.569.763.763 0 0 1 0-.946.627.627 0 0 1 .899 0 598.082 598.082 0 0 0 5.748 8.568.654.654 0 0 1 0 .894.696.696 0 0 1-.2.315l-.15.053zm250.235-.055a.567.567 0 0 0 .486 0l.145-.049a.475.475 0 0 0 .146.049c2.718-1.945 5.34-3.94 7.864-5.935a.61.61 0 0 0 0-.848.574.574 0 0 0-.825 0c-2.268 1.792-4.614 3.544-7.003 5.329l-.006.004-.002.001-.001.001-.001.001-.001.001-.802.599a.603.603 0 0 0-.171.424c0 .159.061.311.171.423zm-15.442 11.077a.567.567 0 0 1-.517-.313.628.628 0 0 1 0-.886c2.999-1.877 5.946-3.754 8.737-5.631a.62.62 0 0 1 .879 0 .628.628 0 0 1 0 .886c-2.792 1.877-5.739 3.754-8.737 5.631l-.362.313zm-222.478 3.906a.753.753 0 0 0 .525 0l.472.102a.651.651 0 0 0 0-.919c-1.171-1.466-2.357-2.831-3.542-4.194h-.001v-.001l-.001-.001-.001-.001v-.001h-.001v-.001h-.001v-.001h-.001V555l-.001-.001-.001-.001c-1.041-1.198-2.082-2.396-3.112-3.661a.646.646 0 0 0-.892-.102.607.607 0 0 0-.105.868 150.244 150.244 0 0 0 6.662 7.915zm205.425 6.114a.7.7 0 0 1-.547-.331.6.6 0 0 1 .249-.804c2.931-1.512 5.862-3.073 8.644-4.727a.67.67 0 0 1 .845 0 .554.554 0 0 1 .175.402c0 .15-.063.295-.175.401l-8.695 4.728-.496.331zm-192.273 8.982a.533.533 0 0 0 .385 0v-.049a.479.479 0 0 0 .433 0 .535.535 0 0 0 0-.824c-2.213-2.084-4.473-4.508-6.733-6.931v-.001a.624.624 0 0 0-.866 0 .538.538 0 0 0 0 .824 281.326 281.326 0 0 0 6.781 6.981zm174.294.036a.574.574 0 0 1-.529-.358.647.647 0 0 1-.041-.503.594.594 0 0 1 .329-.365l8.56-4.599a.598.598 0 0 1 .711-.119.673.673 0 0 1 .344.672.65.65 0 0 1-.478.571c-2.886 1.584-5.723 3.117-8.656 4.599l-.24.102zm-18.512 8.584a.63.63 0 0 0 .575.434l.261-.054 9.504-4.555a.69.69 0 0 0 .568-.556.717.717 0 0 0-.311-.744.657.657 0 0 0-.779.053c-2.226 1.117-4.478 2.179-6.738 3.245l-.002.001-.006.003c-.919.433-1.838.867-2.758 1.306a.639.639 0 0 0-.332.365.676.676 0 0 0 .018.502zm-139.404 3.413a.584.584 0 0 1-.351 0c-1.545-1.114-3.019-2.261-4.548-3.451l-.002-.001c-1.047-.814-2.119-1.649-3.258-2.506a.558.558 0 0 1-.075-.821.65.65 0 0 1 .876-.071l.56.454c2.354 1.906 4.647 3.762 7.198 5.458a.55.55 0 0 1 .203.422.546.546 0 0 1-.203.422.634.634 0 0 1-.501.047l.101.047zm120.437 4.694a.525.525 0 0 0 .525.342l.238-.049a345.88 345.88 0 0 0 8.824-3.812.582.582 0 0 0 .303-.33.607.607 0 0 0-.017-.453.663.663 0 0 0-.763-.342 282.594 282.594 0 0 1-8.824 3.813.643.643 0 0 0-.286.831zm-103.49 7.338h-.308c-2.706-1.4-5.411-2.964-8.078-4.505l-.001-.001-.002-.001-.805-.465a.63.63 0 0 1 0-.845.626.626 0 0 1 .873 0 91.675 91.675 0 0 0 8.783 4.972.63.63 0 0 1 0 .845.689.689 0 0 1-.462-.05v.05zm85.539-.415a.622.622 0 0 0 .572.401l.26-.05 9.677-3.707a.644.644 0 0 0 .364-.802.685.685 0 0 0-.832-.351l-9.677 3.708a.565.565 0 0 0-.387.314.53.53 0 0 0 .023.487zm-18.394 7.297a.611.611 0 0 1-.613-.451.649.649 0 0 1 .408-.802c1.482-.451 3.014-1.002 4.547-1.553l5.108-1.854a.621.621 0 0 1 .817.351.54.54 0 0 1 .023.487.557.557 0 0 1-.38.315l-5.108 1.903c-1.533.552-3.117 1.103-4.649 1.554l-.153.05zm-59.138-2.486a98.459 98.459 0 0 0 9.736 3.457v-.05a.729.729 0 0 0 .824-.35.65.65 0 0 0-.464-.802 95.524 95.524 0 0 1-9.58-3.407.73.73 0 0 0-.876.351.645.645 0 0 0 .36.801zM243.142 610a.591.591 0 0 1-.582-.601.568.568 0 0 1 .117-.457.529.529 0 0 1 .416-.195 76.799 76.799 0 0 0 9.701-1.302.631.631 0 0 1 .727.501.617.617 0 0 1-.099.456.577.577 0 0 1-.386.245 79.346 79.346 0 0 1-9.7 1.353h-.194zm-10.352-.059a79.335 79.335 0 0 1-9.698-1.203.577.577 0 0 1-.406-.262.614.614 0 0 1-.078-.489.6.6 0 0 1 .237-.399.566.566 0 0 1 .441-.102c3.207.6 6.445 1.002 9.698 1.202a.572.572 0 0 1 .429.193.61.61 0 0 1 .152.458.655.655 0 0 1-.251.489.618.618 0 0 1-.524.113zm147.362-389.638a.57.57 0 0 0 .287.051.672.672 0 0 0 .664-.002.611.611 0 0 0 0-.888c-1.88-1.835-3.99-3.67-6.045-5.456-.542-.472-1.081-.94-1.611-1.405a.721.721 0 0 0-.95 0 .576.576 0 0 0-.186.42c0 .157.067.308.186.419 1.568 1.467 3.275 2.976 4.998 4.5.887.784 1.778 1.573 2.657 2.361zm-46.676-38.94h.342a.58.58 0 0 0 .39-.151.608.608 0 0 0 0-.853c-2.637-2.007-5.274-4.015-7.961-5.972a.627.627 0 0 0-.743.252.666.666 0 0 0 .06.802 297.01 297.01 0 0 1 7.912 5.922zm-49.527-33.066h-.298a316.364 316.364 0 0 0-8.806-4.67.652.652 0 0 1-.199-1.004.598.598 0 0 1 .368-.314.588.588 0 0 1 .477.063c2.886 1.456 5.871 3.063 8.807 4.669a.607.607 0 0 1 0 .854.553.553 0 0 1-.299.402h-.05zm-84.817-30.863c3.327.501 6.556 1.152 9.785 1.854a.588.588 0 0 0 .685-.451.652.652 0 0 0-.49-.752c-3.375-.751-6.654-1.353-9.785-1.904a.574.574 0 0 0-.446.103.603.603 0 0 0-.239.398.652.652 0 0 0 .49.752zm-40.241-.894a.533.533 0 0 0 .414.142h-.049c3.246-.351 6.542-.651 9.837-.651.166 0 .324-.07.436-.194a.61.61 0 0 0 .155-.457.647.647 0 0 0-.591-.602c-3.344.101-6.64.351-9.837.702a.537.537 0 0 0-.422.195.56.56 0 0 0-.119.456.554.554 0 0 0 .176.409z" fill="#D8D5DB"/><path d="M468.765 396.507v1.654c-1.246 13.985-13.209 43.811-24.922 70.178.399 9.524.698 18.045.748 25.063v3.71h-1.446c.349 6.215.798 16.993 1.147 29.374-43.114 26.216-96.546 42.107-152.17 55.14l-9.52 2.155a95.192 95.192 0 0 1-25.221 2.306 21.117 21.117 0 0 1-.548-6.416 683.992 683.992 0 0 1 8.772-84.314l-3.09-.451c11.314-38.397 16.996-93.788 19.937-141.859.349-5.665.648-11.179.897-16.643-7.227 7.419-12.211 12.031-12.211 12.031l-15.302-25.314c-18.891 13.735-36.734 25.865-45.457 31.479-7.227 6.818-19.538 7.82-29.208-5.012-15.65-20.602-37.731-107.072-40.323-121.759a3.85 3.85 0 0 1-1.046-.601c-3.589-5.013-16.149-32.332-14.953-37.646 1.196-5.313 7.078-16.792 13.906-18.346-.797-2.456-1.695-5.013-2.991-8.572-2.89-7.92-6.33-15.94-1.146-15.038 5.184.902 17.046 30.076 19.09 35.089.299-2.356.598-4.261.598-4.261 1.595-4.712 9.969-7.218 8.723 0-1.446 10.026 2.043 15.038 1.894 23.309v1.654c.02.301.02.602 0 .903.026.216.026.435 0 .651v.351a61.263 61.263 0 0 1-6.38 17.595c5.433 17.845 30.354 64.513 44.858 90.228 8.872-7.418 19.937-16.241 31.401-25.063l-.997-1.654s59.114-55.591 89.718-59.802c.448-2.155.747-4.511 1.046-6.967.299-2.457.499-6.617.598-10.026-22.479-.251-24.572-16.893-22.329-38.046l-3.539-.903 5.233-13.634v-1.003a3.976 3.976 0 0 1-.947-2.406c0-1.654.449-3.057 1.346-3.108a.55.55 0 0 1 .399 0c0-1.203.399-2.406.548-3.609.399-2.656.897-5.012 1.396-7.469a10.432 10.432 0 0 0-4.038 0l-.398-2.456a14.145 14.145 0 0 1 4.984 0 67.665 67.665 0 0 1 7.925-19.048c-7.177-.501-10.567-2.857-5.582-8.672 7.725-9.023 44.31-13.534 62.752-9.725 6.479 1.354 10.716 3.71 10.766 7.218v1.003a10.927 10.927 0 0 0 4.685-3.81l2.094 1.404a14.074 14.074 0 0 1-4.586 4.16l-.748.401c19.738 12.933-8.174 82.209-8.274 82.209-.548 11.88-.897 23.61-.847 31.881 17.744 2.055 28.959 7.268 36.385 15.439 19.937 16.09 50.541 82.108 50.541 82.108l-12.511 3.308c8.922 28.773 16.498 57.646 18.692 67.321a17.238 17.238 0 0 1-.349 4.311z" fill="#D1CDD3"/><rect opacity=".3" x="376.303" y="285.571" width="334.381" height="261.523" rx="34" transform="rotate(180 376.303 285.571)" fill="#4D8DFF"/><path opacity=".3" fill-rule="evenodd" clip-rule="evenodd" d="M39.967 308.617h314.336a39.938 39.938 0 0 0 28.314-11.777 40.065 40.065 0 0 0 11.653-28.401V40.029C394.27 17.92 376.376 0 354.303 0H39.966C17.894 0 0 17.921 0 40.028V268.59c0 22.107 17.894 40.028 39.967 40.028zM.998 39.974C1.026 18.462 18.42 1.03 39.886 1.002h314.498c21.466.028 38.86 17.46 38.888 38.972v228.67c-.028 21.512-17.422 38.944-38.888 38.971H39.886c-21.466-.027-38.86-17.459-38.888-38.971V39.974z" fill="#4D8DFF"/><g opacity=".3" fill="#4D8DFF"><rect x="125.767" y="101.202" width="55.897" height="44.088" rx="6" transform="rotate(180 125.767 101.202)"/><rect x="199.63" y="101.202" width="55.897" height="44.088" rx="6" transform="rotate(180 199.63 101.202)"/><rect x="274.492" y="101.202" width="55.897" height="44.088" rx="6" transform="rotate(180 274.492 101.202)"/><rect x="348.355" y="101.202" width="55.897" height="44.088" rx="6" transform="rotate(180 348.355 101.202)"/></g><g opacity=".3" fill="#4D8DFF"><rect x="125.767" y="176.353" width="55.897" height="44.088" rx="6" transform="rotate(180 125.767 176.353)"/><rect x="199.63" y="176.353" width="55.897" height="44.088" rx="6" transform="rotate(180 199.63 176.353)"/><rect x="274.492" y="176.353" width="55.897" height="44.088" rx="6" transform="rotate(180 274.492 176.353)"/><rect x="348.355" y="176.353" width="55.897" height="44.088" rx="6" transform="rotate(180 348.355 176.353)"/></g><g opacity=".3" fill="#4D8DFF"><rect x="125.767" y="251.503" width="55.897" height="44.088" rx="6" transform="rotate(180 125.767 251.503)"/><rect x="199.63" y="251.503" width="55.897" height="44.088" rx="6" transform="rotate(180 199.63 251.503)"/><rect x="274.492" y="251.503" width="55.897" height="44.088" rx="6" transform="rotate(180 274.492 251.503)"/><rect x="348.355" y="251.503" width="55.897" height="44.088" rx="6" transform="rotate(180 348.355 251.503)"/></g><rect x="281.479" y="94.188" width="55.897" height="44.088" rx="6" transform="rotate(180 281.479 94.188)" fill="#4D8DFF"/><rect x="281.479" y="244.489" width="55.897" height="44.088" rx="6" transform="rotate(180 281.479 244.489)" fill="#FF4E4A"/><rect x="132.754" y="169.339" width="55.897" height="44.088" rx="6" transform="rotate(180 132.754 169.339)" fill="#FFC84D"/><path d="M415.231 149.299c-1.708 10.964-5.023 70.415-3.667 83.995 1.357 13.58-65.294 17.705-56.404 2.565 8.89-15.139 2.562-65.385 2.562-65.385l57.509-21.175z" fill="#FFAD69"/><path d="m411.238 150.301-52.902 19.316a274.109 274.109 0 0 1 1.407 49.822c21.804-8.981 16.981-27.244 16.981-37.078 0-8.931 34.565-30.355 34.514-32.06zM341.567 153.307l-8.184 17.901 9.981 4.143-1.797-22.044z" fill="#D88344"/><path d="M341.599 146.908c-5.002 33.788-13.205 67.475 27.611 61.903 40.816-5.573 47.118-57.987 47.018-67.928-.65-52.816-65.025-60.347-74.629 6.025z" fill="#FFAD69"/><path d="M421.32 110.043a15.58 15.58 0 0 0 5.355-4.577l-2.102-1.409a11.364 11.364 0 0 1-5.004 3.823 6.894 6.894 0 0 0 0-1.056c0-13.682-63.35-9.758-73.809 2.465-6.205 7.243.401 9.154 11.109 8.802a5.023 5.023 0 0 0-1.701 2.415c-7.056 34.757 26.271 68.961 30.024 71.879h27.221s28.523-69.566 8.907-82.342z" fill="#232323"/><path d="M503.951 392.752c-3.573-16.105-22.185-85.792-36.976-119.205l-37.77 8.128s24.37 82.379 37.324 113.134c-3.028 16.556-18.315 93.567-27.745 115.09-4.169 10.035 11.614 13.898 15.436 9.081 3.821-4.816 47.2-92.915 49.632-120.409v-1.655c.248-1.374.281-2.779.099-4.164z" fill="#FFAD69"/><path d="M447.109 239.064c20.007 15.716 50.969 82.542 50.969 82.542l-65.524 17.071s-38.115-140.984 14.555-99.613z" fill="#E5AA33"/><path d="M479.113 501.739a222.69 222.69 0 0 1-34.402 25.133c-43.127 26.289-96.574 42.223-152.215 55.292-.05-.652-.05-1.308 0-1.96 1.795-31.115 4.986-66.653 9.971-89.222l142.643 2.865 33.704.704c0 1.709.299 4.121.299 7.188z" fill="#232323"/><path d="M399.556 223.57c39.252 1.3 52.553 14.554 59.304 37.511 7.7 26.007 21.251 183.301 21.251 235.816 0 0-117.558 8.353-182.662-2.351 20.402-68.969 22.602-192.954 23.052-230.064.3-27.558 29.252-42.562 79.055-40.912z" fill="#FFC84D"/><path fill-rule="evenodd" clip-rule="evenodd" d="M404.648 250.981a3.714 3.714 0 0 0 3.02 1.524l.604-.203a3.782 3.782 0 0 0 3.021-2.337l5.738-14.425a3.89 3.89 0 0 0-.495-3.434 3.819 3.819 0 0 0-3.029-1.645h-16.46c-1.43 0-2.737.815-3.377 2.106a3.839 3.839 0 0 0 .357 3.989l10.621 14.425zm-9.188-16.8a1.256 1.256 0 0 1 1.157-.714h16.39c.423-.005.819.206 1.056.561.227.375.227.848 0 1.223l-5.732 14.426a1.209 1.209 0 0 1-1.005.815 1.25 1.25 0 0 1-1.157-.509l-10.709-14.477a1.239 1.239 0 0 1 0-1.325z" fill="#fff"/><path d="M320.353 273.796c-.299 18.255-.997 47.373-2.941 79.911 16.6-20.116 32.9-43.903 33.847-61.756 1.346-24.542-12.462-26.051-30.906-18.155z" fill="#E5AA33"/><path d="m342.366 281.924-19.914-33.36s-54.763 39.781-84.186 64.411c-14.537-25.784-39.38-72.487-44.806-90.296a60.49 60.49 0 0 0 6.322-17.557.696.696 0 0 0 0-.351v-.653c.022-.3.022-.602 0-.902v-1.706c0-8.077-3.335-13.043-1.891-23.276.995-7.174-7.12-4.716-8.713 0l-.647 4.213c-2.041-5.016-14.338-34.463-19.018-35.115-4.68-.652-1.742 7.274 1.145 15.05 1.245 3.461 2.191 6.17 2.987 8.578-6.87 1.605-12.944 13.444-13.89 18.41-.946 4.966 11.501 32.657 14.936 37.674.266.335.586.623.946.852 2.539 14.749 24.892 101.232 40.226 121.9 9.658 12.792 22.005 11.789 29.223 5.017 17.724-11.388 72.188-49.111 97.28-72.889z" fill="#FFAD69"/><path d="M376.213 248.803c-1.996 36.79-69.877 99.894-69.877 99.894l-37.833-62.151s111.404-104.656 107.71-37.743z" fill="#FFC84D"/><path d="M355.82 157.243c-1.541 8.889-3.801 17.728 4.675 17.071 8.477-.656 10.635-14.495 10.789-17.122.719-14.142-12.433-17.526-15.464.051z" fill="#FFAD69"/></svg>