<svg width="644" height="495" fill="none" xmlns="http://www.w3.org/2000/svg"><path fill-rule="evenodd" clip-rule="evenodd" d="M351.763 465.954C220.322 453.421 111.529 363.113 63.859 248 16.19 132.887 195.668 34.828 324.94 29.21 454.21 23.592 554 131.297 554 253.974s-70.796 224.513-202.237 211.98z" fill="#FFE5D2"/><path fill-rule="evenodd" clip-rule="evenodd" d="M513.948 344.003c.104-.059.748.776 1.701 2.421.958 1.638 2.149 4.128 3.256 7.34 2.269 6.402 3.694 15.852 2.849 26.159-.837 10.305-3.265 19.351-5.139 25.79-1.916 6.442-3.327 10.352-3.57 10.286-.268-.073.684-4.118 2.256-10.623 1.533-6.504 3.719-15.502 4.538-25.596.823-10.091-.348-19.276-2.231-25.626-1.829-6.381-3.962-9.997-3.66-10.151zM520.018 292.001c.126-.052.949 1.345 2.321 3.921 1.37 2.575 3.296 6.329 5.575 11.012 4.519 9.367 10.603 22.479 15.015 37.702 2.169 7.615 3.647 15.018 4.396 21.816.754 6.797.831 12.973.454 18.127-.366 5.156-1.067 9.294-1.742 12.108-.668 2.819-1.197 4.337-1.316 4.313-.374-.067 1.278-6.273 1.628-16.483.437-10.189-1.005-24.345-5.377-39.397-4.362-15.057-10.197-28.176-14.373-37.659l-4.981-11.241c-1.15-2.666-1.729-4.165-1.6-4.219zM270.984 353.01c.227.234-1.996 2.269-4.882 6.048-.716.949-1.494 1.987-2.221 3.173-.797 1.143-1.489 2.453-2.259 3.807-1.433 2.758-2.793 5.893-3.841 9.306-1.004 3.426-1.589 6.774-1.904 9.842-.096 1.539-.235 3.003-.195 4.375-.04 1.377.042 2.654.122 3.824.35 4.672 1.106 7.53.784 7.614-.196.064-1.44-2.697-2.162-7.478-.173-1.195-.338-2.507-.37-3.927-.111-1.419-.031-2.937.019-4.535.225-3.186.779-6.68 1.822-10.235a49.335 49.335 0 0 1 4.13-9.599c.841-1.38 1.613-2.706 2.495-3.85.812-1.187 1.681-2.214 2.489-3.138 3.26-3.68 5.845-5.381 5.973-5.227zM276.985 369.037c.173.248-1.136 1.139-2.847 2.845-.866.842-1.779 1.934-2.677 3.199a23.733 23.733 0 0 0-2.331 4.39 22.407 22.407 0 0 0-1.204 4.736c-.17 1.488-.208 2.847-.108 3.987.166 2.281.581 3.703.271 3.802-.221.083-1.154-1.218-1.724-3.628-.297-1.202-.419-2.674-.343-4.304a18.61 18.61 0 0 1 1.149-5.195 19.875 19.875 0 0 1 2.694-4.72c1.067-1.327 2.183-2.418 3.248-3.201 2.118-1.587 3.754-2.1 3.872-1.911zM203.016 216.006c.102-.085.984.74 2.499 2.314a36.736 36.736 0 0 1 2.64 2.968c.971 1.199 2.14 2.529 3.237 4.129l1.777 2.477c.611.867 1.165 1.816 1.783 2.775 1.263 1.903 2.395 4.052 3.627 6.294 2.325 4.547 4.549 9.708 6.32 15.302 1.714 5.611 2.802 11.092 3.453 16.108.248 2.519.526 4.907.555 7.156.03 1.123.108 2.206.091 3.25l-.074 2.996c-.005 1.911-.225 3.629-.354 5.139a34.571 34.571 0 0 1-.518 3.852c-.371 2.103-.639 3.252-.774 3.234-.348-.044.307-4.706.252-12.239l-.054-2.954c-.023-1.027-.138-2.093-.202-3.196-.098-2.211-.434-4.555-.725-7.024-.74-4.918-1.859-10.283-3.542-15.79-1.739-5.491-3.868-10.574-6.063-15.084-1.167-2.223-2.228-4.364-3.409-6.27-.579-.96-1.093-1.913-1.66-2.787l-1.645-2.507c-4.264-6.353-7.483-9.926-7.214-10.143zM225.021 225.007c.165-.141 2.393 1.858 5.227 5.709 1.426 1.917 2.929 4.334 4.391 7.12a62.145 62.145 0 0 1 3.858 9.444 61.546 61.546 0 0 1 2.114 9.939c.35 3.102.459 5.912.347 8.265-.196 4.709-.935 7.548-1.152 7.516-.312-.037-.062-2.911-.22-7.517-.064-2.302-.311-5.035-.747-8.041-.485-3-1.185-6.271-2.202-9.634a74.971 74.971 0 0 0-3.611-9.235c-1.338-2.753-2.679-5.175-3.93-7.142-2.478-3.948-4.315-6.23-4.075-6.424z" fill="#fff"/><path fill-rule="evenodd" clip-rule="evenodd" d="M145.925 378.341 144.194 375 96 409.805 117.026 442 165 403.768l-19.075-25.427z" fill="#FF7B5B"/><path fill-rule="evenodd" clip-rule="evenodd" d="m98 410 18.798 30 1.202-.495-16.74-28.05L98 410z" fill="#D7D4D4"/><path fill-rule="evenodd" clip-rule="evenodd" d="M145.341 377 98 409.537s.198.699 1.373 1.13c1.177.43 1.857.321 1.857.321L151 379.377s-2.869-.619-3.91-1.34c-1.042-.723-1.749-1.037-1.749-1.037z" fill="#F5F3F3"/><path fill-rule="evenodd" clip-rule="evenodd" d="M152.556 379 101 411.208l16.745 29.682 2.697 4.11L172 409.311s-5.43-7.581-8.691-12.158c-3.26-4.577-9.661-15.371-10.009-16.063-.349-.691-.744-2.09-.744-2.09z" fill="#FF7B5B"/><path fill-rule="evenodd" clip-rule="evenodd" d="m578.034 154.793 1.454-2.793L620 181.091 602.326 208 562 176.044l16.034-21.251z" fill="#775298"/><path fill-rule="evenodd" clip-rule="evenodd" d="m619 182-15.977 25-1.023-.411 14.23-23.376L619 182z" fill="#D7D4D4"/><path fill-rule="evenodd" clip-rule="evenodd" d="M578.699 155 618 182.753s-.166.595-1.14.963c-.977.367-1.542.273-1.542.273L574 157.028s2.382-.527 3.246-1.143c.864-.617 1.453-.885 1.453-.885z" fill="#F5F3F3"/><path fill-rule="evenodd" clip-rule="evenodd" d="M573.432 156 617 183.328l-14.149 25.185-2.28 3.487L557 181.717s4.59-6.433 7.345-10.316c2.757-3.883 8.164-13.042 8.458-13.629.295-.585.629-1.772.629-1.772z" fill="#775298"/><path fill-rule="evenodd" clip-rule="evenodd" d="M88.988 103s-3.106 1.974-1.554 5.266c1.554 3.291 8.361 13.056 17.557 12.726.377-.012-11.585-17.992-11.585-17.992h-4.418z" fill="#FF7B5B"/><path fill-rule="evenodd" clip-rule="evenodd" d="M75 284.112s-11.384-9.63-15.029-7.905c-4.452 2.108-29.939 25.756-28.943 36.896.41 4.563 6.019.654 16.013-9.164 9.998-9.817 22.586-5.61 22.586-5.61L75 284.112zM102 300.788 88.378 293s-35.31 31.548-29.793 35.755c4.184 3.189 6.644.328 16.552-9.466 9.907-9.791 22.46-4.161 22.46-4.161l4.403-14.34z" fill="#775298"/><path fill-rule="evenodd" clip-rule="evenodd" d="M185.432 198 188 232l-57-13.846L185.432 198z" fill="#F3A683"/><path fill-rule="evenodd" clip-rule="evenodd" d="M131.39 219s50.182 2.955 56.864.872c0 0 9.806 90.021-7.643 99.733C163.16 329.32 124 315.096 124 315.096l10.573-19.427 22.797-1.388v-34.69l-1.635.346L131.39 219z" fill="#112129"/><path fill-rule="evenodd" clip-rule="evenodd" d="M69.27 280.148s-12.512 4.837-8.463 16.584c0 0 42.712 31.436 63.496 24.181 11.644-4.064 24.153-35.073 32.903-61.566L188 219.868s-14.523.682-19.368.665c-9.26-.033-37.003-1.533-37.003-1.533s-14.491 71.168-19.654 72.894c-5.164 1.726-42.705-11.746-42.705-11.746z" fill="#22343D"/><path fill-rule="evenodd" clip-rule="evenodd" d="M143 129.376s29.989-26.304 35.171-33.228c5.182-6.921 16.292-30.11 29.986-39.8l-6.663-13.152s4.074-2.076 6.663 3.46c0 0 9.625-17.995 11.847-17.651 2.223.346-4.441 13.845-4.441 13.845s9.257-12.46 11.848-12.114c2.589.346-6.665 14.007-6.665 14.007s10.365-11.238 11.847-9.854c1.481 1.385-8.145 9.854-8.145 9.854s10.365-5.563 11.476-3.73c1.111 1.837-10.365 6.681-10.365 6.681s-1.111 7.96-8.144 11.421c0 0-13.927 35.177-26.515 46.597L150.464 145 143 129.376zM107.59 143s-28.286 27.751-35.704 32.524c-7.42 4.772-32.213 14.928-42.658 27.625l-13.943-6.344s-2.248 3.782 3.624 6.252c0 0-19.254 8.818-18.904 10.897.346 2.077 14.781-4.018 14.781-4.018s-13.354 8.526-13.009 10.947c.345 2.421 14.976-6.092 14.976-6.092s-12.062 9.572-10.601 10.967c1.458 1.396 10.568-7.51 10.568-7.51s-6.021 9.625-4.076 10.679c1.942 1.053 7.208-9.615 7.208-9.615s8.486-.96 12.238-7.496c0 0 35.48-13.24 47.759-24.885L124 157.591 107.59 143z" fill="#FFC6B2"/><path fill-rule="evenodd" clip-rule="evenodd" d="M118.415 131.969 104 145.133l3.656 14.839s14.201 31.806 16.348 39.565c3.338 12.066-2.06 30.463-2.06 30.463s24.076-1.865 45.983-2.557c21.906-.694 29.073-7.277 29.073-7.277s-18.994-59.012-32.108-75.509C151.777 128.164 147.007 123 147.007 123l-19.309 3.937-9.283 5.032z" fill="#fff"/><path fill-rule="evenodd" clip-rule="evenodd" d="m159.948 143 14.959-8.995s2.285-9.637-15.754-21.005L138 125.475 159.948 143zM106.75 144.277c-8.165 1.065-23.086 20.307-24.75 20.271 0 0 10.501 15.935 18.82 16.452 0 0 36.607-40.724 5.93-36.723z" fill="#fff"/><path fill-rule="evenodd" clip-rule="evenodd" d="M136 132.031s-12.011-8.407-11.595-11.759c.106-.844 1.771-2.215 2.203-3.431 2.329-6.546-8.899-23.412-15.798-26.967-5.427-2.796-3.048-3.043-14.47 3.316s-4.915 17.355.186 23.042c4.822 5.376 10.344 7.679 15.313 8.067L118.903 139 136 132.031z" fill="#FFC6B2"/><path fill-rule="evenodd" clip-rule="evenodd" d="M114.597 143.011c-2.234-5.207 1.996-11.766 9.45-14.654 7.457-2.89 15.308-1.011 17.547 4.193 2.232 5.206-5.269 13.032-9.456 14.655-4.188 1.623-15.308 1.011-17.541-4.194zM96.358 116.004s-3.907-.195-4.34 2.153c-.435 2.349 7.16 2.349 9.982.587l-5.642-2.74z" fill="#FFC6B2"/><path fill-rule="evenodd" clip-rule="evenodd" d="M98.9 118c-.738-4.374-5.723-7.627-5.475-11.889 2.39.018 3.925-2.749 2.838-5.115-.429-.929-1.154-1.724-1.617-2.641-.462-.916-.585-2.116.124-2.633.336-.245.79-.287 1.226-.328 3.543-.34 9.613.653 12.874-.477 3.105-1.076 6.431-3.168 6.108-6.724-.282-3.096-3.207-5.606-5.893-7.503-1.539-1.088-5.937-3.932-7.596-3.674-2.533.394-3.147 3.553-3.33 6.198-1.77-1.577-4.384-1.325-5.925-.041-1.54 1.283-2.27 3.322-2.94 5.29-.673 1.969-1.385 4.013-2.905 5.32-1.416 1.22-3.656 2.142-3.363 4.215.35 2.471 3.802 3.35 5.398 5.457-.393-.517-.727 2.782-.5 3.341.681 1.685 2.381 2.8 3.61 4.088 2.618 2.747 3.898 5.513 7.367 7.116z" fill="#FF7B5B"/><path fill-rule="evenodd" clip-rule="evenodd" d="m119.8 108-8.8 3.941s10.57 6.645 8.8-3.941z" fill="#fff"/><path fill-rule="evenodd" clip-rule="evenodd" d="M107.856 109.766c.461.87-.221 2.127-1.523 2.808-1.301.681-2.729.529-3.19-.34-.459-.87.222-2.126 1.523-2.808 1.303-.681 2.729-.529 3.19.34zM120.856 101.766c.461.87-.221 2.127-1.523 2.808-1.301.681-2.729.529-3.19-.34-.459-.87.222-2.127 1.523-2.808 1.303-.681 2.729-.529 3.19.34z" fill="#FFB2A0"/><path fill-rule="evenodd" clip-rule="evenodd" d="M113.791 107.985c-.04-.049.123-.254.502-.515.362-.267.991-.554 1.458-1.035.463-.465.629-1.436-.079-1.573-.736-.238-1.573.568-2.531 1.334-.238.188-.472.375-.705.558-.217.191-.674.47-1.148.413-.904-.139-1.289-.715-1.636-1.1a7.512 7.512 0 0 1-1.36-2.512c-.47-1.558-.259-2.563-.146-2.555.158-.007.21.96.807 2.33.301.68.751 1.454 1.406 2.184.32.37.722.716 1.008.727.12.005.214-.034.44-.214.23-.184.461-.371.696-.558.483-.373.901-.75 1.453-1.101.537-.345 1.302-.563 1.988-.341.731.184 1.161.998 1.034 1.565-.083.577-.384 1.002-.725 1.313-.722.576-1.367.715-1.773.889-.417.151-.645.245-.689.191z" fill="#FF7B5B"/><path fill-rule="evenodd" clip-rule="evenodd" d="M112 123.851s5.834.032 9-1.851c0 0-2.678 3.177-8.036 4l-.964-2.149z" fill="#FFA192"/><path fill-rule="evenodd" clip-rule="evenodd" d="M113.997 100.444c-.045.299-.734.391-1.462.785-.738.366-1.271.908-1.476.739-.211-.136.138-1.214 1.135-1.729.995-.517 1.868-.076 1.803.205zM103.063 106.973c-.214-.154.121-1.042.935-1.931.824-.907 1.877-1.21 1.988-.956.117.247-.524.822-1.246 1.62-.733.795-1.446 1.435-1.677 1.267z" fill="#22343D"/><path fill-rule="evenodd" clip-rule="evenodd" d="M98.35 105.88c-.427-.314-.761-1.658.877-3.468 1.654-1.851 3.502-1.525 3.723-1.011.238.505-.377 1.223-1.828 2.851-1.474 1.622-2.308 1.972-2.771 1.628zM108.074 98.692c-.245-.397.025-1.552 2.227-2.356 2.232-.832 3.72.085 3.699.562-.004.474-.845.806-2.806 1.538-1.976.719-2.856.688-3.12.256z" fill="#FF7B5B"/><path fill-rule="evenodd" clip-rule="evenodd" d="M590.994 111.019c.149.136-2.302 2.669-7.389 5.429-5.023 2.757-12.927 5.489-22.018 5.551-9.092.062-17.039-2.564-22.107-5.252-5.128-2.689-7.62-5.191-7.474-5.329.212-.246 2.999 1.864 8.135 4.174 5.086 2.319 12.752 4.621 21.43 4.563 8.681-.061 16.307-2.466 21.357-4.853 5.096-2.38 7.851-4.527 8.066-4.283zM535.997 107.952c-.138.289-2.833-.779-7.373-1.746-2.262-.51-5.008-.904-8.066-1.267-3.069-.324-6.461-.582-10.044-.825-3.584-.24-7.014-.516-10.13-.884-3.115-.395-5.915-.865-8.221-1.461-4.63-1.154-7.252-2.52-7.161-2.713.121-.291 2.878.608 7.463 1.397 2.287.417 5.047.74 8.121 1.032 3.081.269 6.483.489 10.072.73 3.591.244 7.027.559 10.14.985 3.111.467 5.902 1.011 8.185 1.703 4.584 1.337 7.117 2.867 7.014 3.049z" fill="#775298"/><mask id="a" style="mask-type:luminance" maskUnits="userSpaceOnUse" x="463" y="35" width="181" height="83"><path fill-rule="evenodd" clip-rule="evenodd" d="M463 35h181v83H463V35z" fill="#fff"/></mask><g mask="url(#a)"><path fill-rule="evenodd" clip-rule="evenodd" d="M481.206 51.812c8.615-1.711 17.54-.238 26.226 1.117 8.687 1.354 17.705 2.576 26.198.394 15.333-3.94 26.974-18.44 42.875-18.322 6.547.047 12.718 2.664 19.097 4.049 7.921 1.72 16.173 1.535 24.197 2.762 8.025 1.227 16.314 4.248 20.85 10.565 5.38 7.496 3.905 18.07-1.741 25.394-5.646 7.326-14.687 11.785-23.951 14.312-6.462 1.763-13.346 2.782-18.938 6.289-5.656 3.548-9.349 9.257-14.619 13.291-13.224 10.122-33.804 7.221-47.464-2.38-3.432-2.412-6.612-5.211-10.468-6.976-15.683-7.185-38.239 2.326-51.746-10.747-13.717-13.276-11.762-35.53 9.484-39.748z" fill="#775298"/></g><path fill-rule="evenodd" clip-rule="evenodd" d="M477 309.509s14.259 29.236 15.927 23.822c1.664-5.415 1.114-18.418.22-20.274-.897-1.856-6.726-10.057-6.726-10.057L477 309.509z" fill="#FFB2A0"/><path fill-rule="evenodd" clip-rule="evenodd" d="M581 75.851c1.316 1.57.437-.116 1.927 2.149 6.195-.2 10.353-5.083 10.353-5.083s9.833.242 9.719-1.394c-.112-1.638-9.426-1.026-9.426-1.026s9.853-2.882 9.312-4.321c-.537-1.438-11.912 3.148-11.912 3.148s11.478-6.636 9.782-7.7c-1.694-1.062-12.738 4.73-12.738 4.73s9.598-7.342 8.159-8.288c-1.436-.947-14.749 8.61-14.749 8.61.194-4.701-3.427-4.537-3.427-4.537l.149 11.48s2.244 1.51 2.851 2.232zM433.761 23.53c-2.143.372-.481-.33-3.263.47-4.57-4.101-3.963-10.546-3.963-10.546s-7.664-6.072-6.393-7.258c1.278-1.19 7.927 5.21 7.927 5.21s-5.41-8.492-3.955-9.255c1.454-.763 6.791 10.007 6.791 10.007S426.978-.256 429.043.004c2.061.26 6.269 11.748 6.269 11.748s-1.98-11.76-.201-11.574c1.782.184 4.987 16.017 4.987 16.017 3.265-3.743 5.902-1.31 5.902-1.31l-8.277 8.566s-2.976-.09-3.962.08zM484.982 72.03c-2.775-.428-9.486 3.758-12.844 10.582-1.879 3.819-3.173 7.698-1.016 13.909 1.016 2.922 3.142 3.288 3.617 4.596.6 1.657-1.387 6.88-1.387 6.88l7.922 3.003c.515-3.588 1.098-7.198 4.994-8.755 1.457-.584 3.017-.953 4.393-1.693 3.711-1.997 5.693-6.365 7.218-9.942 1.138-2.671-5.938-17.51-12.897-18.58z" fill="#FFC6B2"/><path fill-rule="evenodd" clip-rule="evenodd" d="M476.335 172.94 463.104 168s-39.267 67.76-39.103 86.561C424.163 273.36 477.932 311 477.932 311l9.068-7.293s-16.601-26.936-25.475-36.433c-8.875-9.499 14.81-94.334 14.81-94.334z" fill="#FFB2A0"/><path fill-rule="evenodd" clip-rule="evenodd" d="M541.149 249s28.884-12.511 23.08-13.616c-5.804-1.1-19.378.416-21.247 1.378-1.872.964-9.982 6.931-9.982 6.931l8.149 5.307z" fill="#FFC6B2"/><path fill-rule="evenodd" clip-rule="evenodd" d="m489.123 172-20.01 6.785s-20.015 82.05-12.374 94.931c7.639 12.887 29.098 4.36 59.661-11.186l25.6-13.024-8.545-5.301s-29.789 5.44-38.155 10.865c0 0 4.366-11.529 10.187-27.803 5.82-16.275 9.835-32.889-16.364-55.267zM464 115.537c0-5.535 1.912-9.537 7.851-9.537S486 107.94 486 113.475c0 5.537-4.68 14.525-10.622 14.525-5.939 0-11.378-6.927-11.378-12.463z" fill="#FFC6B2"/><path fill-rule="evenodd" clip-rule="evenodd" d="M469 106.07s-18.181-18.483-21.818-36.589C443.544 51.378 437.365 22 437.365 22l-6.91 1.869s-3.274 40.149 0 46.296c3.272 6.15 19.263 47.085 24.132 57.835L469 106.07zM488 119.777s1.397-5.759 24.368-13.585C535.339 98.366 578.676 73 578.676 73L583 77.658s-23.547 25.613-37.246 30.105c-13.7 4.494-42.796 22.208-45.79 23.625-4.527 2.145-4.472 4.843-11.964-11.611z" fill="#FFC6B2"/><path fill-rule="evenodd" clip-rule="evenodd" d="M468.471 106S450 111.585 450 137.805c0 0 .012 35.91 4.365 42.443 0 0 7.077 1.692 15.9 0 9.251-1.774 18.206-8.142 18.206-8.142L503 131.413l-1.738-19.066-19.755-3.559s5.667 24.707-14.837 14.085c-3.984-2.064 5.863-16.081 5.863-16.081l-4.062-.792z" fill="#22343D"/><path fill-rule="evenodd" clip-rule="evenodd" d="M453.165 127 444 109.456S445.314 98.814 462.139 95c0 0 1.702 5.365 3.567 7.414 1.864 2.048 7.294 4.229 7.294 4.229L453.165 127zM487.016 134l28.931-5.569s5.03-9.788-6.897-21.431c0 0-22.567 1.28-25.488 1.508-2.875.224-.901 2.304-.901 2.304L487.016 134zM454.744 171.723S427.501 219.032 423 227.485c0 0 80.373 34.678 113-7.063 0 0-18.559-36.895-47.251-50.941L476.372 166l-21.144 5.496" fill="#22343D"/><path fill-rule="evenodd" clip-rule="evenodd" d="M496.858 89.71s3.021-3.099 4.879-.954C503.595 90.901 495 94 495 94l1.858-4.29z" fill="#FFC6B2"/><path fill-rule="evenodd" clip-rule="evenodd" d="M553.999 50.47c.031.1-1.174.587-3.474 1.098-2.294.515-5.698.983-9.926 1.064-4.226.079-9.251-.272-14.751-.97-5.505-.68-11.484-1.682-17.775-2.323-6.281-.627-12.32-.742-17.669.065-5.35.793-9.98 2.43-13.52 4.342-3.54 1.927-6.003 4.065-7.515 5.683-1.52 1.619-2.205 2.653-2.359 2.566-.085-.04.373-1.206 1.751-3.02 1.369-1.81 3.785-4.199 7.389-6.358 3.601-2.146 8.387-3.99 13.948-4.912 5.569-.937 11.797-.864 18.187-.225 6.396.652 12.383 1.71 17.823 2.478 5.439.782 10.355 1.261 14.495 1.351 8.298.217 13.321-1.16 13.396-.84z" fill="#775298"/><path fill-rule="evenodd" clip-rule="evenodd" d="M480.985 87.913c-.009.109-.913.185-2.294-.215-.342-.105-.745-.242-1.12-.543a1.595 1.595 0 0 1-.463-.59 1.176 1.176 0 0 1 .01-1.006c.045-.058.042-.197.129-.2l.269-.007c.172-.021.375.028.574.06.365.061.482.052.742.068.455.009.927-.032 1.398-.123 1.929-.355 3.219-1.58 3.798-2.588.606-1.015.66-1.778.821-1.769.115-.013.34.798-.161 2.022a5.1 5.1 0 0 1-1.415 1.892c-.712.602-1.699 1.097-2.819 1.31a7.056 7.056 0 0 1-1.663.126 7.345 7.345 0 0 1-.715-.072c-.099-.014-.087-.034-.106-.023-.012.01-.018.027-.017.052a.85.85 0 0 0 .215.327c.207.204.506.355.798.482 1.195.512 2.042.663 2.019.797z" fill="#FF7B5B"/><path fill-rule="evenodd" clip-rule="evenodd" d="m474 89 11 4.105s-9.667 6.313-11-4.105z" fill="#fff"/><path fill-rule="evenodd" clip-rule="evenodd" d="M489.885 90.425c-.368.653-1.51.766-2.551.255-1.041-.51-1.587-1.453-1.22-2.104.369-.653 1.512-.768 2.553-.257 1.041.512 1.586 1.454 1.218 2.106zM477.92 84.312c-.309.696-1.418.898-2.478.449-1.06-.449-1.671-1.377-1.362-2.073.308-.696 1.418-.898 2.478-.449 1.06.449 1.671 1.377 1.362 2.073z" fill="#FFB2A0"/><path fill-rule="evenodd" clip-rule="evenodd" d="M474 100s3.915 2.637 8 1.788c0 0-1.408 1.698-6.83 1.075 0 0 .45-1.872-1.17-2.863z" fill="#FFA192"/><path fill-rule="evenodd" clip-rule="evenodd" d="M489 85a1 1 0 1 1-2.001-.001A1 1 0 0 1 489 85zM482 82a1 1 0 1 1-2 0 1 1 0 0 1 2 0z" fill="#22343D"/><path fill-rule="evenodd" clip-rule="evenodd" d="M490.902 81.989c-.25.096-.732-.435-1.463-.865-.715-.45-1.44-.65-1.439-.897-.023-.236.989-.427 1.972.173.984.596 1.179 1.517.93 1.588zM479 78.53c-.017-.18.86-.409 2.034-.387 1.195.018 2.077.43 1.955.602-.113.174-.945.1-1.993.085-1.054-.022-1.979-.103-1.996-.3z" fill="#775298"/><path fill-rule="evenodd" clip-rule="evenodd" d="M483 322.211s4.282 14.941 8.704 13.718c4.421-1.222 1.097-22.075 1.097-22.075L488.389 307s4.145 34.905-5.389 15.211zM539 239.789s3.191-3.15 7.059-3.674c3.87-.525 17.698-2.012 19.729-.35C567.82 237.427 554.58 243 554.58 243s4.613-2.659 2.698-3.648c-3.386-1.75-18.278.437-18.278.437zM533 244.065l4.529 7.935 2.471-1.184-6.04-7.816-.96 1.065zM484.566 300 474 309.419l3.131 2.581 8.869-9.548-1.434-2.452zM260.123 209.46c-3.043-7.073-4.212-14.948-8.753-21.278-6.534-9.108-19.085-13.627-24.387-23.414-2.253-4.156-2.959-8.911-2.983-13.571-.043-9.221 2.904-19.024 10.508-24.883 8.737-6.734 21.847-6.64 32.08-2.117 10.23 4.524 18.047 12.735 24.694 21.311 6.647 8.576 12.466 17.779 20.206 25.507 5.74 5.731 12.547 10.673 16.87 17.405 11.851 18.457-.343 41.809-21.265 48.471-18.384 5.851-40.61-12.642-46.97-27.431z" fill="#22343D"/><path fill-rule="evenodd" clip-rule="evenodd" d="M234.502 340.809c1.832 1.426-.167.438 2.498 2.082-.595 6.304-6.753 10.275-6.753 10.275s-.26 10.037-2.238 9.831c-1.983-.203-.713-9.665-.713-9.665s-4.055 9.886-5.77 9.257c-1.714-.627 4.493-11.971 4.493-11.971s-8.7 11.337-9.895 9.55c-1.194-1.786 6.461-12.726 6.461-12.726s-9.452 9.382-10.52 7.863c-1.066-1.515 11.28-14.563 11.28-14.563-5.714-.059-5.31-3.742-5.31-3.742l13.918.782s1.706 2.368 2.549 3.027zM366.657 153.511c2.391.387.536-.344 3.638.489 5.095-4.272 4.419-10.985 4.419-10.985s8.544-6.325 7.127-7.56c-1.425-1.239-8.837 5.425-8.837 5.425s6.03-8.844 4.408-9.64c-1.619-.794-7.569 10.425-7.569 10.425s4.378-12.932 2.075-12.661c-2.296.272-6.988 12.238-6.988 12.238s2.206-12.25.221-12.056c-1.986.192-5.197 16.24-5.197 16.24-4.679-3.514-7.954-1.265-7.954-1.265l10.24 9.268s3.319-.094 4.417.082zM308.517 208.035c4.302-.629 17.42 7.333 14.082 23.503-.279 1.357-2.172 4.346-2.644 5.582-.595 1.565 4.045 7.295 4.045 7.295L312.021 248c-.511-3.389.348-8.343-3.523-9.815-1.448-.551-2.998-.9-4.364-1.598-3.689-1.887-5.658-6.014-7.173-9.393-1.131-2.525-1.992-5.24-1.96-7.98.079-6.899 6.602-10.168 13.516-11.179z" fill="#FFC6B2"/><path fill-rule="evenodd" clip-rule="evenodd" d="M333 251.986c0-5.78-2.002-7.986-8.628-7.986S309 246.206 309 251.986c0 5.78 4.679 13.014 11.307 13.014 6.625 0 12.693-7.234 12.693-13.014z" fill="#FFC6B2"/><path fill-rule="evenodd" clip-rule="evenodd" d="M327 241.785s19.999-19.519 23.999-38.64c4.002-19.12 10.8-50.145 10.8-50.145l7.6 1.973s3.602 42.401 0 48.894c-3.599 6.495-24.001 51.59-23.6 63.133L327 241.785zM290.761 251s-6.818 1.082-17.247 23.452C263.086 296.821 231 338.466 231 338.466l5.215 4.534s31.283-22.007 37.299-35.355c6.015-13.349 13.636-29.945 17.247-29.225 3.608.723 18.85-19.123 0-27.42z" fill="#FFC6B2"/><path fill-rule="evenodd" clip-rule="evenodd" d="m345.45 270 9.55-24.433s-1.473-11.459-20.322-15.567L324 244.26 345.45 270zM294.09 249s-11.096.886-20.09 19.616c0 0 9.891 12.947 17.127 13.384 0 0 26.875-21.78 2.963-33z" fill="#FF7B5B"/><path fill-rule="evenodd" clip-rule="evenodd" d="M325 468.928s-15.937 31.122-17.8 25.36c-1.86-5.764-1.246-19.606-.247-21.582 1.002-1.977 7.517-10.706 7.517-10.706l10.53 6.928z" fill="#FFC6B2"/><path fill-rule="evenodd" clip-rule="evenodd" d="M325.85 322.252 340.551 317s43.629 72.026 43.448 92.009C383.819 428.99 324.077 469 324.077 469L314 461.246s28.317-38.9 38.176-48.995c4.931-5.048-30.367-29.789-35.713-53.594s9.387-36.405 9.387-36.405z" fill="#654287"/><path fill-rule="evenodd" clip-rule="evenodd" d="M238 452.271s-30.219 20.453-28.962 14.713c1.261-5.745 8.869-17.471 10.776-18.775 1.911-1.302 12.228-6.209 12.228-6.209L238 452.271z" fill="#FFC6B2"/><path fill-rule="evenodd" clip-rule="evenodd" d="M286.364 348.479 329.893 325s1.728 81.559-8.722 99.193C310.722 441.828 236.972 453 236.972 453L232 442.035s45.5-25.231 59.47-30.169c13.97-4.94-5.106-63.387-5.106-63.387z" fill="#775298"/><path fill-rule="evenodd" clip-rule="evenodd" d="M311.726 309s-32.08 10.569-25.947 39.567C291.911 377.564 302.132 383 302.132 383l18.397-28.09L339 318.125l-18.471-2.18-8.803-6.945z" fill="#775298"/><path fill-rule="evenodd" clip-rule="evenodd" d="M327.502 241S351 253.377 351 281.346c0 0-2.985 31.885-7.823 38.852 0 0-7.864 1.805-17.67 0-10.281-1.892-20.23-8.684-20.23-8.684l-8.03-39.037L291 249.683l3.387-1.05 17.672-1.824s-2.539 24.812 17.194 12.491c4.156-2.596-5.174-15.534-5.174-15.534l3.423-2.766z" fill="#FF7B5B"/><path fill-rule="evenodd" clip-rule="evenodd" d="M342 136.105 391.28 163 419 114.013 372.8 90 342 136.105zM409.948 371 445 350.577 416.041 303 384 322.556 409.948 371z" fill="#fff"/><path fill-rule="evenodd" clip-rule="evenodd" d="M237.01 168.005c.092-.079 1.174.852 2.885 2.751 1.704 1.902 4.028 4.794 6.361 8.696 2.342 3.885 4.659 8.816 6.314 14.539 1.713 5.68 2.861 12.065 5.493 18.216 1.367 3.038 3.023 5.867 4.995 8.368 1.989 2.484 4.194 4.664 6.465 6.566 4.64 3.702 9.502 6.248 13.834 7.719 4.327 1.492 8.034 2.161 10.612 2.401 2.574.27 4.03.31 4.031.47.007.1-1.444.31-4.088.262-2.642-.019-6.488-.498-11.018-1.874-4.533-1.358-9.655-3.87-14.552-7.652-2.403-1.945-4.737-4.196-6.84-6.783-2.086-2.602-3.848-5.578-5.278-8.763-2.743-6.429-3.826-12.87-5.421-18.475a65.476 65.476 0 0 0-5.782-14.358c-2.127-3.905-4.239-6.865-5.736-8.883-1.506-2.014-2.388-3.106-2.275-3.2zM297.101 136c.362-.051.713 4.497 3.42 11.224a49.587 49.587 0 0 0 6.252 11.07c1.444 1.936 3.105 3.842 4.985 5.742 1.868 1.907 3.902 3.845 5.824 6.019 3.855 4.387 6.507 9.129 9.004 13.314 2.48 4.226 4.455 8.246 5.459 11.842 1.047 3.586 1.108 6.672.776 8.719-.347 2.056-.891 3.098-.981 3.069-.173-.042.109-1.142.207-3.135.086-1.989-.184-4.889-1.355-8.277-1.131-3.403-3.167-7.238-5.707-11.374-2.58-4.135-5.256-8.781-8.938-12.962-1.848-2.092-3.853-4.023-5.732-5.978-1.889-1.946-3.607-3.973-5.057-6.001-2.907-4.06-4.849-8.106-6.064-11.604a39.754 39.754 0 0 1-2.024-8.481c-.249-2.037-.182-3.177-.069-3.187z" fill="#22343D"/><path fill-rule="evenodd" clip-rule="evenodd" d="M312.159 225.908c-.019-.132.819-.253 1.611-1.094.182-.194.366-.478.363-.643-.005-.177-.142-.485-.377-.662a1.137 1.137 0 0 0-.875-.262c-.371.025-.822.191-1.411.271-1.291.156-2.298-.505-2.961-1.039a9.936 9.936 0 0 1-1.587-1.645c-.772-1.03-1.012-1.774-.893-1.829.136-.066.601.55 1.472 1.414.434.429.982.921 1.63 1.395.638.461 1.418.88 2.198.769.413-.048.894-.223 1.481-.259.597-.053 1.26.196 1.625.567.387.38.605.827.559 1.356-.115.542-.433.795-.696 1.031-1.134.9-2.175.753-2.139.63z" fill="#FF7B5B"/><path fill-rule="evenodd" clip-rule="evenodd" d="m318 226-9 2.993s7.636 6.111 9-2.993z" fill="#fff"/><path fill-rule="evenodd" clip-rule="evenodd" d="M307.885 225.575c.368.652-.177 1.595-1.218 2.105-1.042.511-2.184.398-2.552-.255-.368-.651.177-1.594 1.218-2.105 1.042-.511 2.184-.398 2.552.255zM318.927 220.714c.295.706-.329 1.629-1.392 2.063-1.065.435-2.166.215-2.462-.492-.295-.706.329-1.628 1.393-2.062 1.064-.434 2.165-.215 2.461.491z" fill="#FFB2A0"/><path fill-rule="evenodd" clip-rule="evenodd" d="M309 238.305s3.077.541 7-.305c0 0-1.934 1.623-5.093 2 0 0-.708-1.131-1.907-1.695z" fill="#FFA192"/><path fill-rule="evenodd" clip-rule="evenodd" d="M312.647 218.237a1.001 1.001 0 1 1-1.296 1.526 1.001 1.001 0 0 1 1.296-1.526zM305.647 222.237a1.001 1.001 0 1 1-1.296 1.526 1.001 1.001 0 0 1 1.296-1.526zM312.991 215.344c-.095.17-.983.163-1.96.328-.985.148-1.732.415-1.974.3-.25-.097.329-.691 1.665-.902 1.333-.214 2.388.117 2.269.274zM301.063 220.973c-.214-.155.121-1.042.936-1.93.823-.907 1.877-1.21 1.987-.957.118.247-.524.822-1.246 1.619-.733.795-1.446 1.437-1.677 1.268z" fill="#22343D"/><path fill-rule="evenodd" clip-rule="evenodd" d="M297.854 228.078s-3.155-2.273-4.67-.217C291.67 229.917 300 231 300 231l-2.146-2.922z" fill="#FFC6B2"/><path fill-rule="evenodd" clip-rule="evenodd" d="M225 446s-4.401 1.753-5.549 2.805c-1.148 1.052-11.673 17.704-10.333 19.807 1.34 2.104 11.894-5.037 11.894-5.037S212.18 465.107 225 446zM309.225 468s-3.159 3.146-3.647 4.591c-.487 1.443-1.36 20.986.919 22.298 2.277 1.314 8.503-9.47 8.503-9.47s-7.443 5.372-5.775-17.374" fill="#775298"/></svg>