<svg width="40" height="40" fill="none" xmlns="http://www.w3.org/2000/svg"><path fill="#fff" d="M.708 0h39.108v39.998H.708z"/><path d="m31.004 7.119.306-.385-.379-.312a16.672 16.672 0 0 0-10.669-3.845 16.9 16.9 0 0 0-4.098.524l-.727.182.447.602c1.39 1.87 3.389 4.696 5.78 9.121l.207.383.408-.152c4.527-1.68 7.24-4.252 8.725-6.118zm-17.3-2.758-.245-.323-.367.173C8.596 6.331 5.19 10.383 3.845 15.33l-.166.61.633.02c2.476.078 8.394-.038 14.951-1.795l.619-.166-.31-.56c-2.544-4.583-4.683-7.517-5.868-9.078zM33.157 8.62l-.387-.46-.382.465c-1.656 2.021-4.531 4.646-9.083 6.428l-.507.198.24.488a72.893 72.893 0 0 1 2.801 6.427l.143.379.4-.061a38.401 38.401 0 0 1 8.637-.323c.56.046.92.098 1.34.159l.276.04.512.072.055-.514A17.619 17.619 0 0 0 33.158 8.62zM21.01 16.247l-.185-.371-.399.113c-7.713 2.192-14.508 2.125-16.624 2.04l-.482-.02-.036.48-.003.034a19.06 19.06 0 0 0-.074 1.486c0 5.233 2.264 9.905 5.835 13.102l.373.334.334-.373a49.726 49.726 0 0 1 3.555-3.608l.002-.002c2.746-2.531 6.28-5.21 10.129-6.379l.516-.157-.196-.503a74.489 74.489 0 0 0-2.745-6.176zm9.49 7.896h-.005a38.167 38.167 0 0 0-3.182.293l-.595.08.185.57c.924 2.844 1.688 5.856 2.182 8.99l.124.789.655-.456a17.322 17.322 0 0 0 6.72-9.386l.164-.57-.589-.066c-1.46-.165-3.311-.332-5.659-.244zm-5.656 1.186-.154-.454-.46.134c-3.38.984-6.917 3.535-9.598 5.995-1.295 1.179-2.341 2.298-3.18 3.214l-.413.45.523.316c2.546 1.535 5.501 2.437 8.69 2.437 2.394 0 4.652-.505 6.714-1.396l.348-.15-.05-.377c-.485-3.573-1.34-6.98-2.42-10.17zm-23.636-5.33C1.208 9.246 9.775.5 20.262.5 30.75.5 39.316 9.246 39.316 19.999c0 10.753-8.567 19.499-19.054 19.499-10.487 0-19.054-8.746-19.054-19.499z" fill="#070707" stroke="#070707"/></svg>