<svg width="42" height="41" fill="none" xmlns="http://www.w3.org/2000/svg"><path d="M35.283 1h-28.4C3.64 1 1 3.603 1 6.803V34.81c0 3.2 2.64 5.802 5.884 5.802h28.399c3.244 0 5.884-2.603 5.884-5.802V6.803c0-3.2-2.64-5.803-5.884-5.803zm3.53 33.81c0 1.92-1.584 3.482-3.53 3.482h-28.4c-1.946 0-3.53-1.562-3.53-3.481V6.803c0-1.92 1.584-3.482 3.53-3.482h28.4c1.947 0 3.53 1.562 3.53 3.482V34.81z" fill="#070707" stroke="#070707" stroke-width=".5"/><mask id="a" fill="#fff"><path d="M32.128 29.714h-4.312v-7.122c0-.491-.036-.976-.16-1.456-.516-1.976-2.742-1.86-3.628-.924-.445.47-.735 1.003-.748 1.66-.003.157-.012.314-.012.47v7.371h-4.304V16.496h4.302v1.773l.034.015.092-.123c.432-.593.927-1.117 1.585-1.473.736-.396 1.53-.53 2.356-.506.895.026 1.745.225 2.51.701.98.61 1.579 1.504 1.929 2.576.273.835.362 1.696.363 2.569.002 2.51 0 5.02 0 7.531 0 .05-.004.098-.007.155z"/></mask><path d="M32.128 29.714h-4.312v-7.122c0-.491-.036-.976-.16-1.456-.516-1.976-2.742-1.86-3.628-.924-.445.47-.735 1.003-.748 1.66-.003.157-.012.314-.012.47v7.371h-4.304V16.496h4.302v1.773l.034.015.092-.123c.432-.593.927-1.117 1.585-1.473.736-.396 1.53-.53 2.356-.506.895.026 1.745.225 2.51.701.98.61 1.579 1.504 1.929 2.576.273.835.362 1.696.363 2.569.002 2.51 0 5.02 0 7.531 0 .05-.004.098-.007.155z" fill="#070707"/><path d="M32.128 29.714v.03h.029l.002-.029-.031-.001zm-4.312 0h-.03v.03h.03v-.03zm0-7.122h.031-.03zm-.16-1.456.029-.007-.03.007zm-3.628-.924.023.021-.023-.02zm-.748 1.66h-.03.03zm-.012.47h.03-.03zm0 7.37v.031h.03v-.03h-.03zm-4.304 0h-.03v.031h.03v-.03zm0-13.216v-.03h-.03v.03h.03zm4.302 0h.03v-.03h-.03v.03zm0 1.773h-.031v.02l.018.008.012-.028zm.034.015-.012.028.022.01.015-.02-.025-.018zm.092-.123.025.018-.025-.018zm1.585-1.473.015.027-.015-.026zm2.356-.506.001-.03v.03zm2.51.701.016-.026-.016.026zm1.929 2.576-.03.01.03-.01zm.363 2.569h.03-.03zm0 7.531h-.03.03zm-.007.124H27.816v.061H32.128v-.06zm-4.281.03V29.517h-.061V29.714h.061zm0-.196v-6.925h-.06c-.002 2.308-.001 4.617-.001 6.925h.061zm0-6.925c0-.493-.037-.98-.162-1.463l-.06.015c.124.476.161.958.161 1.448h.061zm-.162-1.463c-.261-1.001-.957-1.475-1.7-1.577-.74-.103-1.529.163-1.979.64l.045.041c.435-.46 1.203-.72 1.925-.62.72.099 1.395.556 1.65 1.531l.059-.015zm-3.679-.938c-.448.475-.744 1.014-.756 1.68l.06.002c.013-.648.299-1.173.74-1.64l-.044-.042zm-.756 1.68c-.003.155-.012.315-.012.47h.06c0-.156.01-.31.013-.468l-.061-.001zm-.012.47v7.169h.06v-7.168h-.06zm0 7.169V29.713h.06V29.51h-.06zm.03.172H18.964v.061H23.268v-.061zm-4.274.03V16.497h-.06V29.713h.06zm-.03-13.185H23.265v-.061H18.965v.061zm4.27-.03V18.268h.062V16.496h-.061zm.02 1.8.034.015.024-.056-.035-.015-.024.056zm.07.005.093-.123-.05-.036-.092.123.05.036zm.093-.123c.43-.59.922-1.112 1.575-1.463l-.03-.054c-.663.358-1.162.887-1.594 1.48l.05.037zm1.575-1.463c.73-.394 1.518-.527 2.34-.503l.002-.061c-.83-.024-1.63.11-2.371.51l.029.053zm2.34-.503c.891.026 1.735.224 2.495.696l.032-.052c-.771-.48-1.626-.68-2.525-.705l-.002.06zm2.495.696c.973.606 1.567 1.493 1.916 2.56l.058-.02c-.352-1.077-.954-1.977-1.942-2.592l-.032.052zm1.916 2.56c.271.83.36 1.688.361 2.559h.062c-.001-.875-.091-1.74-.365-2.579l-.058.02zm.361 2.559c.002 2.51.001 5.02.001 7.531h.061c0-2.51.002-5.021 0-7.532h-.062zm.001 7.531c0 .048-.005.095-.008.153l.061.003c.003-.055.008-.106.008-.156h-.061z" fill="#070707" mask="url(#a)"/><path d="M16.319 29.705H12.069V16.508H16.319V29.704zM14.377 9.93c.67-.002 1.242.234 1.646.636.404.401.643.97.645 1.64.002.662-.238 1.226-.648 1.625-.41.4-.991.634-1.675.634-1.332.001-2.281-.94-2.284-2.264-.002-1.325.96-2.27 2.316-2.272z" fill="#070707" stroke="#070707" stroke-width=".031"/></svg>